<?xml version="1.0" encoding="UTF-8"?><svg id="Слой_1" data-name="Слой 1" xmlns="http://www.w3.org/2000/svg" viewBox="0 0 40 40"><defs><style>.cls-1, .cls-2 {stroke: #000;stroke-miterlimit: 10;}.cls-1 {stroke-width: 0.1px;}.cls-2 {stroke-width: 0.25px;}</style></defs><path class="cls-1" d="M17.69,9.11H18c0,.1,0,.1-.1.2.1.1.1.2.2.3a1.49,1.49,0,0,1,1.4-.8h.2a.1.1,0,0,1-.1-.1,1.27,1.27,0,0,0-.6.1,1.42,1.42,0,0,0-.6.2h-.1C18.09,9,18,9.11,17.69,9.11Z"/><path d="M14.57,14.27a.29.29,0,0,0,.26-.35c-1-4,1.22-6.73,5.21-6.82a5.38,5.38,0,0,1,5,5.15,2.69,2.69,0,0,0,1.56,2.85c2.07,1.11,2.55,3,2.24,5.15-.27,1.88-1.58,2.86-3.38,3.44a2.17,2.17,0,0,0-1.12,1.22c-1.12,2.92-2.12,5.87-3.21,8.79-.31.82-.72,1.59-1.24,2.65a.3.3,0,0,1-.54,0c-1.16-2.71-2.16-5-3.14-7.37-.67-1.62-1.17-3.31-2-4.86-.37-.71-1.29-1.61-2-1.62-1.44,0-1.4-.85-1.44-1.69,0-.61.23-1.23.26-1.84C11.24,16.65,11.6,14.52,14.57,14.27ZM11.33,21.6a.3.3,0,0,0,.3.27c1.7,0,2.46.86,3,2.4C16.11,28,18,32.16,19.57,35.84c.16,0,.39-.63.55-.64,1.3-4,2.91-7.63,4.25-11.72a.28.28,0,0,1,.28-.19c2.45,0,3.68-1.66,3.73-3.92.07-3.5-2.21-4.9-6.33-5,.68-.11,1.81,0,2.56-.05a.3.3,0,0,0,.26-.26c.25-2.75-1.62-5.83-3.72-6.5a5.38,5.38,0,0,0-5.46,2c-1,1.43-1.3,3.12-.23,4.45a.29.29,0,0,1-.16.46C11.57,15.38,11,16.81,11.33,21.6Z"/><path d="M16.21,26l2.54,7.41C18.59,32.05,18.46,30.21,16.21,26Z"/><path d="M16.32,11.43c-.08-2,.21-2.53,1.44-2.69C16.68,9.29,16.64,10.36,16.32,11.43Z"/><path d="M25.72,16.17c.59.14.74.42.65,1.24Z"/><path d="M16.19,22.83a2.14,2.14,0,0,0,1.56-1.12.75.75,0,0,1-.26-.21,2.76,2.76,0,0,1-.78.78,1.07,1.07,0,0,1-1.54-.38,4.19,4.19,0,0,1-.29-.69.58.58,0,0,1-.21.07c0,.09.08.18.11.27A1.66,1.66,0,0,0,16.19,22.83Z"/><path d="M14.05,15.81a.66.66,0,0,1-.38-.11l-.1,0-.16,0a1.15,1.15,0,0,1,.36.51h.11a.65.65,0,0,1,.32.16.63.63,0,0,0-.14-.57Z"/><path d="M24.8,23.32c-.07,0-.12,0-.19,0s-.06,0-.08.08a.57.57,0,0,1-.11.16,2.27,2.27,0,0,1-2.51.42,1.16,1.16,0,0,0-.61-.06c-1,.24-1.93.36-2.44-.71-.33.19-.64.52-.92.49-.51-.06-.74.23-1.05.47a1.18,1.18,0,0,1-2-.53,14.79,14.79,0,0,1-1.41-1,.45.45,0,0,1-.12-.21.52.52,0,0,1-.25,0,.41.41,0,0,0,.1.24c.44.35.72.9,1.3,1.08a.56.56,0,0,1,.29.26,1.18,1.18,0,0,0,1.75.63,2.09,2.09,0,0,0,.44-.25,1.19,1.19,0,0,1,.93-.35c.23,0,.47-.24.74-.39.68.8,1.56.61,2.42.52a.93.93,0,0,1,.53,0A2.43,2.43,0,0,0,25,23.53C24.9,23.52,24.85,23.34,24.8,23.32Z"/><path class="cls-2" d="M25,23.3l0,0a1.8,1.8,0,0,0-.22-.06.3.3,0,0,0-.21,0,.93.93,0,0,0-.19.11.66.66,0,0,1-.19.09,2.22,2.22,0,0,1-.46.12,4.33,4.33,0,0,1-1.08,0,3.58,3.58,0,0,1-.78-.15,1.46,1.46,0,0,0-.62-.06c-1,.11-1.93.16-2.41-.57-.34.11-.65.33-.94.29a1.69,1.69,0,0,0-1.06.27,1.42,1.42,0,0,1-2-.42L14,22.48l-.33-.18-.12-.07a.33.33,0,0,0-.1-.06.25.25,0,0,0-.12,0,2.09,2.09,0,0,1-.42.05h0l.12,0a.22.22,0,0,1,.11,0c.43.25.69.63,1.27.77a.51.51,0,0,1,.28.18,1.45,1.45,0,0,0,1.74.48,2.07,2.07,0,0,0,.44-.15,1.7,1.7,0,0,1,.94-.19,2.2,2.2,0,0,0,.75-.23,3.38,3.38,0,0,0,2.4.43,1.49,1.49,0,0,1,.53,0,4.83,4.83,0,0,0,1.1.34,5.23,5.23,0,0,0,1.12.07,3.26,3.26,0,0,0,.92-.18,1.38,1.38,0,0,0,.27-.14l.11-.09s.06-.06,0-.12A.22.22,0,0,0,25,23.3Z"/><path d="M21.24,32.24a1.61,1.61,0,0,1-.28.17,2.79,2.79,0,0,1-1.07.28,1,1,0,0,1,.06.25,10.52,10.52,0,0,0,1.14-.27,1.4,1.4,0,0,0,.42-.22A.71.71,0,0,1,21.24,32.24Z"/><path d="M21.53,31.23a1.78,1.78,0,0,1-.27.17,2.82,2.82,0,0,1-1.08.27.57.57,0,0,1,.06.25,10.68,10.68,0,0,0,1.15-.26,1.53,1.53,0,0,0,.42-.22A.74.74,0,0,1,21.53,31.23Z"/><path d="M16.3,13.21c.32,1,.54,1.1,1.32.37a.54.54,0,0,1,.71-.11,1.67,1.67,0,0,1,.49.5.79.79,0,0,0,1,.39,4.43,4.43,0,0,0,1-.45,2.08,2.08,0,0,0,.69-.7.56.56,0,0,1-.27-.08,1.83,1.83,0,0,1-1.41,1,.89.89,0,0,1-.89-.46c-.54-.85-1.12-.88-1.68-.1-.23.32-.43.3-.63-.06a.85.85,0,0,1-.08-.17,1.48,1.48,0,0,0-.69-1.07l-.14,0-.29.08a1.86,1.86,0,0,1,.07.34A.74.74,0,0,1,16.3,13.21Z"/><path d="M27,20.67a4.55,4.55,0,0,1-.47,1.2c-.3.37-.79.32-1.27.05a.73.73,0,0,0,1,.37C26.89,22.08,27.07,21.66,27,20.67Z"/><path d="M15.78,14.58a4.36,4.36,0,0,1,1.06-.18,5.58,5.58,0,0,1,1.08,0A3.92,3.92,0,0,1,19,14.7c.08,0,.17.07.25.12l.24.15.2.18a2.22,2.22,0,0,1,.15.23,2.59,2.59,0,0,0-.95-.34c-.33-.06-.67-.1-1-.15l-1-.13C16.48,14.71,16.14,14.66,15.78,14.58Z"/><path d="M22.05,14.38a6.85,6.85,0,0,0-1.92,1.2,2.75,2.75,0,0,0-1,1.81,4.51,4.51,0,0,0,0,.52c0,.19,0,.37.07.55a7.64,7.64,0,0,0,.21,1.08,3.88,3.88,0,0,0,1,1.93,2.56,2.56,0,0,1-.86-.78,4.25,4.25,0,0,1-.53-1,7.41,7.41,0,0,1-.3-1.12c0-.19-.05-.38-.08-.57a4.06,4.06,0,0,1,0-.61,3,3,0,0,1,.13-.59,2.49,2.49,0,0,1,.11-.29l.14-.27a3.32,3.32,0,0,1,.82-.89A4.9,4.9,0,0,1,22.05,14.38Z"/><path d="M23.44,15.61a4.26,4.26,0,0,0-1.07,0,1.41,1.41,0,0,0-.88.39,1.66,1.66,0,0,0-.38.9,4.4,4.4,0,0,0-.05,1,2.9,2.9,0,0,1-.14-1.05,2,2,0,0,1,.11-.54,1.42,1.42,0,0,1,.28-.49,1.23,1.23,0,0,1,.49-.32,1.54,1.54,0,0,1,.56-.1A2.82,2.82,0,0,1,23.44,15.61Z"/><path d="M19.67,8.3a3.29,3.29,0,0,1,1.13-.1,2.27,2.27,0,0,1,1.08.38l.12.09.1.11a1,1,0,0,1,.18.23c.1.16.18.32.26.48a3,3,0,0,1,.35,1,2.39,2.39,0,0,0-.24-.48c-.08-.16-.18-.31-.27-.46l-.29-.46a1,1,0,0,0-.16-.19l-.09-.09-.1-.07a2.31,2.31,0,0,0-1-.39A5.7,5.7,0,0,0,19.67,8.3Z"/><path d="M19.84,9.36a2.17,2.17,0,0,1,.8.09,1.53,1.53,0,0,1,.71.4l.06.08.06.09a1.51,1.51,0,0,1,.09.18c.05.13.08.25.12.38a2.15,2.15,0,0,1,.09.76,1.54,1.54,0,0,0-.09-.37l-.13-.36c-.05-.11-.09-.24-.14-.35a1.19,1.19,0,0,0-.08-.16l0-.07L21.22,10a1.6,1.6,0,0,0-.62-.39A3.7,3.7,0,0,0,19.84,9.36Z"/><path d="M13,16.79c-.16.41-.31.83-.43,1.25a3.53,3.53,0,0,0-.13.63,1.38,1.38,0,0,0,0,.61,3.2,3.2,0,0,0,.7,1.07,5.23,5.23,0,0,0,.49.45,1.17,1.17,0,0,0,.59.29.56.56,0,0,1-.34-.05,1.87,1.87,0,0,1-.32-.15,3.64,3.64,0,0,1-.55-.42,2.92,2.92,0,0,1-.8-1.12,1.71,1.71,0,0,1,0-.71,3.69,3.69,0,0,1,.18-.65A5.42,5.42,0,0,1,13,16.79Z"/><path d="M14.35,16.68a6.21,6.21,0,0,0-.59.26l-.27.17a.66.66,0,0,0-.2.21,1.51,1.51,0,0,0-.15.59,1.6,1.6,0,0,0,0,.31.53.53,0,0,0,.09.3.26.26,0,0,1-.1-.13,1,1,0,0,1-.05-.16,1.66,1.66,0,0,1,0-.32,1.3,1.3,0,0,1,.14-.64.78.78,0,0,1,.24-.24,1.18,1.18,0,0,1,.29-.16A2.85,2.85,0,0,1,14.35,16.68Z"/><path d="M20,28.92l0-.23a13.22,13.22,0,0,0,3.2-1.61l.14.19A13.08,13.08,0,0,1,20,28.92Z"/><path d="M24.2,25.09c-.87.46-1.74.88-2.64,1.26-.45.19-.9.37-1.37.53a6.9,6.9,0,0,1-1.42.37l0-.16a7.53,7.53,0,0,0,1.38-.41c.45-.17.89-.37,1.32-.57.87-.41,1.73-.86,2.56-1.34Z"/><path d="M25.3,16.61a3,3,0,0,0-.3-.37c-.11-.11-.29-.4-.4-.26s-.47.06-.68,0-.38-.08-.47.19a.54.54,0,0,1-.25.33s.38-.36.51-.32.95.08,1.07.23.35.28.44.22Z"/><path d="M19.19,6.58c.74.48,1.21,0,1.73-.49C20.44,7.08,19.8,7.25,19.19,6.58Z"/><path d="M19.86,4.5a1,1,0,0,0-.55.12,1.34,1.34,0,0,0-.42.36,1.92,1.92,0,0,0-.27.46c0,.08-.06.16-.1.24a1.84,1.84,0,0,0-.05.25.94.94,0,0,0,0,.5,1,1,0,0,0,.28.46,1.48,1.48,0,0,0,1.06.3,2.33,2.33,0,0,0,.55-.11,1.09,1.09,0,0,0,.25-.1l.11-.05.09-.08A1,1,0,0,0,21.2,6a1.54,1.54,0,0,0-.37-.93A1.62,1.62,0,0,0,19.86,4.5Zm0,0A2.82,2.82,0,0,1,21,4.88a1.39,1.39,0,0,1,.43.47,1.36,1.36,0,0,1,.13.3,1.77,1.77,0,0,1,.05.32v.17a.88.88,0,0,1,0,.16,1.09,1.09,0,0,1-.1.32,2.9,2.9,0,0,1-.19.29,1.37,1.37,0,0,1-.25.23l-.14.09-.15.07a1.17,1.17,0,0,1-.32.09,1.72,1.72,0,0,1-.32,0,1.61,1.61,0,0,1-.31,0l-.31,0-.15-.05-.14,0A1.76,1.76,0,0,1,18.69,7a1.33,1.33,0,0,1-.41-.47,1,1,0,0,1-.12-.29,1.19,1.19,0,0,1,0-.32,1.27,1.27,0,0,1,.17-.61,1.47,1.47,0,0,1,.41-.49A1.76,1.76,0,0,1,19.87,4.46Z"/><path d="M21.64,1.9a3.14,3.14,0,0,0-.87.65,1.88,1.88,0,0,0-.31.43,1.8,1.8,0,0,0-.15.48c-.07.36-.1.72-.19,1.07a6.86,6.86,0,0,1-.36,1h0a4.2,4.2,0,0,1,0-1.12A6.45,6.45,0,0,1,20,3.39a2.17,2.17,0,0,1,.24-.54,2.36,2.36,0,0,1,.39-.44,3,3,0,0,1,1-.55Z"/></svg>