<svg width="133" height="139" viewBox="0 0 133 139" fill="none" xmlns="http://www.w3.org/2000/svg">
<g clip-path="url(#clip0)">
<path d="M132.772 41.3579C130.4 32.7026 127.484 24.2057 124.042 15.9179C124.012 15.8579 123.992 15.7979 123.962 15.7379C122.987 13.2774 121.574 11.0142 119.792 9.05791C118.373 7.58718 116.676 6.41267 114.8 5.60246C112.924 4.79224 110.905 4.36242 108.862 4.33791C104.972 4.13791 101.082 3.70791 97.192 3.19791C95.692 3.00791 94.192 2.79791 92.6818 2.58791C87.442 1.85791 82.2018 1.06791 76.9318 0.587911C74.3317 0.347911 71.7251 0.16791 69.112 0.0479099C67.6017 -0.0220901 66.092 -0.0720895 64.5817 -0.0920895C61.4718 -0.142089 58.3719 -0.0920918 55.2819 0.0579082C50.6 0.237281 45.9776 1.16921 41.5919 2.81791C40.0404 3.40161 38.5303 4.08986 37.0719 4.87791C34.1231 6.47815 31.3994 8.46208 28.9718 10.7779C25.2516 14.3179 21.4918 17.8279 17.9518 21.5479C17.6818 21.8279 17.4119 22.1079 17.1418 22.3979C16.3718 23.2179 15.5817 24.0579 14.842 24.9379C13.4422 26.4618 12.3247 28.2226 11.5417 30.1379C8.10175 39.6279 5.16181 49.3079 2.16181 58.9479C-1.638 71.1379 -0.0281334 82.4379 8.19208 92.4679C9.05113 93.4267 9.65957 94.5832 9.96313 95.8343C10.2667 97.0853 10.2559 98.392 9.93183 99.6379C9.5185 101.903 9.8777 104.241 10.9518 106.278C13.3219 110.328 13.3019 113.868 11.632 118.298C8.77214 125.918 13.402 133.738 21.0016 134.818C25.0817 135.408 29.4919 136.038 33.3717 135.088C38.8317 133.758 43.4719 135.048 48.4621 136.678C53.6618 138.378 59.0817 140.338 64.5817 137.588C66.026 136.873 67.601 136.459 69.2104 136.373C70.8198 136.288 72.4298 136.531 73.9421 137.088C80.632 139.178 87.1017 139.298 92.7516 134.148C93.6477 133.423 94.7153 132.941 95.8517 132.748C102.173 131.375 108.08 128.527 113.092 124.438C116.642 121.638 119.022 118.488 120.012 114.098C120.542 111.778 121.632 109.588 122.272 107.288C123.072 104.428 124.252 101.508 124.232 98.6279C124.172 92.3479 126.332 86.9179 129.262 81.6079C130.312 79.9587 131.073 78.1427 131.512 76.2379C131.933 72.6677 132.08 69.0705 131.952 65.4779C131.857 62.0104 131.977 58.5404 132.312 55.0879C132.322 55.0379 132.322 54.9879 132.332 54.9379C132.002 50.8979 134.062 46.0179 132.772 41.3579ZM119.602 12.7479C119.742 12.7079 119.872 12.6679 120.012 12.6279C121.232 15.6279 122.482 18.6079 123.642 21.6279C123.642 21.6379 123.652 21.6479 123.652 21.6579C124.542 24.0079 125.332 26.3979 126.152 28.7679C126.932 31.0379 127.872 33.2779 128.422 35.6079C129.821 40.9776 129.154 46.6768 126.552 51.5779C124.002 56.5179 122.772 62.1479 120.872 67.7179C117.752 66.2979 118.062 63.5579 118.932 61.6079C119.132 61.1679 119.322 60.7179 119.492 60.2779C119.552 60.1479 119.602 60.0079 119.652 59.8779C119.812 59.4679 119.962 59.0579 120.102 58.6579C120.202 58.3879 120.292 58.1179 120.372 57.8479L120.612 57.0979C120.702 56.8079 120.782 56.5179 120.862 56.2379C120.962 55.8779 121.062 55.5179 121.142 55.1579C121.332 54.3779 121.502 53.5979 121.642 52.8179C121.732 52.3379 121.812 51.8479 121.882 51.3579C121.952 50.8679 122.012 50.3779 122.072 49.8979C122.122 49.4879 122.162 49.0879 122.192 48.6779C122.252 48.0479 122.292 47.4179 122.312 46.7879C122.332 46.4379 122.342 46.0879 122.352 45.7279C122.362 45.2679 122.372 44.7979 122.372 44.3379C122.372 43.8679 122.362 43.3879 122.352 42.9179C122.352 42.6779 122.342 42.4479 122.332 42.2079C122.332 41.9679 122.312 41.7379 122.302 41.4979V41.4679C122.292 41.2779 122.282 41.0879 122.272 40.9079C122.252 40.4479 122.222 39.9979 122.182 39.5379C122.152 39.0679 122.112 38.5979 122.062 38.1279C122.012 37.5279 121.952 36.9179 121.882 36.3179C121.792 35.5579 121.702 34.7879 121.602 34.0179C121.502 33.2479 121.392 32.4879 121.272 31.7179C121.182 31.0979 121.082 30.4679 120.982 29.8479C120.902 29.3179 120.812 28.7879 120.722 28.2679C120.592 27.4979 120.462 26.728 120.332 25.9579C120.192 25.128 120.052 24.298 119.912 23.4679C119.762 22.5479 119.612 21.6179 119.472 20.6879C119.392 20.2079 119.322 19.7379 119.242 19.2579V19.2279C118.932 17.1979 118.622 15.1579 118.302 13.1279C118.732 13.0079 119.172 12.8779 119.602 12.7479V12.7479ZM118.942 76.7679C119.172 77.4079 119.432 78.0379 119.682 78.6479C119.882 79.1279 120.082 79.5979 120.262 80.0679C120.312 80.1979 120.362 80.3279 120.412 80.4579C120.572 80.8579 120.712 81.2579 120.832 81.6479V81.6579C120.892 81.8279 120.942 81.9979 120.992 82.1779C121.069 82.4207 121.133 82.6678 121.182 82.9179C121.242 83.1879 121.282 83.4579 121.322 83.7279C121.512 85.3079 120.962 87.6679 119.842 88.5979C115.742 91.9879 111.262 94.9179 106.922 98.0179C106.522 97.888 106.132 97.7479 105.732 97.6079C106.072 93.8879 106.342 90.1479 106.822 86.4479C107.087 85.5713 107.654 84.8168 108.422 84.3179C111.672 81.8979 115.002 79.5779 118.772 76.8879C118.832 76.8479 118.882 76.8079 118.942 76.7679V76.7679ZM79.6418 33.8479C81.0919 34.0279 82.6017 34.2079 84.1817 34.3979C84.4317 34.4379 84.6818 34.4679 84.942 34.4979C85.0318 34.5079 85.1119 34.5179 85.2018 34.5279C85.1319 34.6479 85.0621 34.7779 84.9918 34.8979V34.9079C84.6319 35.5279 84.2916 36.1379 83.9518 36.7279L83.942 36.7379C83.902 36.8179 83.8619 36.8879 83.8219 36.9579C81.3819 41.2779 79.2619 45.0379 76.9117 49.1779C73.8219 49.1779 70.1617 49.2579 66.5016 49.1479C64.5817 49.0979 63.5719 48.1379 64.0621 45.9679C65.0118 41.7579 65.8317 37.5279 66.922 32.2879C69.3517 32.5879 71.882 32.8979 74.5816 33.2279C75.6119 33.3579 76.652 33.4879 77.732 33.6179C78.3517 33.6879 78.9919 33.7679 79.6418 33.8479V33.8479ZM86.1817 37.1479C86.56 36.7625 87.0305 36.4803 87.5486 36.328C88.0667 36.1758 88.6151 36.1585 89.1418 36.2779C90.0016 36.6779 90.8518 37.0879 91.7018 37.5079C92.0016 37.6479 92.3019 37.7979 92.5919 37.9479C92.7819 38.0379 92.9718 38.1279 93.1618 38.2379C93.7321 38.4979 94.2721 38.7979 94.8517 39.0879C95.3717 39.3579 95.882 39.6279 96.3917 39.9079C96.5016 39.9679 96.6119 40.0279 96.7218 40.0879C98.1818 40.8479 99.6319 41.6479 101.072 42.4679C101.282 42.5908 101.485 42.7243 101.682 42.8679C101.945 43.0454 102.187 43.2535 102.402 43.4879C102.506 43.5916 102.6 43.7055 102.682 43.8279C102.731 43.8777 102.771 43.9351 102.802 43.9979C102.81 44.0016 102.817 44.0072 102.822 44.0142C102.827 44.0212 102.83 44.0293 102.832 44.0379C102.861 44.0742 102.885 44.1146 102.902 44.1579C102.979 44.2738 103.043 44.3979 103.092 44.5279C103.102 44.5379 103.102 44.5379 103.092 44.5479C103.112 44.5479 103.112 44.5579 103.102 44.5679C103.13 44.6105 103.151 44.6579 103.162 44.7079C103.182 44.7679 103.192 44.8179 103.212 44.8779C103.241 44.9622 103.261 45.0493 103.272 45.1379C103.287 45.2205 103.297 45.304 103.302 45.3879C103.33 45.5901 103.333 45.7949 103.312 45.9979C103.299 46.1632 103.272 46.3271 103.232 46.4879C103.212 46.5679 103.192 46.6479 103.172 46.7379C103.154 46.8207 103.128 46.9012 103.092 46.9779C103.071 47.061 103.04 47.1415 103.002 47.2179C102.962 47.3279 102.912 47.4379 102.862 47.5479C102.782 47.7179 102.692 47.8779 102.592 48.0579C102.492 48.2279 102.382 48.3979 102.262 48.5779C98.212 54.5079 97.5318 54.7279 90.6119 52.6179C87.4518 51.6579 84.2218 50.9279 80.2619 49.8879C82.3219 45.3579 84.1017 41.1779 86.1818 37.1479L86.1817 37.1479ZM102.612 51.8779C103.452 50.6479 104.492 49.5579 105.442 48.4079H106.912C108.512 51.2079 110.162 53.9779 111.702 56.8079C112.272 57.8479 112.832 58.9079 113.362 59.9779C113.468 60.234 113.499 60.5148 113.452 60.7879C113.451 60.8556 113.441 60.9229 113.422 60.9879C113.395 61.14 113.358 61.2903 113.312 61.4379C113.272 61.5579 113.232 61.6879 113.182 61.8079C113.132 61.9379 113.072 62.0679 113.012 62.1879C112.952 62.3079 112.882 62.4279 112.812 62.5379C112.775 62.6138 112.728 62.6844 112.672 62.7479C112.571 62.8998 112.45 63.0377 112.312 63.1579C109.712 65.3879 106.862 67.3179 103.222 70.0279C101.862 65.2479 100.302 61.1779 99.7018 56.9779C99.4821 55.4379 101.492 53.5279 102.612 51.8779L102.612 51.8779ZM115.522 63.7779C116.517 66.322 117.358 68.9233 118.042 71.5679C118.114 72.1953 118.044 72.8309 117.838 73.4279C117.632 74.025 117.295 74.5683 116.852 75.0179C113.632 77.7279 110.172 80.1679 106.682 82.7979C104.592 69.5379 104.092 71.0479 115.522 63.7779L115.522 63.7779ZM99.0016 6.92791C104.262 7.57791 109.332 8.10791 114.352 8.93791C115.052 9.05791 115.852 10.6179 115.992 11.5979C116.902 17.8679 117.779 24.1446 118.622 30.4279V30.4579C119.112 34.078 119.602 37.6879 120.082 41.3179C120.372 43.4879 120.572 45.6679 120.722 47.8479C120.732 47.9879 120.742 48.1379 120.742 48.2779V48.2979C120.762 48.6479 120.772 48.9979 120.772 49.3379C120.772 49.7479 120.762 50.1479 120.732 50.5379C120.722 50.7579 120.702 50.9779 120.682 51.1879C120.662 51.3579 120.642 51.5379 120.622 51.7079C120.582 52.0776 120.522 52.4448 120.442 52.8079C120.352 53.2379 120.252 53.6579 120.122 54.0679C119.966 54.5752 119.772 55.07 119.542 55.5479C119.462 55.7379 119.362 55.9179 119.262 56.1079C119.152 56.3179 119.022 56.5279 118.892 56.7279C118.801 56.8807 118.701 57.0276 118.592 57.1679C118.43 57.4052 118.253 57.6323 118.062 57.8479C117.892 58.0479 117.712 58.2379 117.522 58.4279C117.362 58.5779 117.202 58.7279 117.032 58.8679C116.822 58.5379 116.612 58.1979 116.402 57.8679C115.482 56.4179 114.562 54.9879 113.662 53.5779C112.722 52.1179 111.792 50.6579 110.902 49.1979C110.522 48.5879 110.152 47.9679 109.792 47.3479C109.282 46.5079 108.792 45.6579 108.312 44.7979C106.716 41.8946 105.477 38.8089 104.622 35.6079C102.582 27.9679 100.792 20.2479 99.052 12.5279C98.7018 11.0079 99.0016 9.3479 99.0016 6.92792L99.0016 6.92791ZM67.2721 4.20791C67.3095 4.14075 67.353 4.07715 67.402 4.01791C67.4493 3.96538 67.4994 3.91531 67.5519 3.86791C67.9095 3.57836 68.3259 3.37019 68.7721 3.25791C68.8717 3.22791 68.9718 3.19791 69.0816 3.16791C69.4012 3.08642 69.7251 3.02299 70.0519 2.97791C70.2516 2.94791 70.4518 2.91791 70.6617 2.89791C71.9323 2.77772 73.2114 2.77772 74.482 2.89791C75.9918 3.04791 77.5016 3.20791 79.0016 3.39791C79.7618 3.48791 80.5118 3.58791 81.2618 3.68791C85.0221 4.18791 88.7721 4.78791 92.5118 5.42791C93.1119 5.52791 93.7218 5.63791 94.3218 5.73791C94.876 5.97081 95.3656 6.33439 95.7487 6.7976C96.1319 7.26081 96.3972 7.80989 96.522 8.39791C96.6417 9.50791 96.7618 10.6079 96.8917 11.7179C96.9517 12.2279 97.0118 12.7279 97.0718 13.2379C97.0718 13.2579 97.0816 13.2779 97.0816 13.2979C97.08 13.3217 97.0834 13.3456 97.0918 13.3679C97.2217 14.4479 97.3716 15.5279 97.5318 16.5979C97.7017 17.7079 97.8917 18.8179 98.1016 19.9279C98.1719 20.3179 98.2515 20.7179 98.3316 21.1079C98.3403 21.1689 98.3536 21.229 98.3716 21.2879C98.4517 21.6379 98.522 21.9979 98.6016 22.3479C98.6319 22.5279 98.6817 22.6979 98.7217 22.8779C98.8018 23.2279 98.8917 23.5579 98.9717 23.8979C99.0816 24.3379 99.192 24.7679 99.3121 25.2079C99.5518 26.0679 99.8121 26.9379 100.092 27.7979C100.172 28.0179 100.242 28.2279 100.312 28.4379C100.382 28.6479 100.462 28.8679 100.542 29.0779C100.662 29.4279 100.792 29.7779 100.932 30.1179V30.1279C101.102 30.5579 101.272 30.9779 101.452 31.3979C101.842 32.3179 102.262 33.2279 102.722 34.1279C103.552 35.7479 103.372 37.8779 103.742 40.3279C102.852 39.8779 101.982 39.4379 101.132 39.0079C99.4316 38.1379 97.7817 37.3079 96.1816 36.4879C93.0015 34.8679 89.9819 33.3279 86.9619 31.7779C86.4993 31.4516 86.1023 31.0411 85.7915 30.5679C85.7515 30.5179 85.7017 30.4579 85.6616 30.4079C85.2319 29.9079 84.812 29.3979 84.3818 28.8979C81.8618 25.8979 79.3218 22.8979 76.812 19.8979C75.2417 18.0379 73.6816 16.1679 72.1118 14.2979C72.1016 14.2879 72.1016 14.2779 72.0918 14.2679C72.0816 14.2579 72.0718 14.2579 72.0718 14.2479C71.5318 13.5979 70.9917 12.9579 70.4517 12.3079C68.4718 9.92792 65.6017 7.2179 67.2721 4.20789L67.2721 4.20791ZM40.9117 8.74791C40.9117 8.72791 40.9117 8.71791 40.922 8.70791C40.9223 8.66293 40.9324 8.61857 40.9518 8.57796C40.9944 8.42154 41.0548 8.27055 41.1319 8.12796C41.1648 8.06574 41.2015 8.00562 41.2418 7.94796C41.2916 7.88796 41.3419 7.82796 41.402 7.75796C41.4602 7.68978 41.5237 7.62625 41.5919 7.56796C41.6523 7.49759 41.7231 7.43689 41.8019 7.38796C42.3569 6.99692 42.9813 6.71523 43.6417 6.55796C43.8122 6.50796 43.9918 6.46796 44.172 6.42796C44.9821 6.24796 45.7916 6.08796 46.6017 5.92796C47.0416 5.83796 47.4718 5.75796 47.902 5.67796C48.5319 5.55796 49.152 5.43796 49.7819 5.32796C50.4118 5.21796 51.0416 5.09796 51.672 4.98796C52.8317 4.78796 54.0119 4.59796 55.192 4.39796C58.232 3.89796 61.3419 3.40796 64.5519 2.86796C64.6017 2.85796 64.6617 2.84796 64.712 2.83796C65.5719 15.088 76.3619 20.208 81.5319 29.488C80.8219 29.438 80.1119 29.388 79.402 29.338C78.4918 29.278 77.5817 29.218 76.6818 29.158C75.7018 29.088 74.7321 29.018 73.7619 28.938C73.1818 28.898 72.6119 28.848 72.0416 28.788C71.132 28.698 70.2218 28.608 69.3316 28.488C68.942 28.428 68.5518 28.378 68.172 28.318C67.2418 28.178 66.3316 28.018 65.422 27.828C65.132 27.7679 64.8419 27.7079 64.5621 27.638C64.2721 27.578 63.982 27.508 63.7018 27.428C63.3619 27.338 63.0221 27.248 62.6817 27.148L62.4717 27.088C62.3018 27.038 62.1319 26.988 61.962 26.928C61.3819 26.758 60.8121 26.558 60.2515 26.338C60.0415 26.258 59.8316 26.178 59.6217 26.088C59.3619 25.988 59.1119 25.878 58.8619 25.768C58.732 25.718 58.6119 25.658 58.4918 25.598C58.3717 25.538 58.2418 25.478 58.1119 25.418C57.9847 25.3661 57.8611 25.306 57.7418 25.238C57.522 25.128 57.3018 25.018 57.0816 24.898C56.2546 24.4535 55.4534 23.9627 54.6817 23.428C54.4019 23.238 54.1217 23.038 53.8516 22.828C53.6817 22.698 53.5118 22.568 53.3419 22.428C53.1216 22.258 52.9117 22.088 52.7017 21.898C52.5621 21.788 52.4221 21.668 52.2818 21.538C52.1417 21.418 52.0118 21.298 51.8717 21.158C51.4219 20.748 50.9717 20.298 50.5318 19.828C50.2218 19.498 49.9117 19.178 49.5816 18.858C48.3716 17.678 47.0718 16.578 45.7916 15.448C45.3619 15.078 44.942 14.698 44.5318 14.308C44.2721 14.068 44.0221 13.818 43.7721 13.578C43.462 13.2679 43.152 12.9579 42.8619 12.638C42.672 12.448 42.4918 12.248 42.3219 12.048C41.5154 11.2565 41.0068 10.211 40.882 9.08796C40.8815 8.97394 40.8915 8.86012 40.9118 8.74792L40.9117 8.74791ZM37.0919 42.9879C37.3219 40.9279 37.5621 38.8779 37.8419 36.8279C38.5416 31.6979 39.0919 31.2079 44.422 31.0679C46.8317 31.0079 49.2418 31.0579 51.6617 31.0579V31.2279C52.1319 31.2479 52.5919 31.2779 53.0621 31.2979H53.0719C54.482 31.3779 55.8917 31.4579 57.3019 31.5179C57.7018 31.5379 58.0919 31.5479 58.4821 31.5579C58.9621 31.5779 59.4518 31.5879 59.9318 31.5979C60.1017 31.5979 60.2618 31.6079 60.4118 31.6179C60.5663 31.6274 60.72 31.6474 60.8718 31.6779C61.014 31.6962 61.1545 31.7263 61.2917 31.7679C61.3195 31.7685 61.3469 31.7754 61.3718 31.7879C61.4683 31.8072 61.5623 31.8374 61.652 31.8779C61.6618 31.8779 61.6618 31.8779 61.672 31.8879C61.9203 31.9782 62.153 32.1063 62.362 32.2678C62.4221 32.3062 62.4761 32.3534 62.5221 32.4078C62.5645 32.4418 62.6044 32.4785 62.6418 32.5178C62.8127 32.7014 62.9483 32.915 63.0417 33.1479C63.0622 33.1879 63.0719 33.2378 63.092 33.2778C63.1337 33.3774 63.1639 33.4814 63.1818 33.5878C63.2205 33.7078 63.244 33.8321 63.2516 33.9578V33.9678C63.2726 34.127 63.2827 34.2873 63.2819 34.4478C63.2848 34.6081 63.2781 34.7684 63.2619 34.9278C62.9518 38.2378 63.0622 41.7779 61.822 44.7279C61.112 46.4179 58.1017 48.0978 56.1218 48.1078C50.6142 47.9661 45.1188 47.5154 39.6618 46.7579C37.5319 46.5279 36.8717 44.9579 37.092 42.9879H37.0919ZM36.172 9.26791C36.2423 9.23374 36.3159 9.20693 36.3917 9.18791C36.4962 9.15918 36.6037 9.14241 36.712 9.13791C36.8177 9.12098 36.9248 9.11428 37.0318 9.11791C37.1723 9.11795 37.3127 9.12798 37.4518 9.14791C37.5089 9.14902 37.5658 9.15572 37.6217 9.16791C37.6817 9.17791 37.7418 9.18791 37.7916 9.19791C37.8517 9.20786 37.902 9.22791 37.9518 9.23791C38.0619 9.26272 38.1669 9.30672 38.2618 9.36791C38.3481 9.40582 38.4212 9.46846 38.4718 9.54791C38.6418 9.82791 38.8019 10.1079 38.9821 10.3779C39.132 10.6179 39.2819 10.8679 39.4421 11.1079C40.1818 12.2579 40.9719 13.3679 41.822 14.4379C41.9519 14.6179 42.092 14.7879 42.2419 14.9579C42.3718 15.138 42.5222 15.3079 42.6721 15.4879C43.0622 15.9479 43.4518 16.3979 43.862 16.8479C44.0622 17.0679 44.2722 17.2879 44.4719 17.5079C44.6819 17.7279 44.8918 17.9379 45.1018 18.1579C45.342 18.4079 45.5817 18.6479 45.8317 18.8779L46.4021 19.4179C46.592 19.5979 46.7819 19.7779 46.9719 19.9379C47.1721 20.1079 47.362 20.2779 47.5622 20.4479C47.6237 20.5133 47.6905 20.5735 47.7619 20.6279C47.822 20.6879 47.8918 20.7479 47.9519 20.7979C48.2219 21.0379 48.5119 21.2679 48.7917 21.4879C49.1418 21.7779 49.5017 22.0579 49.862 22.3279C49.9704 22.4208 50.0838 22.5076 50.2019 22.5879C50.5017 22.8179 50.8122 23.0479 51.132 23.2679C51.5417 23.5579 51.9519 23.8479 52.3718 24.1279C53.632 24.9779 54.9621 25.7779 56.3518 26.5479C55.8718 26.7079 55.3918 26.8479 54.9118 26.9879C54.7322 27.0479 54.552 27.0979 54.3718 27.1479C53.9422 27.2779 53.512 27.3879 53.0818 27.4979C52.9119 27.5479 52.742 27.5879 52.5721 27.6279C52.1121 27.7479 51.6522 27.8479 51.1922 27.9479C50.6321 28.0779 50.0721 28.1879 49.512 28.2879C49.492 28.2879 49.472 28.2879 49.4622 28.2979C48.9119 28.3879 48.3821 28.4779 47.8421 28.5479C46.742 28.7079 45.6419 28.8079 44.5623 28.8579C44.0223 28.8879 43.492 28.8979 42.952 28.8979C42.6121 28.8979 42.262 28.8879 41.912 28.8779C41.7323 28.8779 41.5521 28.8679 41.3822 28.8579C40.6922 28.8279 40.0018 28.7679 39.3221 28.6879C38.8719 28.6279 38.4222 28.5679 37.972 28.4979C35.4849 28.0833 33.0638 27.3401 30.7723 26.2879C30.3919 26.1179 30.0121 25.9279 29.642 25.7379C28.8421 25.3379 28.0624 24.8879 27.2723 24.3979C26.5018 23.9179 25.742 23.3879 24.972 22.8279C24.5921 22.5479 24.2123 22.2479 23.8319 21.9479C26.3917 16.4465 30.7422 11.9762 36.172 9.26788L36.172 9.26791ZM14.8917 31.1279C14.922 31.0079 14.9518 30.9079 14.9718 30.7979C15.0318 30.5479 15.1017 30.2979 15.1818 30.0579C15.2721 29.7779 15.3722 29.5079 15.4821 29.2479C15.5817 29.0079 15.6921 28.7779 15.8019 28.5579C15.9462 28.2789 16.1064 28.0084 16.2819 27.7479C16.3325 27.6551 16.3929 27.5679 16.4621 27.4879C16.5417 27.3679 16.6218 27.2579 16.7121 27.1379C17.6759 25.951 18.8785 24.98 20.2419 24.2879C20.2619 24.2779 20.2917 24.2579 20.3122 24.2479C21.1618 23.7879 22.7321 24.1679 23.7516 24.6479C26.2619 25.8279 28.6418 27.2879 31.0817 28.6379C30.9919 28.9179 30.8918 29.1879 30.8019 29.4679C29.6618 29.6179 28.5221 29.7779 27.3717 29.9279C25.1617 30.2279 22.9421 30.5279 20.6818 30.8279C18.7516 31.0879 16.7917 31.3545 14.8019 31.6279C14.8317 31.4579 14.862 31.2879 14.8917 31.1279L14.8917 31.1279ZM15.0816 35.1779C16.761 34.1887 18.5977 33.4952 20.5118 33.1279C21.482 33.0079 22.4518 32.8979 23.422 32.8079H23.4317C24.1319 32.7379 24.8419 32.6779 25.5519 32.6079C27.672 32.4279 29.8019 32.2879 31.922 32.1379H31.982C32.9318 32.0679 33.8816 31.9979 34.8316 31.9279C35.0221 32.3779 35.192 32.8279 35.3316 33.2579C35.402 33.4379 35.462 33.6179 35.5118 33.7879C35.692 34.3479 35.8421 34.8979 35.962 35.4379C36.2644 36.7518 36.3822 38.1015 36.3121 39.4479C36.2916 39.6979 36.2721 39.9479 36.2418 40.1979C36.212 40.4479 36.172 40.6879 36.1217 40.9279C36.1017 41.0479 36.0817 41.1579 36.0519 41.2779C36.0221 41.4079 35.9918 41.5279 35.962 41.638C35.8903 41.9257 35.8035 42.2094 35.7018 42.488C35.6319 42.658 35.5621 42.818 35.5016 42.978C35.496 42.9832 35.4925 42.9903 35.4918 42.998C35.3619 43.288 35.2218 43.578 35.0719 43.858C35.0719 43.868 35.0621 43.878 35.0519 43.888C34.9718 44.038 34.882 44.178 34.7916 44.318C34.6813 44.5096 34.5578 44.6934 34.422 44.868C34.2646 45.0975 34.0942 45.3178 33.9118 45.528C33.7692 45.7074 33.6156 45.8777 33.4518 46.038C33.2618 46.228 33.0719 46.418 32.8717 46.588C32.672 46.768 32.462 46.948 32.2418 47.118C32.0318 47.278 31.8121 47.438 31.5919 47.588C31.5125 47.6502 31.429 47.707 31.3419 47.758C31.1417 47.888 30.9317 48.018 30.7218 48.138C30.5118 48.258 30.2916 48.378 30.0621 48.498C29.529 48.7707 28.9814 49.0144 28.422 49.228C28.0816 49.358 27.732 49.478 27.382 49.598C27.2418 49.648 27.112 49.678 26.962 49.728C26.6217 49.828 26.2721 49.928 25.9117 50.018C25.8019 50.048 25.692 50.088 25.5817 50.118C18.152 51.928 15.7018 50.738 12.3019 43.628C10.6818 40.2279 11.6818 36.9579 15.0817 35.1779L15.0816 35.1779ZM5.27208 63.7079C5.76183 57.2679 7.50157 50.9279 8.70177 44.5479C9.07188 44.5479 9.43177 44.5379 9.79161 44.5279C12.1757 47.1523 14.4253 49.8959 16.5318 52.7479C17.3941 54.208 17.6896 55.9342 17.3619 57.5979C16.1519 63.1779 14.5719 68.6679 12.9718 74.7979C8.33169 71.7479 4.90197 68.4379 5.27212 63.7079L5.27208 63.7079ZM11.4117 91.6679C10.6617 90.8279 9.55186 90.0979 9.22179 89.1079C7.66173 84.3379 6.29161 79.4979 4.91173 74.6679C4.81532 73.9953 4.80531 73.3131 4.88194 72.6379C13.232 76.1679 15.5719 80.5479 13.5621 88.9079C13.3122 89.9379 12.152 90.7579 11.4118 91.6679H11.4117ZM120.872 102.358C120.015 104.214 119.465 106.196 119.242 108.228C118.282 114.048 114.822 117.738 110.702 120.838C110.662 120.86 110.625 120.887 110.592 120.918C110.572 120.938 110.542 120.948 110.522 120.968C110.562 121.118 110.612 121.278 110.662 121.428C110.122 121.288 108.492 123.608 107.952 123.468C107.932 123.298 107.902 123.078 107.872 122.838C107.052 123.388 106.222 123.928 105.392 124.478C103.132 125.843 100.76 127.014 98.3019 127.978C94.4117 129.668 90.3517 131.008 86.5719 132.928C81.962 135.268 77.3317 135.808 72.5919 133.898C70.9651 133.181 69.1987 132.837 67.4218 132.891C65.6449 132.944 63.9025 133.394 62.3219 134.208C56.5519 136.938 50.8121 135.888 45.3819 133.048C42.7721 131.688 40.2818 131.718 37.4117 131.968C32.0597 132.52 26.6655 132.526 21.3121 131.988C15.942 131.328 13.6017 127.338 14.3819 121.908C14.6986 119.508 15.1629 117.13 15.7721 114.788C16.2976 113.263 16.4716 111.639 16.2811 110.037C16.0906 108.435 15.5405 106.897 14.672 105.538C12.2218 101.708 13.462 97.6179 14.902 93.8779C16.8636 88.5725 17.4015 82.8458 16.462 77.2679C16.0416 74.2279 16.8717 70.9379 17.5416 67.8479C18.2772 64.7245 19.2125 61.6515 20.3419 58.6479C20.7819 57.3879 21.3419 55.8379 22.3419 55.1679C26.5719 52.3579 30.9821 49.6779 36.3019 49.7479C42.5221 49.8279 48.7516 50.1579 54.9718 50.4179C57.152 50.5079 58.5417 51.1079 59.4919 53.6379C60.5417 56.4179 62.7721 58.8479 64.862 61.0879C65.8517 62.1579 67.692 62.448 69.322 62.7479C67.092 58.8079 60.9318 57.9879 61.7321 51.4979C67.7121 53.7779 74.0221 50.3279 80.112 54.0879C83.402 56.1079 88.092 55.9779 92.1921 56.5379C95.112 56.9379 96.8317 58.2479 97.2917 61.1979C97.3775 62.0028 97.6261 62.7819 98.0222 63.4879C101.872 69.4579 101.572 76.4479 102.852 83.0379C103.089 84.8664 103.022 86.7216 102.652 88.5279C101.962 93.0879 101.972 97.3979 104.922 101.378C105.682 102.408 105.402 104.218 105.592 105.678C105.612 105.848 105.642 106.058 105.672 106.298C105.692 106.478 105.712 106.668 105.742 106.878C105.772 107.098 105.802 107.318 105.832 107.558C105.831 107.572 105.835 107.586 105.842 107.598C105.862 107.738 105.872 107.868 105.892 108.018C105.932 108.298 105.962 108.588 106.002 108.888C106.582 113.198 107.512 120.058 107.872 122.818V122.838C107.922 122.798 107.972 122.768 108.022 122.728L108.082 122.698C108.282 122.558 108.472 122.428 108.672 122.298C108.882 122.148 109.112 121.988 109.332 121.828C109.409 121.78 109.483 121.727 109.552 121.668C109.882 121.438 110.202 121.208 110.522 120.968L110.512 120.958C109.46 117.634 109 114.151 109.152 110.668C109.162 110.508 109.172 110.338 109.182 110.178C109.632 103.328 112.772 97.498 118.332 94.878C118.929 94.601 119.544 94.3638 120.172 94.168C120.402 94.098 120.642 94.028 120.882 93.968C121.65 95.233 122.055 96.6847 122.053 98.1644C122.051 99.6441 121.642 101.095 120.872 102.358V102.358ZM129.792 61.7579C129.792 62.1279 129.792 62.4879 129.782 62.8579C129.782 63.2079 129.772 63.5479 129.752 63.8979C129.742 64.2579 129.722 64.6179 129.702 64.9879C129.682 65.3479 129.662 65.7079 129.632 66.0579C129.582 66.7779 129.512 67.4879 129.422 68.1979C129.392 68.4479 129.362 68.7079 129.322 68.9579C129.282 69.2879 129.232 69.6179 129.172 69.9479C129.102 70.3679 129.032 70.7879 128.942 71.2079C128.862 71.6379 128.762 72.0679 128.662 72.4979C128.572 72.8779 128.472 73.2479 128.372 73.6179C128.332 73.7479 128.302 73.8779 128.262 74.0079C128.162 74.3579 128.052 74.7079 127.942 75.0579C127.812 75.4779 127.662 75.8979 127.502 76.3079V76.3179C127.392 76.5979 127.292 76.8879 127.172 77.1579C127.164 77.1979 127.147 77.2355 127.122 77.2679C127.084 77.3769 127.041 77.4837 126.992 77.5879C126.543 78.6683 126.021 79.7173 125.432 80.7279C125.332 80.9079 125.232 81.0879 125.122 81.2579C125.042 81.4023 124.956 81.5425 124.862 81.6779C124.742 81.9079 124.582 82.1279 124.432 82.3679C124.06 81.7262 123.729 81.0615 123.442 80.3779C123.352 80.1879 123.272 79.9879 123.202 79.7979C123.112 79.5679 123.032 79.3279 122.952 79.0979C122.932 79.0379 122.912 78.9879 122.892 78.9379C122.658 78.2071 122.471 77.4623 122.332 76.7079C122.292 76.4579 122.252 76.2179 122.212 75.9779C122.182 75.7379 122.152 75.4979 122.122 75.2579C122.102 75.0679 122.082 74.8779 122.072 74.6779C122.022 73.9123 122.012 73.1446 122.042 72.3779C122.062 71.9679 122.082 71.5579 122.132 71.1479C122.152 70.9079 122.182 70.6579 122.212 70.4179C122.262 69.9679 122.332 69.5179 122.412 69.0679C122.452 68.8379 122.492 68.6079 122.542 68.3779C122.602 68.0879 122.662 67.7879 122.732 67.4879C122.772 67.2879 122.822 67.0879 122.872 66.8879C122.932 66.6579 122.982 66.4279 123.052 66.1979C123.082 66.0488 123.122 65.9018 123.172 65.7579C123.232 65.5379 123.292 65.3079 123.362 65.0879C123.442 64.7979 123.532 64.4979 123.632 64.198C123.802 63.688 123.972 63.168 124.152 62.648C124.174 62.573 124.201 62.4996 124.232 62.428C124.412 61.908 124.602 61.388 124.792 60.868C125.012 60.278 125.242 59.688 125.482 59.098C126.522 56.478 127.752 53.928 129.132 50.818C129.192 51.418 129.252 52.008 129.302 52.608C129.352 53.078 129.392 53.538 129.422 54.008C129.472 54.488 129.512 54.978 129.542 55.458C129.562 55.758 129.582 56.058 129.602 56.358C129.632 56.778 129.652 57.188 129.672 57.608C129.692 57.918 129.712 58.218 129.722 58.518C129.742 59.078 129.762 59.618 129.772 60.158C129.782 60.6979 129.792 61.2279 129.792 61.7579V61.7579Z" fill="black"/>
<path d="M120.882 93.968C120.642 94.028 120.402 94.098 120.172 94.168C119.544 94.3638 118.929 94.601 118.332 94.878C112.642 97.488 109.522 103.278 109.182 110.178C109.172 110.338 109.162 110.508 109.152 110.668C109.082 114.122 109.606 117.562 110.702 120.838C114.822 117.738 118.282 114.048 119.242 108.228C119.465 106.196 120.015 104.214 120.872 102.358C121.642 101.095 122.051 99.6441 122.053 98.1644C122.055 96.6847 121.65 95.233 120.882 93.968V93.968ZM110.512 120.958C110.272 121.128 109.922 121.388 109.552 121.668C109.882 121.438 110.202 121.208 110.522 120.968C110.542 120.948 110.572 120.938 110.592 120.918C110.563 120.927 110.537 120.941 110.512 120.958H110.512ZM107.872 122.818C107.84 122.837 107.806 122.853 107.772 122.868C107.512 120.758 106.582 113.448 106.002 108.888C105.962 108.588 105.932 108.298 105.892 108.018C105.872 107.868 105.862 107.738 105.842 107.598C105.835 107.586 105.831 107.572 105.832 107.558C105.792 107.318 105.772 107.088 105.742 106.878C105.712 106.668 105.692 106.478 105.672 106.298C105.642 106.058 105.612 105.848 105.592 105.678C105.402 104.218 105.682 102.408 104.922 101.378C101.972 97.3979 101.962 93.0879 102.652 88.5279C103.022 86.7216 103.089 84.8664 102.852 83.0379C101.572 76.4479 101.872 69.4579 98.0222 63.4879C97.6261 62.7819 97.3776 62.0029 97.2918 61.1979C96.8318 58.2479 95.1121 56.9379 92.1921 56.5379C88.092 55.9779 83.4021 56.1079 80.1121 54.0879C74.0222 50.3279 67.7122 53.7779 61.7322 51.4979C60.9319 57.9879 67.0921 58.8079 69.322 62.7479C67.6922 62.4479 65.8518 62.1579 64.862 61.0879C62.7722 58.8479 60.5417 56.4179 59.4919 53.6379C58.5417 51.1079 57.1521 50.5079 54.9719 50.4179C48.7517 50.1579 42.5222 49.8279 36.302 49.7479C30.9822 49.6779 26.572 52.3579 22.342 55.1679C21.342 55.8379 20.7819 57.3879 20.342 58.6479C19.2126 61.6515 18.2773 64.7245 17.5417 67.8479C16.8718 70.9379 16.0417 74.2279 16.4621 77.2679C17.4016 82.8459 16.8637 88.5726 14.9021 93.878C13.4621 97.618 12.2219 101.708 14.6721 105.538C15.5406 106.897 16.0907 108.435 16.2812 110.037C16.4717 111.639 16.2977 113.263 15.7722 114.788C15.163 117.131 14.6987 119.508 14.382 121.908C13.6018 127.338 15.9421 131.328 21.3122 131.988C26.6656 132.526 32.0598 132.52 37.4118 131.968C40.2819 131.718 42.7722 131.688 45.382 133.048C50.8122 135.888 56.552 136.938 62.322 134.208C63.9026 133.395 65.645 132.945 67.4219 132.891C69.1988 132.837 70.9652 133.181 72.592 133.898C77.3317 135.808 81.9621 135.268 86.572 132.928C90.3518 131.008 94.4118 129.668 98.302 127.978C100.76 127.014 103.132 125.843 105.392 124.478C106.222 123.928 107.052 123.388 107.872 122.838C107.922 122.798 107.972 122.768 108.022 122.728C107.974 122.761 107.924 122.791 107.872 122.818L107.872 122.818ZM87.262 64.398C87.4559 64.2893 87.6563 64.1924 87.8621 64.108C87.262 66.168 86.112 68.458 85.4719 70.738V70.748C85.4621 70.758 85.4621 70.758 85.4719 70.768C85.4621 70.778 85.4621 70.778 85.4719 70.788C85.4621 70.798 85.4621 70.798 85.4719 70.808C85.4682 70.812 85.4654 70.8167 85.4637 70.8219C85.462 70.8271 85.4615 70.8326 85.4622 70.838C85.0726 72.0713 84.9331 73.37 85.052 74.658C85.6721 79.508 90.8621 79.108 95.4021 79.598C90.0417 82.788 85.822 82.068 83.7219 78.198C81.4119 73.938 83.3518 66.608 87.262 64.398L87.262 64.398ZM33.6018 58.988C36.532 60.288 36.6819 62.908 36.2517 66.638C35.5714 65.5844 35.0051 64.4614 34.5623 63.288C33.8123 59.618 31.842 60.238 29.6721 61.848C27.7722 63.258 25.9919 64.828 23.9519 66.498C23.9319 62.488 30.4719 57.588 33.6018 58.988L33.6018 58.988ZM21.3621 99.138C19.8981 99.9231 18.3128 100.457 16.6721 100.718C18.6419 98.878 20.9421 97.368 23.0222 95.738C23.0222 95.7367 23.0224 95.7354 23.0229 95.7342C23.0234 95.733 23.0241 95.7319 23.025 95.731C23.0259 95.73 23.027 95.7293 23.0282 95.7288C23.0294 95.7283 23.0307 95.728 23.032 95.728C24.0978 94.9004 25.0883 93.9802 25.992 92.978C26.0018 92.968 26.0017 92.968 26.0017 92.958C27.0149 91.8475 27.7917 90.5427 28.2851 89.1228C28.7785 87.7029 28.9781 86.1975 28.8719 84.698C30.782 88.438 28.5721 93.498 24.5623 96.948C23.5837 97.7992 22.5098 98.534 21.3621 99.138V99.138ZM38.0818 127.048C37.3043 127.766 36.3532 128.269 35.322 128.508C36.5222 127.618 37.7122 126.738 38.9421 125.818C35.072 118.918 29.282 122.698 24.9319 121.278C24.9221 120.938 24.9119 120.608 24.9021 120.268C26.8134 119.932 28.7515 119.771 30.6921 119.788C32.857 120.046 34.9806 120.576 37.0119 121.368C40.6619 122.698 40.9421 124.448 38.0818 127.048L38.0818 127.048ZM70.5418 116.138C68.242 116.358 65.9422 116.548 63.6619 116.838C58.8421 117.438 57.5921 118.858 57.3621 123.738C57.3021 124.858 57.1121 125.978 56.9422 127.478C53.5418 123.408 56.452 120.058 57.7122 116.088C55.4319 116.088 53.532 116.048 51.6321 116.088C49.4705 116.181 47.312 115.842 45.2826 115.092C43.2532 114.342 41.3936 113.195 39.8123 111.718C37.8471 109.832 36.4183 107.458 35.6722 104.838V104.828C35.3221 103.619 35.1074 102.375 35.032 101.118C34.8621 98.498 34.6819 95.868 34.5418 93.248C34.3919 90.428 34.2918 87.598 34.302 84.778V84.178C34.3518 74.618 39.9119 68.428 49.3621 66.918C56.032 65.848 62.6722 65.618 69.222 67.678C69.952 67.908 70.6521 68.168 71.3123 68.448C73.1785 69.2263 74.8995 70.315 76.4021 71.668C79.303 74.3772 81.1698 78.012 81.6819 81.948C81.7918 82.618 81.8718 83.308 81.9221 84.018C82.0418 85.618 82.1217 87.218 82.1619 88.818C82.262 91.488 82.2723 94.168 82.2322 96.838C82.2122 98.428 82.1721 99.998 82.1321 101.578V101.588C82.1018 102.528 82.0721 103.458 82.0418 104.388C81.8758 107.408 80.6179 110.265 78.5023 112.426C76.3867 114.588 73.5576 115.907 70.5418 116.138H70.5418ZM88.0018 121.768C85.5121 125.188 78.8124 127.358 75.162 125.888C78.432 124.728 81.872 123.948 84.8319 122.318C88.452 120.338 88.0018 116.668 86.6322 112.418C89.8123 116.068 90.0417 118.958 88.0017 121.768H88.0018ZM93.972 109.388C95.742 99.788 94.3421 96.788 87.6722 95.198C88.6522 94.888 89.742 94.128 90.5921 94.338C94.0623 95.158 95.472 98.068 96.2723 101.098C97.032 103.968 97.552 107.038 93.9719 109.388H93.972Z" fill="white"/>
<path d="M103.739 40.3327C97.5826 37.2027 92.2579 34.5116 86.9578 31.773C86.497 31.4462 86.1011 31.0364 85.7902 30.5646C80.6709 24.4848 75.5365 18.4174 70.4539 12.3069C68.4714 9.92355 65.6027 7.21526 67.2706 4.20983C68.0386 2.82593 72.041 2.65852 74.4846 2.89429C81.1306 3.53549 87.7429 4.59729 94.3256 5.73998C94.8792 5.97248 95.368 6.33608 95.7499 6.79944C96.1318 7.2628 96.3954 7.81204 96.5179 8.39987C97.4656 17.2538 98.5799 26.014 102.723 34.1234C103.552 35.745 103.371 37.8819 103.739 40.3327Z" fill="black"/>
<path d="M117.036 58.8712C113.995 54.0162 110.939 49.5237 108.31 44.7934C106.714 41.894 105.476 38.8111 104.625 35.6126C102.577 27.9663 100.795 20.2462 99.0471 12.5238C98.7044 11.0097 98.9978 9.35152 98.9978 6.92603C104.264 7.57786 109.335 8.10784 114.356 8.94076C115.049 9.05558 115.852 10.6197 115.995 11.6015C117.435 21.4959 118.762 31.4069 120.085 41.3182C120.374 43.4857 120.572 45.669 120.717 47.8514C121.011 52.2907 120.069 56.2861 117.036 58.8712Z" fill="black"/>
<path d="M64.7096 2.8374C65.5705 15.0863 76.3601 20.2061 81.5358 29.4907C70.165 28.6151 58.9636 28.881 50.5368 19.8306C47.9703 17.0742 44.7655 14.8925 42.3257 12.043C39.9055 9.21624 40.5567 7.20487 44.1703 6.42861C50.7819 5.00834 57.4969 4.06943 64.7096 2.8374Z" fill="black"/>
<path d="M51.6611 31.2299C54.4179 31.3589 57.1739 31.563 59.9317 31.5936C62.2272 31.619 63.4741 32.6293 63.2611 34.9286C62.9547 38.2356 63.0594 41.7747 61.8233 44.7267C61.1168 46.4139 58.105 48.0938 56.1219 48.105C50.6146 47.9666 45.1196 47.5165 39.6632 46.7568C37.534 46.5259 36.8747 44.9612 37.0932 42.9832C37.3201 40.9281 37.557 38.8733 37.8388 36.8252C38.5438 31.7008 39.0925 31.2072 44.4203 31.0669C46.832 31.0035 49.2468 31.0562 51.6602 31.0562L51.6611 31.2299Z" fill="white"/>
<path d="M34.8328 31.9238C38.5773 40.9115 35.2215 47.6979 25.9135 50.0214C25.8019 50.0492 25.6929 50.0872 25.5812 50.1145C18.148 51.9304 15.6996 50.7335 12.3066 43.6257C10.6848 40.2283 11.6801 36.9535 15.0793 35.1811C16.7589 34.1895 18.5972 33.4955 20.5132 33.13C25.2646 32.526 30.0641 32.3001 34.8328 31.9238Z" fill="white"/>
<path d="M23.8335 21.9489C26.3938 16.4478 30.7451 11.9782 36.1756 9.27125C36.7691 8.9666 38.2256 9.12855 38.4764 9.55154C42.7648 16.7482 48.9488 22.6277 56.3528 26.5474C44.3817 30.4048 33.7728 29.9314 23.8335 21.9489Z" fill="black"/>
<path d="M80.2625 49.892C82.3249 45.357 84.1059 41.1757 86.1802 37.1452C86.5592 36.7601 87.0305 36.4785 87.5493 36.3273C88.0681 36.1762 88.617 36.1606 89.1435 36.2819C93.2014 38.1725 97.1807 40.2543 101.072 42.4725C103.641 43.9372 103.983 46.0679 102.265 48.5808C98.2156 54.5048 97.5279 54.7281 90.6121 52.6178C87.4517 51.6534 84.2193 50.9251 80.2625 49.892Z" fill="white"/>
<path d="M120.011 12.6323C121.228 15.6397 122.488 18.6307 123.648 21.6597C124.546 24.0044 125.331 26.3934 126.148 28.7688C127.019 31.0092 127.778 33.2918 128.42 35.6082C129.822 40.9782 129.154 46.6789 126.55 51.5798C123.997 56.5201 122.768 62.1448 120.872 67.717C117.748 66.2964 118.058 63.5567 118.931 61.6042C124.182 49.8573 122.395 37.9373 120.328 25.9567C119.592 21.6916 118.972 17.4065 118.298 13.1305L120.011 12.6323Z" fill="black"/>
<path d="M66.9233 32.2883L85.1987 34.5293C82.1506 39.9206 79.6893 44.274 76.9141 49.1826C73.8243 49.1826 70.1619 49.2594 66.505 49.1513C64.5829 49.0945 63.574 48.1333 64.0636 45.966C65.013 41.7627 65.8359 37.5309 66.9233 32.2883Z" fill="white"/>
<path d="M9.79523 44.5312C12.178 47.1532 14.425 49.8953 16.5276 52.7469C17.3901 54.2064 17.687 55.9317 17.3619 57.5955C16.1497 63.1744 14.567 68.6728 12.9679 74.7982C8.33501 71.748 4.90494 68.4348 5.2692 63.7043C5.76462 57.27 7.50001 50.931 8.70364 44.5512L9.79523 44.5312Z" fill="white"/>
<path d="M118.942 76.7656C119.839 79.246 121.035 81.4293 121.319 83.7254C121.514 85.3048 120.964 87.6708 119.846 88.594C115.741 91.9831 111.259 94.9162 106.919 98.0209L105.735 97.608C106.077 93.8836 106.339 90.1487 106.825 86.4432C107.089 85.5678 107.656 84.8146 108.423 84.3178C111.726 81.8618 115.102 79.506 118.942 76.7656Z" fill="white"/>
<path d="M106.915 48.4045C109.099 52.2451 111.399 56.0278 113.361 59.9781C113.727 60.7154 113.068 62.5104 112.315 63.1557C109.716 65.3835 106.866 67.3187 103.225 70.0238C101.858 65.2434 100.298 61.1786 99.7036 56.9771C99.4862 55.4406 101.493 53.533 102.615 51.8821C103.451 50.6506 104.494 49.5596 105.445 48.406L106.915 48.4045Z" fill="white"/>
<path d="M115.518 63.7798C116.515 66.3246 117.358 68.927 118.043 71.573C118.114 72.1989 118.044 72.8327 117.838 73.4281C117.633 74.0236 117.297 74.5657 116.856 75.0151C113.634 77.7314 110.173 80.1638 106.677 82.7946C104.589 69.5368 104.088 71.0516 115.518 63.7798Z" fill="white"/>
<path d="M124.434 82.3634C120.081 74.8379 122.364 66.9379 125.482 59.0988C126.525 56.4777 127.755 53.9311 129.135 50.8181C130.306 62.3722 130.541 73.1229 124.434 82.3634Z" fill="black"/>
<path d="M4.88538 72.636C13.2308 76.1704 15.5705 80.5524 13.5644 88.9056C13.3159 89.9402 12.1542 90.7555 11.4156 91.6724C10.6645 90.8244 9.5479 90.0961 9.22439 89.1082C7.66106 84.3339 6.29321 79.495 4.90848 74.664C4.81497 73.9917 4.80721 73.3102 4.88538 72.636V72.636Z" fill="white"/>
<path d="M14.8022 31.6233C15.0431 30.0356 15.6714 28.5317 16.6316 27.2446C17.5919 25.9575 18.8545 24.9268 20.3078 24.2437C21.1652 23.7919 22.7352 24.168 23.7522 24.6467C26.2643 25.8295 28.645 27.2911 31.0786 28.6406L30.8056 29.4628L14.8022 31.6233Z" fill="black"/>
<path d="M82.1619 88.8179C82.1218 87.2179 82.0419 85.6179 81.9221 84.0179C81.8718 83.308 81.7917 82.618 81.6819 81.948C81.1698 78.012 79.3029 74.3772 76.4021 71.668C74.8994 70.315 73.1785 69.2263 71.3122 68.448C70.6521 68.168 69.9519 67.908 69.2219 67.678C62.6721 65.618 56.0319 65.848 49.362 66.918C39.9119 68.428 34.3518 74.618 34.302 84.178V84.778C34.2917 87.598 34.3918 90.428 34.5417 93.248C34.6819 95.868 34.8621 98.498 35.032 101.118C35.1074 102.375 35.3221 103.619 35.6721 104.828V104.838C36.4183 107.458 37.8471 109.832 39.8122 111.718C39.822 111.718 39.822 111.708 39.8318 111.708C40.2996 111.425 40.702 111.046 41.0123 110.596C41.3227 110.146 41.5339 109.636 41.6321 109.098C41.8789 108.174 41.8333 107.195 41.5017 106.298C41.8601 106.614 42.2527 106.889 42.6721 107.118C43.0818 106.878 43.4918 106.628 43.9021 106.368C44.4622 106.028 45.0222 105.678 45.572 105.338C46.1321 104.988 46.6921 104.648 47.2517 104.298C47.7517 103.998 48.242 103.698 48.7322 103.398C48.9519 103.268 49.1721 103.128 49.4021 102.998C49.802 102.758 50.2019 102.518 50.6121 102.298C50.6219 102.288 50.6321 102.288 50.6419 102.278C51.5721 101.748 52.512 101.238 53.472 100.768C53.6901 100.677 53.9259 100.636 54.1619 100.648C54.3993 100.652 54.6363 100.668 54.8719 100.698C55.3123 100.768 55.8221 100.868 56.3919 101.008C56.6419 101.068 56.8919 101.138 57.1522 101.218C57.452 101.308 57.7723 101.398 58.1019 101.508C58.2518 101.558 58.4119 101.608 58.5819 101.668C58.7518 101.718 58.9222 101.778 59.0921 101.838C59.432 101.958 59.7918 102.078 60.1419 102.208C60.3123 102.268 60.4823 102.328 60.6522 102.398C60.8319 102.458 61.0018 102.528 61.1722 102.598C61.5223 102.728 61.8719 102.868 62.222 103.008C62.8021 103.248 63.3821 103.488 63.952 103.738C64.2918 103.888 64.6322 104.038 64.972 104.198C64.9822 104.198 64.992 104.198 64.992 104.208C65.3318 104.358 65.6619 104.518 65.9822 104.668C67.1121 105.208 68.1521 105.748 69.0018 106.258C69.1219 106.328 69.242 106.398 69.3519 106.468C69.4622 106.538 69.5721 106.598 69.6819 106.668C69.8621 106.778 70.0223 106.888 70.1619 106.988C70.2918 107.078 70.4022 107.168 70.512 107.258C70.5731 107.299 70.63 107.346 70.682 107.398C70.7398 107.439 70.7934 107.486 70.8421 107.538C70.9022 107.588 70.9622 107.648 71.0223 107.708C71.0797 107.782 71.133 107.858 71.182 107.938C71.6955 108.691 71.9226 109.602 71.8221 110.508C71.4366 111.403 70.8947 112.223 70.222 112.928C70.43 113.208 70.6796 113.454 70.9622 113.658C71.3719 113.972 71.8668 114.156 72.3824 114.184C72.8979 114.213 73.41 114.085 73.8519 113.818C74.7431 113.236 75.3822 112.34 75.6419 111.308C75.6927 111.144 75.7328 110.977 75.762 110.808C75.6824 110.886 75.5952 110.957 75.5017 111.018C75.4319 111.078 75.3621 111.128 75.2917 111.178C75.0987 111.312 74.8986 111.436 74.6921 111.548C74.3213 110.903 74.0227 110.219 73.802 109.508C73.7443 109.18 73.6642 108.855 73.5623 108.538C73.532 108.438 73.4919 108.338 73.4622 108.238C73.4123 108.078 73.3521 107.921 73.282 107.768C73.195 107.544 73.0913 107.327 72.9719 107.118C72.9264 107.014 72.873 106.914 72.8122 106.818C72.4267 106.175 71.9366 105.6 71.362 105.118C71.2517 105.018 71.132 104.928 71.012 104.828H71.0017C70.461 104.45 69.8811 104.132 69.2722 103.878C69.0622 103.788 68.842 103.708 68.612 103.628C68.1721 103.478 67.7419 103.328 67.3122 103.158C67.3109 103.158 67.3096 103.158 67.3083 103.157C67.3071 103.157 67.306 103.156 67.305 103.155C67.304 103.154 67.3033 103.153 67.3028 103.152C67.3022 103.151 67.302 103.149 67.302 103.148C66.6521 102.918 66.012 102.678 65.362 102.438C63.4319 101.708 61.5017 100.958 59.5622 100.268C59.1418 100.118 58.7419 99.9679 58.342 99.7979C58.1921 99.7379 58.032 99.6779 57.882 99.6079C57.5781 99.4875 57.2809 99.3507 56.9919 99.198C56.842 99.128 56.6921 99.058 56.5519 98.978C56.4079 98.909 56.2677 98.8322 56.132 98.7479C55.9878 98.6756 55.8476 98.5955 55.7121 98.508C55.4949 98.3898 55.2844 98.2596 55.0817 98.118C54.58 97.7963 54.1022 97.4386 53.6521 97.0479C53.4318 96.8679 53.2219 96.678 53.0119 96.478C52.8317 96.298 52.652 96.1179 52.4821 95.9279C52.3044 95.7444 52.1375 95.5507 51.9821 95.3479C51.9118 95.2679 51.8518 95.1879 51.7917 95.1079C51.7122 95.0127 51.6388 94.9125 51.572 94.808C51.4919 94.698 51.4118 94.5879 51.3317 94.4679C51.2493 94.3608 51.1758 94.2471 51.112 94.1279C50.9821 93.9279 50.862 93.7179 50.7419 93.4979C50.5662 93.1963 50.4059 92.8859 50.2619 92.5679C50.1618 92.3579 50.0622 92.1579 49.9518 91.9679C49.902 91.8779 49.842 91.788 49.7819 91.698C49.7312 91.6107 49.6744 91.5272 49.612 91.448C49.4965 91.2916 49.373 91.1414 49.2419 90.9979C48.7479 90.4666 48.1189 90.0795 47.422 89.8779C47.2478 89.8274 47.0708 89.7873 46.8918 89.758C46.7516 89.738 46.612 89.7179 46.4621 89.7079C46.3219 89.6979 46.1721 89.6879 46.0221 89.6879C45.5417 89.6909 45.0626 89.7412 44.592 89.838C42.7018 90.208 40.822 90.6279 39.0221 91.0279C38.5817 91.1179 38.152 91.218 37.7219 91.308C37.7219 89.578 37.8517 87.9379 37.7019 86.3279C37.6418 85.6626 37.6418 84.9933 37.7019 84.3279C37.7121 84.2379 37.7121 84.1579 37.7219 84.0779C37.7419 83.8279 37.7819 83.5879 37.8219 83.3479C37.8419 83.2179 37.862 83.078 37.8918 82.948C37.9318 82.738 37.9821 82.5379 38.0221 82.3479C38.0817 82.0979 38.152 81.858 38.2322 81.618C38.322 81.308 38.4319 81.0079 38.552 80.7079C38.612 80.5579 38.6721 80.4179 38.7322 80.2679C38.7917 80.1179 38.8518 79.9779 38.9221 79.828C39.1896 79.2494 39.4935 78.6883 39.8318 78.148C39.8318 78.1467 39.832 78.1454 39.8325 78.1441C39.8331 78.1429 39.8338 78.1418 39.8348 78.1408C39.8357 78.1399 39.8369 78.1392 39.8381 78.1387C39.8393 78.1382 39.8407 78.138 39.842 78.138C39.8318 78.128 39.8318 78.128 39.842 78.128C40.0712 77.7476 40.3216 77.3803 40.592 77.028C40.6721 76.918 40.7517 76.808 40.842 76.6981C41.2271 76.2104 41.6447 75.7494 42.092 75.3181C42.2917 75.1181 42.5017 74.9281 42.7121 74.7381C42.9118 74.5581 43.1119 74.3881 43.3122 74.2281C43.5622 74.0281 43.8122 73.8481 44.0622 73.6781C44.2019 73.5781 44.3518 73.4781 44.5017 73.3881C44.7517 73.2281 45.0119 73.0781 45.2819 72.9281C45.3061 72.9164 45.3295 72.903 45.3518 72.8881C45.592 72.768 45.8318 72.6481 46.0818 72.5381C46.4189 72.3783 46.7663 72.2414 47.1218 72.1281C47.3122 72.0581 47.5017 71.9981 47.6921 71.9481C47.7121 71.9381 47.7321 71.9381 47.7419 71.9281C48.2601 71.7854 48.7883 71.6818 49.322 71.6181C49.1921 73.9281 49.072 76.1881 48.9318 78.4481C48.7419 81.4081 49.612 83.518 52.8019 84.4481C53.5719 84.6781 54.3419 84.9181 55.1018 85.1681C57.2019 85.8581 59.2819 86.6181 61.3718 87.3181C61.862 87.4781 62.342 87.6381 62.8318 87.7881C63.302 87.9381 63.772 88.0781 64.2419 88.2081C64.632 88.3281 65.022 88.4381 65.4118 88.5381C66.0222 88.6881 66.632 88.8381 67.2419 88.9681C67.447 89.0085 67.6539 89.0386 67.862 89.0581C68.2409 89.098 68.6228 89.098 69.0017 89.0581H69.0119C69.1721 89.0481 69.322 89.0381 69.4822 89.0181C69.4919 89.0281 69.5017 89.0281 69.5221 89.0181C69.6633 89.0079 69.8037 88.9878 69.9421 88.9581C69.9624 88.9597 69.9829 88.9562 70.0016 88.9481C70.0817 88.9381 70.152 88.9181 70.2321 88.9081C71.1768 88.7292 72.1088 88.4887 73.0221 88.1881C73.1233 88.1487 73.2266 88.1153 73.3317 88.0881C73.5919 88.0081 73.8517 87.9281 74.1017 87.8481C74.3219 87.7781 74.5416 87.7081 74.7618 87.6481C75.982 87.2881 76.982 86.1381 78.0919 85.3281C78.192 85.4881 78.2819 85.6581 78.3717 85.8281C78.462 85.9981 78.5519 86.1681 78.632 86.3381C78.7238 86.5125 78.8039 86.6929 78.8717 86.8781C78.9518 87.0581 79.0318 87.2381 79.1017 87.4281C79.152 87.5481 79.2018 87.6681 79.2418 87.7981C79.2916 87.9281 79.3419 88.0581 79.382 88.1881V88.1981H79.3917L79.382 88.2081C79.3857 88.212 79.3885 88.2168 79.3902 88.222C79.3919 88.2272 79.3924 88.2326 79.3917 88.2381C79.4117 88.2881 79.4317 88.3581 79.4518 88.4081C79.5621 88.7481 79.6618 89.0981 79.7516 89.4481C79.781 89.5432 79.8045 89.64 79.8219 89.7381C79.922 90.0881 79.9918 90.4481 80.0621 90.8181C80.1017 90.9981 80.132 91.1781 80.1618 91.3581C80.212 91.6581 80.2619 91.9581 80.3019 92.2781C80.3219 92.4081 80.3419 92.5381 80.3517 92.6781C80.3917 92.9781 80.422 93.2881 80.442 93.5881C80.4718 93.8981 80.4918 94.1981 80.5016 94.5081C80.5096 94.5408 80.513 94.5744 80.5119 94.6081C80.5221 94.7681 80.5319 94.9381 80.5319 95.0981C80.5519 95.3581 80.5519 95.6181 80.5519 95.8781C80.5621 96.5781 80.5416 97.2881 80.4919 97.9881C80.4821 98.2181 80.4621 98.4381 80.442 98.6681C80.4437 98.7282 80.4403 98.7885 80.4318 98.8481C80.4118 99.1781 80.3717 99.5081 80.3317 99.8381C80.3019 100.098 80.2619 100.358 80.2218 100.618C80.1818 100.918 80.132 101.208 80.0817 101.488C80.0719 101.548 80.0622 101.598 80.0519 101.658C79.9518 102.178 79.8418 102.688 79.7218 103.188C80.1393 103.169 80.5452 103.046 80.902 102.828C81.4063 102.52 81.8284 102.095 82.132 101.588V101.578C82.172 99.9981 82.2121 98.4281 82.2321 96.8381C82.2722 94.1679 82.262 91.4879 82.1619 88.8179ZM44.2517 91.9379C44.362 91.9179 44.4719 91.8979 44.5818 91.8879C44.782 91.8679 44.9719 91.8479 45.1721 91.8379C49.6218 91.6379 48.6218 96.1879 50.7722 98.2679C50.302 98.638 49.842 98.9979 49.3821 99.3479C49.282 99.4179 49.1819 99.4879 49.0818 99.5679C48.8918 99.7179 48.7121 99.8479 48.5222 99.9779C48.342 100.108 48.1521 100.238 47.9719 100.368C47.7819 100.498 47.592 100.618 47.4119 100.738C47.2322 100.858 47.0417 100.968 46.862 101.078C46.4829 101.307 46.0924 101.518 45.6921 101.708C45.4221 101.838 45.1418 101.958 44.862 102.068C44.7219 102.128 44.572 102.178 44.4319 102.228C44.105 102.346 43.771 102.443 43.4319 102.518C43.322 102.548 43.2019 102.568 43.0818 102.588C43.0509 102.603 43.0165 102.61 42.9822 102.608C42.8897 102.629 42.7961 102.646 42.7019 102.658C42.6761 102.666 42.6489 102.67 42.6218 102.668C42.1848 102.732 41.7437 102.766 41.302 102.768C40.8605 102.767 40.4196 102.737 39.9822 102.678C40.6521 100.138 40.2517 100.038 47.7917 96.5879C47.6819 96.5179 47.5622 96.448 47.4519 96.3879C47.4041 96.3574 47.354 96.3307 47.302 96.3079C47.1367 96.2116 46.9625 96.1312 46.782 96.0679C46.709 96.0293 46.6318 95.9991 46.552 95.9779C46.3918 95.9179 46.2322 95.8679 46.0818 95.8279C46.0097 95.8065 45.9363 95.7898 45.862 95.7779C45.6643 95.7366 45.4637 95.7098 45.262 95.698C44.8702 95.6791 44.4776 95.7059 44.092 95.7779C44.0146 95.7864 43.9378 95.7998 43.862 95.8179C43.7121 95.8579 43.5622 95.8979 43.4221 95.9379C43.0834 96.0409 42.7525 96.1679 42.4319 96.3179L42.0417 96.4979C41.9118 96.5579 41.7819 96.6179 41.6618 96.6879L41.1521 96.9579C40.4484 97.351 39.7202 97.6984 38.9719 97.9979C38.8606 98.0405 38.7472 98.0773 38.632 98.1079C38.5433 98.1359 38.4532 98.1592 38.362 98.1779C38.2601 98.207 38.1566 98.2304 38.052 98.2479C37.9519 98.2679 37.8518 98.2879 37.7517 98.2979H37.7419C37.7019 98.2979 37.6721 98.3079 37.6321 98.3079C37.6321 98.2779 37.6418 98.2379 37.6418 98.2079C37.6588 98.0432 37.6855 97.8795 37.7219 97.7179C37.7601 97.5207 37.8136 97.3268 37.8821 97.1379C37.9405 96.9393 38.014 96.7454 38.1018 96.5579C38.1492 96.4484 38.2027 96.3416 38.262 96.2379C38.3242 96.1071 38.3943 95.9803 38.472 95.8579C38.5379 95.7398 38.6297 95.6291 38.7083 95.5132C38.7908 95.4064 38.8787 95.3009 38.972 95.188V95.128C39.121 94.929 39.2813 94.7387 39.452 94.558C39.6218 94.3681 39.8021 94.1878 39.992 94.018C40.1121 93.908 40.2322 93.808 40.3621 93.708C40.4771 93.6116 40.5973 93.5215 40.7219 93.438C40.9996 93.2327 41.2902 93.0456 41.592 92.878C41.6954 92.8154 41.8022 92.7587 41.9119 92.708C42.1107 92.6078 42.3144 92.5177 42.5222 92.438C42.6486 92.3793 42.7788 92.3292 42.9119 92.288C43.032 92.248 43.1521 92.198 43.282 92.168C43.3658 92.1354 43.4529 92.1119 43.5418 92.098C43.7095 92.0486 43.8798 92.0085 44.052 91.978C44.0941 91.9632 44.1376 91.9531 44.1819 91.948C44.2042 91.9398 44.228 91.9364 44.2517 91.9379V91.9379ZM68.1218 69.4379C68.262 69.5879 68.4019 69.7379 68.5417 69.8879C69.032 70.4079 69.512 70.9279 70.0017 71.4479L70.032 71.4779L70.012 71.4979C68.3421 72.9279 66.672 74.3579 65.0018 75.7879C64.762 75.9879 64.532 76.1979 64.2917 76.3979C64.1218 76.1979 63.9519 75.9879 63.7722 75.7979C63.7322 75.7479 63.6921 75.7079 63.6521 75.6579C63.822 75.4179 63.9919 75.1879 64.1619 74.9479C64.592 74.3479 65.0222 73.7479 65.4622 73.1479C65.4615 73.1425 65.462 73.137 65.4637 73.1319C65.4654 73.1267 65.4682 73.1219 65.4719 73.1179C66.2722 72.0179 67.0623 70.9179 67.8518 69.8079C67.9421 69.6879 68.032 69.5579 68.1218 69.4379V69.4379ZM68.7219 79.7179C67.9719 80.1879 66.5417 79.6079 65.4221 79.4879C65.4319 78.8479 65.4421 78.2179 65.4621 77.5779C66.9621 77.2679 68.4621 76.9479 69.9719 76.6379C69.5818 77.7079 69.4822 79.2379 68.7219 79.7179V79.7179ZM62.6418 106.138C62.6309 106.133 62.619 106.13 62.6069 106.13C62.5949 106.13 62.583 106.133 62.572 106.138C62.4581 106.138 62.3443 106.148 62.2322 106.168C62.1521 106.178 62.0818 106.188 62.012 106.198C61.8918 106.228 61.7722 106.248 61.6521 106.288C61.2019 106.428 60.7519 106.588 60.302 106.768C59.8518 106.958 59.3918 107.158 58.8918 107.388C58.0222 107.788 57.0622 108.248 55.9318 108.748C55.9221 108.758 55.9221 108.748 55.9221 108.748C55.9208 108.749 55.9192 108.75 55.9175 108.751C55.9158 108.752 55.9139 108.752 55.9121 108.752C55.9102 108.752 55.9083 108.752 55.9066 108.751C55.9049 108.75 55.9034 108.749 55.9021 108.748C55.8918 108.768 55.8821 108.778 55.8718 108.778L55.8122 108.808C56.0363 109.141 56.3338 109.418 56.6819 109.618C57.626 110.112 58.7205 110.237 59.7517 109.968C60.7074 109.791 61.5728 109.289 62.2019 108.548C63.1018 108.508 64.0222 108.478 64.9519 108.428C64.9621 108.378 64.9621 108.318 64.9719 108.268C65.0119 108.008 65.0417 107.728 65.0622 107.458C65.0602 107.414 65.0635 107.371 65.072 107.328C65.0817 107.148 65.1018 106.958 65.1218 106.778C65.1316 106.594 65.1516 106.41 65.1818 106.228C64.3518 106.228 63.4719 106.088 62.6418 106.138V106.138ZM58.9621 103.848C58.8318 103.788 58.7121 103.728 58.592 103.678C58.5622 103.668 58.5417 103.668 58.532 103.658C58.4221 103.618 58.322 103.578 58.2121 103.538C58.0954 103.486 57.9749 103.442 57.8518 103.408C57.6748 103.345 57.4947 103.292 57.3122 103.248C56.9919 103.168 56.6819 103.108 56.3718 103.058L56.1321 103.028C55.8318 102.998 55.5417 102.978 55.2517 102.978C55.032 102.978 54.8122 102.988 54.6018 103.008C54.5282 103.01 54.4548 103.016 54.3821 103.028L53.9319 103.088C53.7219 103.128 53.5017 103.168 53.2917 103.218C53.0818 103.268 52.8718 103.328 52.6619 103.388C52.4621 103.448 52.2722 103.518 52.072 103.588C51.862 103.668 51.6418 103.748 51.4319 103.848C51.2322 103.938 51.0321 104.028 50.8318 104.118C50.6721 104.198 50.5121 104.278 50.3518 104.358C50.3114 104.37 50.274 104.391 50.2419 104.418C50.0319 104.528 49.8122 104.648 49.6018 104.758C49.5941 104.759 49.587 104.762 49.5818 104.768C49.3718 104.888 49.1721 105.008 48.9621 105.128C47.7019 105.868 46.4519 106.678 45.1819 107.338C44.862 107.498 44.5417 107.648 44.2121 107.788C45.1608 108.093 46.1399 108.294 47.1321 108.388C49.9632 108.666 52.8075 108.79 55.6521 108.758C55.6819 108.728 55.7019 108.698 55.7322 108.668C57.3318 106.758 58.3518 105.548 59.5319 104.128C59.3421 104.028 59.1521 103.928 58.9621 103.848V103.848ZM50.012 109.818C49.5689 109.414 49.0467 109.107 48.4787 108.916C47.9106 108.725 47.3091 108.654 46.7121 108.708C45.7087 108.837 44.7854 109.323 44.112 110.078C43.8168 110.402 43.5909 110.783 43.4482 111.197C43.3054 111.612 43.2489 112.051 43.282 112.488C43.3521 113.057 43.5764 113.597 43.9305 114.048C44.2847 114.499 44.7554 114.845 45.2917 115.048C46.5937 115.516 48.0257 115.466 49.2917 114.908C49.8233 114.724 50.2929 114.395 50.648 113.959C51.0031 113.522 51.2296 112.996 51.302 112.438C51.3002 111.932 51.1831 111.433 50.9596 110.979C50.7361 110.525 50.412 110.128 50.012 109.818V109.818Z" fill="white"/>
<path d="M98.1307 76.7635C92.7707 79.9562 88.5493 79.23 86.4534 75.3647C84.0306 70.8963 86.2798 63.0353 90.5977 61.2771C89.6446 64.5208 87.3395 68.3489 87.783 71.8264C88.4004 76.6674 93.595 76.2748 98.1307 76.7635Z" fill="black"/>
<path d="M36.2549 66.6386C35.5725 65.5845 35.0058 64.4599 34.5646 63.2844C33.8149 59.6194 31.8456 60.2362 29.6767 61.8446C27.7759 63.2542 25.9945 64.8248 23.9527 66.494C23.9283 62.483 30.4678 57.586 33.6057 58.9843C36.5269 60.2862 36.6859 62.9068 36.2549 66.6386Z" fill="black"/>
<path d="M19.8555 102.621C22.2503 96.0002 27.7094 90.3249 23.4005 82.8C28.6937 86.6056 26.5758 97.7908 19.8555 102.621Z" fill="black"/>
<path d="M86.6346 112.42C89.8127 116.063 90.0447 118.957 87.998 121.77C85.5138 125.184 78.8146 127.355 75.1646 125.891C78.4319 124.725 81.8695 123.953 84.8349 122.322C88.449 120.335 88.0035 116.664 86.6346 112.42Z" fill="black"/>
<path d="M93.9703 109.387C95.7383 99.7856 94.3416 96.7879 87.6741 95.2019C88.654 94.8877 89.7387 94.1329 90.5954 94.3367C94.0572 95.1602 95.4688 98.0631 96.2728 101.103C97.0294 103.964 97.5505 107.036 93.9703 109.387Z" fill="black"/>
<path d="M38.9436 125.816C35.0673 118.92 29.2828 122.693 24.9302 121.277L24.9041 120.273C26.8154 119.928 28.7549 119.765 30.6968 119.785C32.8606 120.044 34.983 120.576 37.0134 121.368C40.658 122.702 40.9434 124.449 38.0798 127.044C37.3067 127.765 36.3566 128.268 35.326 128.503L38.9436 125.816Z" fill="black"/>
<path d="M80.5518 95.8779C80.5621 96.5779 80.5416 97.2879 80.4918 97.9879C80.4821 98.2179 80.4621 98.4379 80.442 98.6679C80.4437 98.728 80.4403 98.7883 80.4318 98.8479C80.402 99.1779 80.3717 99.5079 80.3317 99.8379C80.3019 100.098 80.2619 100.358 80.2218 100.618C80.1818 100.918 80.132 101.208 80.0817 101.488C80.0719 101.548 80.0622 101.598 80.0519 101.658C79.9518 102.178 79.8418 102.688 79.7218 103.188C79.6825 103.394 79.6324 103.597 79.5719 103.798C79.5221 103.958 79.4821 104.128 79.4318 104.288C79.2916 104.798 79.132 105.278 78.9518 105.748C78.8739 105.982 78.7838 106.213 78.6818 106.438C78.4961 106.899 78.2858 107.349 78.0519 107.788C77.9718 107.956 77.8816 108.12 77.7819 108.278C77.7619 108.336 77.7315 108.39 77.692 108.438C77.5919 108.598 77.5016 108.748 77.4021 108.898C77.2819 109.088 77.1618 109.258 77.0319 109.428C76.9407 109.561 76.8406 109.688 76.7321 109.808C76.6366 109.934 76.5331 110.055 76.4221 110.168C76.2197 110.399 75.9989 110.613 75.7619 110.808C75.6823 110.886 75.5951 110.957 75.5017 111.018C75.4318 111.078 75.362 111.128 75.2917 111.178C75.0986 111.312 74.8985 111.436 74.692 111.548C74.3212 110.903 74.0227 110.219 73.8019 109.508C73.7442 109.179 73.6641 108.855 73.5622 108.538C73.5319 108.438 73.5016 108.338 73.4621 108.238C73.4122 108.077 73.3521 107.92 73.2819 107.768C73.1949 107.544 73.0913 107.326 72.9718 107.118C72.9263 107.014 72.8729 106.914 72.8122 106.818C72.4266 106.175 71.9365 105.6 71.362 105.118C71.2419 105.018 71.1217 104.928 71.0016 104.828C70.4609 104.45 69.881 104.132 69.2721 103.878C69.0621 103.788 68.842 103.708 68.612 103.628C68.172 103.478 67.7419 103.328 67.3122 103.158C67.3108 103.158 67.3095 103.158 67.3083 103.157C67.307 103.157 67.3059 103.156 67.3049 103.155C67.304 103.154 67.3032 103.153 67.3027 103.152C67.3022 103.151 67.3019 103.149 67.3019 103.148C66.652 102.918 66.0119 102.678 65.362 102.438C63.4318 101.708 61.5016 100.958 59.5622 100.268C59.1418 100.118 58.7419 99.9678 58.342 99.7978C58.1921 99.7378 58.0319 99.6778 57.882 99.6078C57.578 99.4874 57.2809 99.3505 56.9918 99.1978C56.8419 99.1278 56.692 99.0578 56.5519 98.9778C56.4078 98.9089 56.2676 98.8321 56.132 98.7478C55.9877 98.6755 55.8475 98.5954 55.712 98.5078C55.4948 98.3896 55.2844 98.2594 55.0817 98.1178C54.5799 97.7961 54.1021 97.4385 53.652 97.0478C53.4318 96.8678 53.2218 96.6778 53.0118 96.4778C52.8317 96.2978 52.652 96.1178 52.482 95.9278C52.3044 95.7443 52.1374 95.5506 51.982 95.3478C51.9117 95.2678 51.8517 95.1878 51.7916 95.1078C51.7121 95.0126 51.6387 94.9124 51.5719 94.8078C51.4918 94.6978 51.4117 94.5878 51.3317 94.4678C51.2492 94.3607 51.1757 94.247 51.1119 94.1278C50.9821 93.9278 50.8619 93.7178 50.7418 93.4978C50.5661 93.1962 50.4059 92.8858 50.2618 92.5678C50.1617 92.3578 50.0621 92.1578 49.9518 91.9678C49.902 91.8778 49.8419 91.7878 49.7818 91.6978C49.7311 91.6106 49.6743 91.5271 49.6119 91.4478C49.4994 91.2892 49.3757 91.1388 49.2418 90.9978C48.7479 90.4665 48.1188 90.0794 47.422 89.8778C47.2478 89.8273 47.0707 89.7872 46.8917 89.7578C46.7516 89.7378 46.6119 89.7178 46.462 89.7078C46.3219 89.6978 46.172 89.6878 46.0221 89.6878C45.5416 89.6908 45.0625 89.741 44.5919 89.8378C42.7018 90.2078 40.8219 90.6278 39.0221 91.0278C38.5816 91.1178 38.152 91.2178 37.7218 91.3078C37.7218 89.5778 37.8517 87.9378 37.7018 86.3278C37.6417 85.6625 37.6417 84.9931 37.7018 84.3278C37.712 84.2378 37.712 84.1578 37.7218 84.0778C37.7418 83.8278 37.7818 83.5878 37.8219 83.3478C37.8419 83.2078 37.8619 83.0778 37.8917 82.9478C37.9317 82.7378 37.982 82.5378 38.0221 82.3478C38.0816 82.0978 38.152 81.8578 38.2321 81.6178C38.3219 81.3078 38.4318 81.0078 38.5519 80.7078C38.6119 80.5578 38.672 80.4178 38.7321 80.2678C38.7916 80.1178 38.8517 79.9778 38.922 79.8279C39.1817 79.2454 39.4858 78.6837 39.8317 78.1479C39.8317 78.1465 39.8319 78.1452 39.8325 78.144C39.833 78.1428 39.8337 78.1416 39.8347 78.1407C39.8357 78.1398 39.8368 78.1391 39.838 78.1386C39.8393 78.1381 39.8406 78.1378 39.8419 78.1379C39.8317 78.1279 39.8317 78.1279 39.8419 78.1279C40.0711 77.7474 40.3215 77.3802 40.5919 77.0279C40.672 76.9179 40.7516 76.8079 40.8419 76.6979C41.227 76.2103 41.6446 75.7492 42.0919 75.3179C42.2916 75.1179 42.5016 74.9279 42.7121 74.7379C42.9118 74.5579 43.1118 74.3879 43.3122 74.2279C43.5622 74.0279 43.8122 73.8479 44.0622 73.6779C44.2018 73.5779 44.3517 73.4779 44.5016 73.3879C44.7516 73.2279 45.0119 73.0779 45.2819 72.9279C45.3061 72.9163 45.3294 72.9029 45.3517 72.8879C45.5919 72.7679 45.8317 72.6479 46.0817 72.5379C46.4188 72.3782 46.7663 72.2412 47.1217 72.1279C47.3121 72.0579 47.5016 71.9979 47.692 71.9479C47.712 71.9379 47.732 71.9379 47.7418 71.9279C48.26 71.7852 48.7882 71.6816 49.3219 71.6179C49.192 73.9279 49.0719 76.1879 48.9318 78.4479C48.7418 81.4079 49.6119 83.5179 52.8019 84.4479C53.5719 84.6779 54.3419 84.9179 55.1017 85.1679C57.2018 85.8579 59.2819 86.6179 61.3717 87.3179C61.8619 87.4779 62.3419 87.6379 62.8317 87.7879C63.3019 87.9379 63.7719 88.0779 64.2418 88.2079C64.632 88.3279 65.0221 88.4279 65.4118 88.5379C66.0221 88.6879 66.632 88.8379 67.2418 88.9679C67.4462 89.0126 67.6534 89.0426 67.8619 89.0579C68.2408 89.0979 68.6228 89.0979 69.0016 89.0579H69.0119C69.1695 89.0591 69.3269 89.0457 69.4821 89.0179C69.4918 89.0279 69.5016 89.0279 69.5221 89.0179C69.6633 89.0077 69.8036 88.9877 69.942 88.9579C69.9624 88.9595 69.9828 88.9561 70.0016 88.9479C70.079 88.9386 70.156 88.9253 70.232 88.9079C71.1767 88.7291 72.1087 88.4885 73.022 88.1879C73.1232 88.1486 73.2266 88.1152 73.3316 88.0879C73.5919 88.0079 73.8516 87.9279 74.1016 87.8479C74.3218 87.7779 74.5415 87.7079 74.7618 87.6479C75.982 87.2879 76.982 86.1379 78.0918 85.3279C78.1919 85.4879 78.2818 85.6579 78.3716 85.8279C78.4619 85.9979 78.5518 86.1679 78.6319 86.3379C78.7238 86.5124 78.8038 86.6928 78.8716 86.8779C78.9517 87.0579 79.0318 87.2379 79.1016 87.4279C79.1519 87.5479 79.2017 87.6679 79.2418 87.7979C79.2916 87.9279 79.3418 88.0579 79.3819 88.1879V88.1979H79.3917L79.4517 88.4079C79.5621 88.7479 79.6617 89.0979 79.7515 89.4479C79.7809 89.543 79.8044 89.6399 79.8218 89.7379C79.9219 90.0879 79.9918 90.4479 80.0621 90.8179C80.1016 90.9979 80.1319 91.1779 80.1617 91.3579C80.212 91.6579 80.2618 91.9579 80.3018 92.2779C80.3218 92.4079 80.3418 92.5379 80.3516 92.6779C80.3916 92.9779 80.4219 93.2879 80.442 93.5879C80.4717 93.8979 80.4918 94.198 80.5015 94.5079C80.5095 94.5406 80.513 94.5743 80.5118 94.6079C80.522 94.7779 80.5318 94.9379 80.5318 95.0979C80.5518 95.3578 80.5518 95.6178 80.5518 95.8779Z" fill="white"/>
<path d="M71.822 110.508C71.4365 111.403 70.8947 112.223 70.2219 112.928C70.1018 113.078 69.9919 113.228 69.8821 113.378C69.0921 112.788 68.3123 112.208 67.0417 111.258C65.9719 111.858 64.592 112.618 62.5222 113.768C63.3341 112.369 64.0619 110.923 64.7019 109.438C64.7738 109.239 64.8306 109.035 64.8718 108.828C64.9021 108.728 64.9118 108.618 64.9319 108.518C64.9421 108.488 64.9421 108.458 64.9519 108.428C64.9621 108.378 64.9621 108.318 64.9719 108.268C65.0119 107.998 65.0319 107.728 65.0622 107.458C65.0602 107.414 65.0635 107.371 65.072 107.328C65.0817 107.148 65.1018 106.958 65.1218 106.778C65.1316 106.594 65.1516 106.41 65.1818 106.228C64.3518 106.228 63.4718 106.088 62.6418 106.138C62.6309 106.133 62.619 106.13 62.6069 106.13C62.5949 106.13 62.583 106.133 62.572 106.138C62.4581 106.138 62.3443 106.148 62.2322 106.168C62.1521 106.178 62.0818 106.188 62.012 106.198C61.8918 106.228 61.7722 106.248 61.6521 106.288C61.2019 106.428 60.7519 106.588 60.302 106.768C59.8518 106.958 59.3821 107.158 58.8918 107.388C58.0222 107.788 57.0623 108.248 55.9318 108.748C55.9221 108.758 55.9221 108.748 55.9221 108.748C55.9077 108.762 55.8905 108.772 55.8718 108.778L55.8122 108.808C55.7121 108.848 55.6018 108.898 55.4919 108.948C55.5417 108.888 55.6018 108.818 55.6521 108.758C55.6818 108.728 55.7019 108.698 55.7321 108.668C57.3317 106.758 58.3518 105.548 59.5319 104.128C59.342 104.028 59.1521 103.928 58.9621 103.848C58.8317 103.788 58.7121 103.728 58.592 103.678C58.5622 103.668 58.5417 103.668 58.5319 103.658C58.4281 103.611 58.3213 103.571 58.2121 103.538C58.0953 103.486 57.9749 103.442 57.8518 103.408C57.6748 103.345 57.4947 103.292 57.3122 103.248C56.9919 103.168 56.6818 103.108 56.3718 103.058L56.132 103.028C55.8317 102.998 55.5417 102.978 55.2517 102.978C55.0319 102.978 54.822 102.988 54.6018 103.008C54.5282 103.01 54.4547 103.016 54.382 103.028C54.2308 103.038 54.0804 103.058 53.9318 103.088C53.7121 103.118 53.5017 103.168 53.2917 103.218C53.0817 103.268 52.8718 103.328 52.6618 103.388C52.4621 103.448 52.2722 103.508 52.072 103.588C51.862 103.668 51.6418 103.748 51.4318 103.848C51.2321 103.928 51.0321 104.018 50.8317 104.118C50.6721 104.188 50.5121 104.268 50.3517 104.358C50.3114 104.37 50.2739 104.391 50.2419 104.418C50.0319 104.518 49.8122 104.638 49.6017 104.758C49.5941 104.759 49.587 104.762 49.5817 104.768C49.3717 104.878 49.1721 104.998 48.9621 105.128C47.7019 105.868 46.4519 106.678 45.1818 107.338C44.862 107.498 44.5417 107.648 44.2121 107.788C43.9919 107.888 43.7619 107.978 43.5417 108.058C43.283 108.158 43.0193 108.245 42.7517 108.318C42.592 107.998 42.4319 107.678 42.2722 107.368C42.4021 107.288 42.5417 107.208 42.6721 107.118C43.0818 106.878 43.4918 106.628 43.9021 106.368C44.4622 106.028 45.012 105.688 45.572 105.338C46.1321 104.988 46.6922 104.648 47.2517 104.298C47.7517 103.998 48.242 103.698 48.7322 103.398C48.9519 103.268 49.1721 103.128 49.4021 102.998C49.802 102.758 50.2019 102.528 50.6121 102.298C50.6219 102.288 50.6321 102.288 50.6419 102.278C51.5721 101.748 52.512 101.238 53.472 100.768C53.6901 100.677 53.9259 100.636 54.1619 100.648C54.3993 100.651 54.6364 100.668 54.8719 100.698C55.3124 100.768 55.8221 100.868 56.3919 101.008C56.6419 101.068 56.8919 101.138 57.1522 101.218C57.452 101.308 57.7723 101.398 58.1019 101.508C58.2518 101.558 58.4119 101.608 58.5819 101.668C58.7518 101.718 58.9222 101.778 59.0921 101.838C59.432 101.958 59.7918 102.078 60.1419 102.208C60.3124 102.268 60.4823 102.328 60.6522 102.398C60.8319 102.458 61.0018 102.528 61.1722 102.598C61.5223 102.728 61.8719 102.868 62.222 103.008C62.8021 103.248 63.3822 103.488 63.952 103.738C64.2918 103.888 64.6322 104.038 64.972 104.198C64.9823 104.198 64.992 104.198 64.992 104.208C65.3318 104.358 65.6619 104.518 65.9822 104.668C67.1121 105.208 68.1522 105.748 69.0018 106.258C69.1219 106.328 69.242 106.398 69.3519 106.468C69.4622 106.538 69.5721 106.598 69.6819 106.668C69.8621 106.778 70.0223 106.888 70.1619 106.988C70.2918 107.078 70.4022 107.168 70.512 107.258C70.5731 107.299 70.63 107.346 70.682 107.398C70.7398 107.439 70.7934 107.486 70.8421 107.538C70.9022 107.588 70.9622 107.648 71.0223 107.708C71.0797 107.782 71.133 107.858 71.182 107.938C71.6955 108.691 71.9225 109.602 71.822 110.508V110.508Z" fill="white"/>
<path d="M50.775 98.2691C47.3854 100.928 44.3317 103.255 39.9845 102.678C40.6553 100.142 40.2525 100.039 47.7906 96.5913C43.6104 93.92 40.9059 98.0252 37.6306 98.3057C37.8983 95.1631 41.3102 92.0122 45.1749 91.8368C49.6211 91.635 48.6229 96.1906 50.775 98.2691Z" fill="white"/>
<path d="M70.0308 71.4783C68.1183 73.1182 66.2058 74.7581 64.2934 76.398L63.6553 75.6545L68.1259 69.4426L70.0308 71.4783Z" fill="white"/>
<path d="M65.46 77.5784L69.9677 76.634C69.5793 77.7043 69.4812 79.2342 68.7202 79.715C67.9678 80.1905 66.5459 79.6065 65.4177 79.4873L65.46 77.5784Z" fill="white"/>
<path d="M36.5162 96.0067C36.4504 95.2716 36.5529 94.5311 36.816 93.8416C37.079 93.1521 37.4957 92.5315 38.0344 92.027C38.5776 91.5477 39.2224 91.1977 39.9204 91.0035C40.6183 90.8093 41.3512 90.7759 42.064 90.9058C43.1193 91.0977 44.0645 91.6777 44.7137 92.5315C45.0308 92.9587 45.2492 93.451 45.3531 93.9727C45.4571 94.4945 45.444 95.0329 45.3149 95.549C45.0862 96.2004 44.7192 96.7945 44.2391 97.2905C43.7589 97.7865 43.177 98.1726 42.5334 98.4222C41.3584 99.0187 40.0037 99.157 38.7325 98.8105C38.1229 98.622 37.5847 98.2532 37.1891 97.7526C36.7934 97.252 36.5588 96.6433 36.5162 96.0067V96.0067Z" fill="white"/>
<path d="M44.5712 106.98C43.9763 106.543 43.4887 105.976 43.1455 105.323C42.8023 104.67 42.6124 103.947 42.5903 103.209C42.59 102.485 42.754 101.77 43.0699 101.118C43.3859 100.466 43.8455 99.8938 44.4143 99.4451C45.2562 98.7805 46.3164 98.455 47.3862 98.5328C47.9164 98.5775 48.43 98.7393 48.8901 99.0064C49.3502 99.2735 49.7454 99.6393 50.0471 100.078C50.3844 100.68 50.5873 101.348 50.6418 102.036C50.6963 102.724 50.601 103.416 50.3626 104.064C50.0329 105.34 49.2407 106.448 48.1401 107.172C47.5955 107.504 46.963 107.664 46.3258 107.63C45.6887 107.596 45.0769 107.369 44.5712 106.98V106.98Z" fill="white"/>
<path d="M32.0491 92.6452C31.4815 92.2284 31.0124 91.6919 30.6752 91.0736C30.3381 90.4554 30.141 89.7706 30.098 89.0676C30.0772 88.3988 30.2146 87.7345 30.4988 87.1287C30.783 86.5228 31.2062 85.9926 31.7338 85.581C32.5264 84.9731 33.5213 84.6909 34.5151 84.7922C35.0215 84.8489 35.51 85.0126 35.9483 85.2724C36.3867 85.5321 36.7648 85.882 37.0578 86.2989C37.3879 86.8581 37.5932 87.4821 37.6599 88.1281C37.7265 88.774 37.6528 89.4268 37.4438 90.0416C37.1662 91.223 36.4395 92.2498 35.4177 92.9044C34.8945 93.2026 34.2941 93.3372 33.6937 93.291C33.0933 93.2448 32.5205 93.0199 32.0491 92.6452V92.6452Z" fill="white"/>
<path d="M41.632 109.098C41.5338 109.636 41.3226 110.146 41.0122 110.596C40.7019 111.046 40.2995 111.425 39.8317 111.708C39.8219 111.708 39.8219 111.718 39.8122 111.718C39.293 111.967 38.7128 112.061 38.1415 111.988C37.5703 111.915 37.0322 111.679 36.5919 111.308C36.0322 110.898 35.5624 110.378 35.2115 109.779C34.8606 109.181 34.6362 108.516 34.552 107.828C34.4997 107.277 34.5734 106.722 34.7674 106.204C34.9615 105.686 35.2709 105.219 35.6721 104.838V104.828C35.7619 104.758 35.8518 104.678 35.9519 104.608C36.328 104.337 36.7538 104.142 37.2051 104.036C37.6563 103.93 38.1241 103.913 38.5817 103.988C39.1701 104.087 39.728 104.319 40.2121 104.668C40.5529 104.905 40.8505 105.2 41.092 105.538C41.2595 105.773 41.3971 106.029 41.5017 106.298C41.8333 107.195 41.8788 108.173 41.632 109.098Z" fill="white"/>
<path d="M51.3019 112.438C51.2295 112.996 51.003 113.522 50.6479 113.959C50.2928 114.395 49.8232 114.724 49.2917 114.908C48.0256 115.466 46.5936 115.516 45.2917 115.048C44.7553 114.845 44.2846 114.499 43.9305 114.048C43.5763 113.596 43.352 113.057 43.2819 112.488C43.2488 112.051 43.3053 111.612 43.4481 111.197C43.5908 110.783 43.8167 110.402 44.112 110.078C44.7854 109.323 45.7086 108.836 46.7121 108.708C47.309 108.654 47.9106 108.725 48.4786 108.916C49.0467 109.107 49.5688 109.414 50.0119 109.818C50.4119 110.128 50.736 110.525 50.9595 110.979C51.1831 111.433 51.3002 111.932 51.3019 112.438V112.438Z" fill="white"/>
<path d="M48.8762 92.7958C48.2912 92.366 47.8039 91.8171 47.4465 91.1852C47.0891 90.5534 46.8697 89.853 46.8026 89.1301C46.7603 88.4644 46.8821 87.7986 47.1572 87.1909C47.4324 86.5833 47.8525 86.0525 48.3807 85.6452C48.7916 85.3386 49.2596 85.1173 49.7572 84.9943C50.2549 84.8714 50.7721 84.8492 51.2785 84.9291C51.7849 85.009 52.2701 85.1893 52.7058 85.4596C53.1414 85.7298 53.5185 86.0845 53.815 86.5026C54.163 87.0633 54.3865 87.6923 54.4702 88.3469C54.5539 89.0015 54.496 89.6664 54.3003 90.2966C54.1776 90.8806 53.9381 91.4337 53.596 91.9225C53.2539 92.4114 52.8163 92.826 52.3097 93.1412C51.767 93.4281 51.1516 93.5483 50.5408 93.4869C49.93 93.4254 49.3509 93.185 48.8762 92.7958V92.7958Z" fill="white"/>
<path d="M58.4061 98.6694C57.9237 98.3152 57.5278 97.8562 57.2483 97.327C56.9689 96.7977 56.813 96.212 56.7925 95.6138C56.7899 95.0289 56.9206 94.4511 57.1748 93.9243C57.429 93.3975 57.7999 92.9356 58.2594 92.5736C58.9409 92.0377 59.7987 91.7771 60.6632 91.8434C61.0932 91.8813 61.5096 92.0136 61.8826 92.2308C62.2557 92.448 62.5763 92.7448 62.8215 93.1C63.0961 93.5866 63.2621 94.1269 63.308 94.6838C63.3538 95.2407 63.2786 95.8009 63.0874 96.3259C62.8244 97.3563 62.1854 98.251 61.2961 98.8341C60.8541 99.1016 60.3414 99.229 59.8256 99.1996C59.3098 99.1702 58.8149 98.9854 58.4061 98.6694V98.6694Z" fill="white"/>
<path d="M62.442 108.158C62.3737 108.295 62.2933 108.425 62.2018 108.548C61.5727 109.289 60.7074 109.791 59.7516 109.968C58.7204 110.237 57.6259 110.112 56.6818 109.618C56.3337 109.418 56.0362 109.141 55.8122 108.808L55.7819 108.748C55.7638 108.722 55.7472 108.695 55.7321 108.668C55.4605 108.163 55.3522 107.587 55.422 107.018C55.4974 106.423 55.7066 105.853 56.034 105.351C56.3614 104.849 56.7984 104.427 57.3122 104.118C57.7071 103.892 58.1414 103.742 58.5919 103.678C59.2941 103.561 60.0149 103.644 60.672 103.918C61.4748 104.252 62.1214 104.877 62.4821 105.668C62.55 105.819 62.6035 105.977 62.6417 106.138C62.8228 106.813 62.7518 107.531 62.442 108.158V108.158Z" fill="white"/>
<path d="M68.4537 104.489C67.9713 104.135 67.5754 103.676 67.296 103.146C67.0165 102.617 66.8606 102.031 66.8401 101.433C66.8375 100.848 66.9682 100.27 67.2224 99.7436C67.4766 99.2168 67.8475 98.7549 68.307 98.393C68.9885 97.8571 69.8464 97.5964 70.7108 97.6627C71.1408 97.7007 71.5572 97.8329 71.9302 98.0501C72.3033 98.2673 72.6239 98.5641 72.8691 98.9193C73.1437 99.406 73.3097 99.9463 73.3556 100.503C73.4015 101.06 73.3262 101.62 73.135 102.145C72.872 103.176 72.233 104.07 71.3437 104.653C70.9017 104.921 70.389 105.048 69.8732 105.019C69.3574 104.99 68.8625 104.805 68.4537 104.489V104.489Z" fill="white"/>
<path d="M72.1708 94.824C71.6883 94.4697 71.2925 94.0108 71.013 93.4815C70.7335 92.9523 70.5777 92.3665 70.5572 91.7684C70.5545 91.1834 70.6852 90.6056 70.9394 90.0788C71.1936 89.552 71.5646 89.0901 72.0241 88.7282C72.7056 88.1922 73.5634 87.9316 74.4278 87.9979C74.8578 88.0359 75.2742 88.1681 75.6473 88.3853C76.0203 88.6025 76.3409 88.8993 76.5862 89.2545C76.8608 89.7412 77.0267 90.2815 77.0726 90.8383C77.1185 91.3952 77.0433 91.9554 76.852 92.4804C76.589 93.5108 75.95 94.4055 75.0607 94.9886C74.6187 95.2561 74.1061 95.3836 73.5902 95.3542C73.0744 95.3248 72.5796 95.1399 72.1708 94.824Z" fill="white"/>
<path d="M82.692 100.318C82.5657 100.762 82.3771 101.187 82.1319 101.578V101.588C81.8283 102.095 81.4062 102.52 80.9019 102.828C80.5451 103.046 80.1392 103.169 79.7218 103.188C79.1089 103.217 78.5049 103.033 78.0118 102.668C77.9084 102.597 77.8114 102.516 77.7218 102.428C77.3235 102.071 77.0014 101.637 76.7746 101.152C76.5478 100.668 76.4211 100.143 76.4019 99.608C76.3982 99.0227 76.5287 98.4442 76.7835 97.9172C77.0383 97.3902 77.4106 96.9286 77.8717 96.568C78.3057 96.2318 78.8126 96.0023 79.3517 95.898C79.6532 95.8281 79.9641 95.8078 80.2721 95.838C80.366 95.8465 80.4594 95.8598 80.5519 95.878C81.2055 95.9958 81.7987 96.3347 82.232 96.838C82.304 96.9204 82.3707 97.0072 82.4318 97.098C82.7082 97.583 82.8749 98.1227 82.9198 98.6791C82.9648 99.2355 82.887 99.795 82.692 100.318Z" fill="white"/>
<path d="M81.2748 88.3936C80.7923 88.0393 80.3965 87.5803 80.117 87.0511C79.8375 86.5218 79.6817 85.9361 79.6612 85.3379C79.6585 84.753 79.7892 84.1752 80.0434 83.6484C80.2976 83.1216 80.6686 82.6597 81.1281 82.2978C81.8096 81.7618 82.6674 81.5012 83.5318 81.5675C83.9619 81.6054 84.3782 81.7377 84.7513 81.9549C85.1243 82.1721 85.4449 82.4689 85.6902 82.8241C85.9648 83.3108 86.1307 83.8511 86.1766 84.4079C86.2225 84.9648 86.1473 85.525 85.9561 86.05C85.693 87.0804 85.054 87.9751 84.1647 88.5582C83.7227 88.8257 83.2101 88.9532 82.6942 88.9238C82.1784 88.8944 81.6836 88.7095 81.2748 88.3936V88.3936Z" fill="white"/>
<path d="M75.7619 110.808C75.7327 110.977 75.6926 111.144 75.6418 111.308C75.3821 112.34 74.743 113.236 73.8518 113.818C73.4099 114.085 72.8978 114.213 72.3823 114.184C71.8668 114.155 71.3718 113.972 70.9621 113.658C70.6795 113.454 70.4299 113.208 70.2219 112.928C69.6839 112.268 69.3781 111.449 69.3518 110.598C69.346 110.082 69.4449 109.571 69.6426 109.095C69.8402 108.619 70.1325 108.188 70.5017 107.828C70.6005 107.733 70.7041 107.642 70.8123 107.558C70.822 107.548 70.8318 107.548 70.842 107.538C71.4124 107.107 72.0985 106.856 72.8123 106.818C72.9489 106.811 73.0858 106.815 73.2219 106.828C73.3318 106.838 73.4519 106.858 73.5622 106.878C74.2993 107.038 74.949 107.47 75.3821 108.088C75.8616 108.909 75.998 109.887 75.7619 110.808V110.808Z" fill="white"/>
<path d="M58.3015 89.4817C57.7109 89.3847 57.1499 89.155 56.6609 88.81C56.1718 88.465 55.7673 88.0135 55.4779 87.4897C55.2103 86.9695 55.0649 86.3952 55.0526 85.8104C55.0403 85.2256 55.1615 84.6458 55.407 84.1149C55.7715 83.3282 56.4179 82.707 57.2185 82.3741C57.6189 82.213 58.05 82.1421 58.481 82.1666C58.912 82.191 59.3323 82.3102 59.712 82.5156C60.1773 82.8249 60.5702 83.2312 60.8636 83.7068C61.1569 84.1823 61.3439 84.7157 61.4115 85.2704C61.6442 86.308 61.4803 87.3952 60.952 88.3181C60.6793 88.757 60.2802 89.103 59.8071 89.3107C59.334 89.5184 58.8091 89.578 58.3015 89.4817V89.4817Z" fill="white"/>
<path d="M51.0028 79.0632C51.0539 78.4669 51.2395 77.8899 51.5456 77.3756C51.8518 76.8614 52.2706 76.4232 52.7706 76.0941C53.2685 75.7872 53.8298 75.5978 54.4119 75.5403C54.994 75.4829 55.5815 75.5589 56.1298 75.7626C56.9423 76.0652 57.6116 76.6617 58.0053 77.4341C58.197 77.8209 58.3009 78.2452 58.3099 78.6768C58.3188 79.1084 58.2324 79.5367 58.057 79.9311C57.7846 80.419 57.4098 80.8421 56.9584 81.1713C56.507 81.5006 55.9896 81.7282 55.4418 81.8384C54.4253 82.1506 53.3287 82.0713 52.3677 81.6159C51.9091 81.3779 51.5332 81.0067 51.2896 80.5511C51.046 80.0955 50.946 79.5768 51.0028 79.0632Z" fill="white"/>
<path d="M62.0086 75.1947C61.4363 75.0193 60.9113 74.7166 60.4729 74.3091C60.0345 73.9016 59.6942 73.4 59.4776 72.8421C59.2822 72.2907 59.2151 71.7021 59.2814 71.121C59.3476 70.5398 59.5455 69.9814 59.86 69.4882C60.3266 68.7575 61.0505 68.2286 61.8885 68.0061C62.3069 67.9002 62.7436 67.8877 63.1674 67.9698C63.5912 68.0518 63.9918 68.2263 64.3405 68.4807C64.7601 68.8496 65.095 69.305 65.3219 69.8155C65.5489 70.3261 65.6626 70.8798 65.6552 71.4385C65.7466 72.498 65.4385 73.5534 64.7912 74.3971C64.4621 74.7954 64.0202 75.0848 63.5235 75.2271C63.0268 75.3695 62.4987 75.3582 62.0086 75.1947V75.1947Z" fill="white"/>
<path d="M72.7491 74.9627C72.1768 74.7874 71.6517 74.4846 71.2134 74.0772C70.775 73.6697 70.4347 73.1681 70.2181 72.6101C70.0227 72.0588 69.9556 71.4702 70.0218 70.889C70.0881 70.3079 70.286 69.7495 70.6004 69.2563C71.0671 68.5256 71.791 67.9967 72.6289 67.7742C73.0474 67.6682 73.4841 67.6558 73.9079 67.7378C74.3317 67.8199 74.7322 67.9943 75.0809 68.2488C75.5006 68.6177 75.8355 69.073 76.0624 69.5836C76.2894 70.0942 76.4031 70.6479 76.3957 71.2066C76.4871 72.2661 76.1789 73.3214 75.5317 74.1652C75.2026 74.5635 74.7606 74.8528 74.264 74.9952C73.7673 75.1375 73.2392 75.1262 72.7491 74.9627V74.9627Z" fill="white"/>
<path d="M74.4241 84.1551C73.8519 83.9798 73.3268 83.677 72.8884 83.2695C72.45 82.862 72.1097 82.3605 71.8931 81.8025C71.6977 81.2512 71.6306 80.6626 71.6969 80.0814C71.7631 79.5003 71.961 78.9418 72.2755 78.4487C72.7421 77.718 73.466 77.1891 74.304 76.9666C74.7224 76.8606 75.1591 76.8482 75.5829 76.9302C76.0068 77.0123 76.4073 77.1867 76.756 77.4412C77.1757 77.8101 77.5105 78.2654 77.7374 78.776C77.9644 79.2866 78.0781 79.8403 78.0707 80.399C78.1621 81.4584 77.854 82.5138 77.2067 83.3576C76.8776 83.7559 76.4357 84.0452 75.939 84.1876C75.4424 84.3299 74.9142 84.3186 74.4241 84.1551V84.1551Z" fill="white"/>
<path d="M66.3995 80.2681C67.211 81.1103 67.663 82.2353 67.6597 83.4048C67.649 83.8956 67.5062 84.3743 67.2462 84.7907C66.9863 85.2071 66.619 85.5457 66.1828 85.7709C65.8426 85.9269 65.4745 86.0129 65.1003 86.024C64.7262 86.035 64.3537 85.9709 64.0048 85.8353C63.2072 85.5273 62.5502 84.9377 62.158 84.178C61.9421 83.7162 61.8258 83.2142 61.8167 82.7045C61.8077 82.1948 61.906 81.6889 62.1053 81.2197C62.239 80.8066 62.4645 80.4292 62.765 80.1158C63.0655 79.8025 63.4332 79.5613 63.8403 79.4104C64.3043 79.2973 64.7909 79.3177 65.2438 79.4695C65.6967 79.6213 66.0974 79.8982 66.3995 80.2681V80.2681Z" fill="white"/>
<path d="M40.621 87.1299C40.1385 86.7757 39.7427 86.3167 39.4632 85.7874C39.1837 85.2582 39.0279 84.6724 39.0074 84.0743C39.0047 83.4894 39.1354 82.9115 39.3896 82.3847C39.6438 81.8579 40.0148 81.396 40.4743 81.0341C41.1558 80.4982 42.0136 80.2376 42.878 80.3038C43.308 80.3418 43.7244 80.474 44.0975 80.6912C44.4705 80.9084 44.7911 81.2052 45.0364 81.5605C45.311 82.0471 45.4769 82.5874 45.5228 83.1442C45.5687 83.7011 45.4934 84.2613 45.3022 84.7863C45.0392 85.8167 44.4002 86.7114 43.5109 87.2945C43.0689 87.562 42.5563 87.6895 42.0404 87.6601C41.5246 87.6307 41.0298 87.4459 40.621 87.1299V87.1299Z" fill="white"/>
<path d="M42.8617 76.072C42.3792 75.7178 41.9834 75.2588 41.7039 74.7296C41.4244 74.2003 41.2686 73.6146 41.2481 73.0164C41.2454 72.4315 41.3762 71.8537 41.6303 71.3269C41.8845 70.8001 42.2555 70.3381 42.715 69.9762C43.3965 69.4403 44.2543 69.1797 45.1187 69.246C45.5488 69.2839 45.9651 69.4162 46.3382 69.6334C46.7112 69.8506 47.0318 70.1474 47.2771 70.5026C47.5517 70.9892 47.7176 71.5295 47.7635 72.0864C47.8094 72.6433 47.7342 73.2034 47.543 73.7285C47.2799 74.7588 46.6409 75.6535 45.7516 76.2367C45.3096 76.5042 44.797 76.6316 44.2811 76.6022C43.7653 76.5728 43.2705 76.388 42.8617 76.072V76.072Z" fill="white"/>
<path d="M79.3517 95.8978C79.1665 98.1485 78.616 100.354 77.7218 102.428C76.9401 104.379 75.4561 105.966 73.5621 106.878C73.5221 106.898 73.4718 106.918 73.4318 106.938C73.2819 106.998 73.1319 107.058 72.9718 107.118C72.3353 107.356 71.684 107.554 71.022 107.708C70.8516 107.748 70.6817 107.788 70.5015 107.828C68.6711 108.179 66.8149 108.38 64.9517 108.428C64.022 108.478 63.1016 108.508 62.2017 108.548C61.9317 108.548 61.6617 108.568 61.4019 108.578C59.5816 108.668 57.7618 108.738 55.9317 108.748C55.9219 108.758 55.922 108.748 55.922 108.748C55.9207 108.749 55.9191 108.75 55.9174 108.751C55.9157 108.752 55.9138 108.752 55.912 108.752C55.9101 108.752 55.9082 108.752 55.9065 108.751C55.9048 108.75 55.9032 108.749 55.9019 108.748C55.8625 108.758 55.8212 108.758 55.7818 108.748C55.739 108.756 55.6955 108.759 55.6519 108.758C52.8073 108.789 49.9631 108.666 47.132 108.388C46.1398 108.294 45.1607 108.093 44.212 107.788C43.6753 107.623 43.1587 107.398 42.672 107.118C42.2526 106.889 41.86 106.614 41.5016 106.298C40.9817 105.832 40.5456 105.281 40.2121 104.668C39.356 102.861 38.938 100.877 38.9919 98.8778C38.9821 98.5878 38.9719 98.2978 38.9719 97.9978C38.9519 97.3378 38.9621 96.6578 38.9621 95.9678C38.9621 95.7078 38.9621 95.4478 38.9719 95.1878V94.4178C38.9821 93.3978 39.0016 92.3778 39.0221 91.3578V91.0278C39.0621 89.0678 39.1218 87.0978 39.1921 85.1379C39.2219 84.2979 39.2516 83.4479 39.2917 82.6079C39.3019 82.2979 39.322 81.9979 39.3317 81.6879C39.3859 80.4947 39.5533 79.3094 39.8317 78.1479C39.8317 78.1465 39.8319 78.1452 39.8325 78.144C39.833 78.1427 39.8337 78.1416 39.8347 78.1407C39.8357 78.1398 39.8368 78.139 39.838 78.1386C39.8393 78.1381 39.8406 78.1378 39.8419 78.1379C39.8317 78.1279 39.8317 78.1279 39.8419 78.1279C40.1534 76.7515 40.7198 75.4457 41.5119 74.2779C41.9303 73.6531 42.4277 73.085 42.9919 72.5879C44.2384 71.5502 45.7408 70.8664 47.342 70.6079C49.4945 70.2939 51.6666 70.1335 53.842 70.1279C55.5016 70.0479 57.5319 69.8779 59.7121 69.7679C61.5016 69.6679 63.3918 69.6079 65.2516 69.6579C66.132 69.6779 67.0016 69.7279 67.8517 69.8079C68.0817 69.8279 68.3219 69.8579 68.5417 69.8879C69.112 69.9479 69.6618 70.0278 70.192 70.1379C71.8015 70.3883 73.3508 70.9341 74.7619 71.7479C75.287 72.0716 75.7735 72.4541 76.2121 72.8879C79.3317 76.0479 78.3219 80.9879 79.0719 85.6079C79.192 86.3579 79.3019 87.2279 79.382 88.1879V88.1979C79.3918 88.1979 79.3918 88.1979 79.382 88.2079C79.3857 88.2119 79.3885 88.2166 79.3902 88.2218C79.3919 88.227 79.3924 88.2325 79.3918 88.2379C79.6229 90.7866 79.6095 93.3516 79.3517 95.8978V95.8978Z" fill="black"/>
<path d="M33.4319 35.1679C33.2674 35.5905 32.9786 35.9534 32.6037 36.2087C32.2288 36.464 31.7853 36.5997 31.3318 36.5979C31.0485 36.5957 30.7678 36.545 30.5017 36.4479C28.0254 35.4826 25.6561 34.2627 23.4319 32.8079H23.4221C22.4519 32.1679 21.5418 31.5079 20.6819 30.8279C19.2663 29.7011 17.9391 28.4675 16.7122 27.1379C16.0417 26.4079 15.4222 25.6779 14.842 24.9379C15.5818 24.0579 16.3718 23.2179 17.1418 22.3979C17.4118 22.1079 17.6819 21.8279 17.9519 21.5479C18.6646 22.5023 19.4291 23.417 20.2419 24.2879C22.3348 26.5011 24.7362 28.4007 27.3718 29.9279C28.8311 30.7773 30.3522 31.516 31.9221 32.1379C31.9578 32.1564 31.9945 32.1731 32.0319 32.1879C32.0719 32.2079 32.1218 32.2179 32.1618 32.2379C32.5378 32.3851 32.8671 32.6309 33.1152 32.9494C33.3634 33.2679 33.5211 33.6473 33.572 34.0479C33.6238 34.427 33.5755 34.8131 33.4319 35.1679V35.1679Z" fill="white"/>
<path d="M62.2219 34.6779C62.031 35.0401 61.7447 35.3434 61.3941 35.5548C61.0434 35.7663 60.6416 35.878 60.2321 35.8779C59.8663 35.8761 59.5063 35.7869 59.1819 35.6179C57.0276 34.3472 54.9809 32.9024 53.0622 31.2979C52.0017 30.4579 50.8016 29.4579 49.4621 28.2979C47.9118 26.9479 46.1721 25.3679 44.2419 23.5279C40.0622 19.5379 38.1921 14.1779 37.4519 9.14787C37.2503 7.73221 37.1235 6.30689 37.072 4.87787C38.5304 4.08982 40.0405 3.40157 41.592 2.81787C41.5608 4.34417 41.6309 5.87087 41.802 7.38787C41.9873 9.16764 42.3423 10.9256 42.8621 12.6379C43.6858 15.5209 45.2352 18.1445 47.3621 20.2579C47.492 20.3879 47.6321 20.5179 47.762 20.6279C50.5818 23.3179 52.9622 25.3979 54.9119 26.9879C56.9123 28.7056 59.0495 30.2574 61.302 31.6279C61.4353 31.6995 61.5596 31.7868 61.6721 31.8879C62.0737 32.2166 62.3482 32.6749 62.4485 33.1841C62.5489 33.6932 62.4687 34.2214 62.2219 34.6779Z" fill="white"/>
<path d="M84.9918 34.8979V34.9079C85.0022 35.304 84.9089 35.696 84.7213 36.0451C84.5336 36.3941 84.2581 36.6881 83.9219 36.8979C83.8917 36.9179 83.8516 36.9379 83.8219 36.9579C83.7418 36.9979 83.6519 37.0379 83.5621 37.078C83.2965 37.1781 83.0158 37.2322 82.732 37.238C82.2778 37.2372 81.8341 37.1006 81.4581 36.8458C81.082 36.591 80.7908 36.2296 80.6217 35.808C80.3399 35.1331 80.0125 34.4783 79.6417 33.848C78.8917 32.528 77.8517 30.928 76.6817 29.158C75.7617 27.788 74.7515 26.318 73.7217 24.818C71.812 22.028 69.8315 19.138 67.9517 16.208C65.4219 12.268 64.6416 7.23796 64.5518 2.86796C64.5318 1.83796 64.5518 0.837959 64.5815 -0.092041C66.0918 -0.072041 67.6015 -0.0220416 69.1118 0.0479584C69.062 1.02796 69.0518 2.07796 69.0815 3.16796C69.1816 6.78796 69.8315 10.768 71.7617 13.768C71.8618 13.928 71.9717 14.088 72.0718 14.248C72.0718 14.258 72.0815 14.258 72.0918 14.268C73.8315 16.968 75.6719 19.658 77.4516 22.258C79.9051 25.6534 82.1687 29.1822 84.2319 32.828C84.4717 33.298 84.6719 33.738 84.8315 34.138C84.882 34.2533 84.9191 34.3741 84.9419 34.498C84.9683 34.6299 84.985 34.7635 84.9918 34.8979V34.8979Z" fill="white"/>
<path d="M99.9718 47.2479C99.8755 47.2595 99.7787 47.2662 99.6818 47.2679C99.132 47.2648 98.6021 47.0624 98.1902 46.6983C97.7783 46.3342 97.5125 45.8331 97.442 45.2879C97.4318 45.2479 97.192 43.2779 96.7218 40.0879C96.5719 39.0179 96.3819 37.8079 96.1818 36.4879C95.5417 32.4179 94.672 27.2979 93.6017 21.9079C92.5913 16.4766 92.2255 10.945 92.5119 5.42789C92.5622 4.42789 92.6217 3.47789 92.6818 2.58789C94.192 2.79789 95.6921 3.00789 97.1921 3.19789C96.9411 6.53871 96.901 9.89202 97.0719 13.2379C97.0719 13.2579 97.0817 13.2779 97.0817 13.2979C97.2151 15.8938 97.5327 18.477 98.0319 21.0279C99.422 28.0279 100.472 34.5679 101.132 39.0079C101.372 40.5879 101.552 41.8979 101.682 42.8679C101.842 44.0379 101.932 44.7079 101.932 44.7279C102.003 45.3215 101.838 45.9194 101.47 46.3913C101.103 46.8633 100.565 47.1711 99.9718 47.2479V47.2479Z" fill="white"/>
<path d="M123.962 15.7379C123.862 17.5179 123.752 19.5379 123.642 21.6279C123.222 29.1579 122.752 37.5779 122.612 39.0079C122.532 39.8279 122.432 40.6579 122.302 41.4679C122.304 41.4696 122.306 41.4719 122.308 41.4745C122.309 41.4771 122.31 41.48 122.31 41.4829C122.31 41.4858 122.309 41.4887 122.308 41.4913C122.306 41.4939 122.304 41.4962 122.302 41.4979C121.957 43.798 121.436 46.068 120.742 48.2879V48.2979C119.706 51.6589 118.248 54.8746 116.402 57.8679C115.459 59.4073 114.402 60.8747 113.242 62.2579C113.079 62.4502 112.887 62.6156 112.672 62.7479C112.322 62.9579 111.92 63.0685 111.512 63.0679C110.981 63.0703 110.466 62.8823 110.062 62.5379C109.835 62.3478 109.647 62.1146 109.51 61.8517C109.372 61.5888 109.288 61.3015 109.262 61.0061C109.236 60.7107 109.269 60.413 109.358 60.1302C109.447 59.8474 109.591 59.5849 109.782 59.3579C110.466 58.5422 111.107 57.691 111.702 56.8079C112.418 55.7709 113.073 54.6924 113.662 53.5779C116.131 48.9243 117.648 43.8248 118.122 38.5779C118.192 37.8079 118.382 34.6179 118.622 30.4579V30.4379C118.812 27.0879 119.032 23.1079 119.242 19.2579V19.2379C119.372 16.9779 119.492 14.7679 119.602 12.7479C119.662 11.4179 119.732 10.1779 119.792 9.05786C121.574 11.0141 122.987 13.2774 123.962 15.7379V15.7379Z" fill="white"/>
<path d="M132.312 55.0879C131.572 56.7579 130.712 58.4579 129.772 60.1579C127.42 64.3688 124.839 68.4482 122.042 72.3779C120.882 74.0279 119.772 75.5379 118.772 76.8879C116.092 80.4679 114.152 82.7979 114.092 82.8679C113.901 83.0948 113.757 83.3572 113.668 83.6401C113.578 83.9229 113.546 84.2205 113.572 84.516C113.598 84.8114 113.682 85.0988 113.819 85.3617C113.956 85.6246 114.144 85.8578 114.372 86.0479C114.776 86.3922 115.291 86.5802 115.822 86.5779C116.152 86.5775 116.478 86.5047 116.777 86.3648C117.076 86.2248 117.34 86.0211 117.552 85.7678C117.752 85.5378 119.002 84.0278 120.832 81.6578V81.6478C121.472 80.8378 122.152 79.9378 122.892 78.9378C124.792 76.3878 126.992 73.2978 129.172 69.9478C130.112 68.4978 131.052 66.9978 131.952 65.4778C131.857 62.0104 131.977 58.5404 132.312 55.0879V55.0879Z" fill="white"/>
<path d="M31.0786 31.401C32.272 32.2883 33.2643 33.4179 33.9904 34.7158C34.7165 36.0136 35.16 37.4503 35.2917 38.9316C35.608 41.466 35.608 44.0298 35.2917 46.5641L36.7164 45.6821L37.0536 32.8257L36.3357 29.4907L31.0786 31.401Z" fill="black"/>
<path d="M84.1392 28.896C84.1392 28.896 84.6819 35.868 83.2572 39.5709C81.8324 43.2738 81.0862 45.0046 81.0862 45.0046L86.7172 34.341L85.2541 28.896L84.1392 28.896Z" fill="black"/>
<path d="M56.5423 76.1155C56.9741 75.9636 57.4301 75.8918 57.8878 75.9038C60.2814 75.8255 62.6759 75.7863 65.0713 75.7864C67.4157 75.7189 69.7608 75.8925 72.0696 76.3045C72.4553 76.3542 72.8206 76.5066 73.1273 76.7458C73.4703 77.146 73.6635 77.653 73.674 78.1801C74.2323 82.5317 74.3036 86.932 73.8865 91.2994C73.9033 91.6221 73.8424 91.9441 73.709 92.2384C73.5755 92.5327 73.3734 92.7906 73.1197 92.9906C72.9188 93.0787 72.7011 93.1219 72.4818 93.1173C72.2625 93.1126 72.0469 93.0602 71.85 92.9636C70.3462 92.342 69.6776 90.6328 69.0403 89.1356C68.3106 87.4214 67.427 85.7777 66.5385 84.1402C66.1264 83.2503 65.5317 82.4571 64.7932 81.812C64.0824 81.3499 63.2866 81.0343 62.4524 80.8834C60.7847 80.5702 59.1555 80.0782 57.5933 79.4158C56.5393 78.9031 54.6023 77.0694 56.4463 76.1594C56.4779 76.1438 56.5099 76.1292 56.5423 76.1155Z" fill="white"/>
</g>
<defs>
<clipPath id="clip0">
<rect width="133" height="139" fill="white"/>
</clipPath>
</defs>
</svg>
