<svg width="145" height="145" viewBox="0 0 145 145" fill="none" xmlns="http://www.w3.org/2000/svg">
<path d="M104.65 137.38C100.94 136.685 97.2679 135.797 93.65 134.72C83.65 131.26 73.65 127.9 64.72 122.01C55.6644 115.918 47.2837 108.878 39.72 101.01C32.4164 93.7061 25.9559 85.6054 20.46 76.86C16.46 70.32 13.71 63.21 11.24 55.99C9.58601 51.5294 8.21003 46.9707 7.11996 42.34C5.34996 33.83 7.33996 25.82 11.56 18.34C12.9084 16.0126 14.3909 13.7655 16 11.61C17.8856 8.84915 20.7418 6.89977 24 6.14997C27.5 5.37997 31 4.73997 34.57 4.14997C35.2867 4.03093 36.0228 4.13726 36.6765 4.4543C37.3303 4.77133 37.8696 5.28344 38.22 5.91997C39.12 7.33997 40.03 8.76997 40.85 10.24C44 15.84 47.05 21.47 50.22 27C51.22 28.73 52.44 30.31 53.5 32C55.64 35.45 55.59 37.34 52.8 40.27C50.62 42.55 48.12 44.52 45.8 46.61C43.89 48.31 41.95 49.97 40.05 51.69C37.9 53.69 37.26 55.94 38.76 58.56C41.04 62.56 43.27 66.56 45.76 70.43C54.1678 83.5764 65.7685 94.379 79.48 101.83C81.7 103.07 83.93 104.32 86.2 105.47C87.0234 105.94 87.9831 106.112 88.9186 105.959C89.8541 105.807 90.7088 105.337 91.34 104.63C93.34 102.63 95.24 100.46 97.15 98.33C99.27 95.98 101.21 93.47 103.46 91.26C106.51 88.26 108.39 88.26 112.04 90.4C119.55 94.8 127.1 99.13 134.62 103.5C135.625 104.005 136.583 104.601 137.48 105.28C138.338 106.103 139.133 106.989 139.86 107.93V111.32C139.42 113.38 139 115.45 138.54 117.5C137.66 121.38 136.17 124.89 132.93 127.5C128.45 131.2 123.299 134.005 117.76 135.76C115.38 136.48 112.89 136.85 110.45 137.37L104.65 137.38Z" fill="#FFD500" stroke="black" stroke-width="2.83" stroke-linecap="round" stroke-linejoin="round"/>
</svg>
