<svg width="92" height="137" viewBox="0 0 92 137" fill="none" xmlns="http://www.w3.org/2000/svg">
<path d="M46.6255 2.36199C47.8876 2.35306 49.1493 2.41017 50.4054 2.53308L50.4778 2.54042C52.7962 2.77555 55.0948 3.17606 57.356 3.73888C61.4583 4.75825 65.3828 6.39203 68.9965 8.58481C70.8198 9.69208 72.5616 10.9282 74.2087 12.2839C74.443 12.4763 74.6755 12.6711 74.9061 12.868C82.3436 19.1272 87.4665 27.7003 89.4551 37.2155C90.8186 43.2077 90.7059 49.4415 89.1268 55.3806C86.7787 63.641 83.6125 71.6465 79.6751 79.2783C70.0794 98.6242 58.7795 116.97 46.7906 134.905C46.6969 135.045 46.5765 135.168 46.3985 135.383C46.1874 135.125 45.9881 134.919 45.8312 134.684C34.0248 117.045 22.9202 98.9856 13.4318 79.9769C9.48609 72.3507 6.27426 64.3667 3.83961 56.1326C1.17591 46.6381 2.23627 37.4687 6.12313 28.5845C9.88263 19.9025 16.3972 12.7004 24.6598 8.09159C30.2712 4.83898 36.5575 2.925 43.0294 2.49859C44.2273 2.41946 45.4261 2.36657 46.6255 2.36199ZM46.2637 68.9745C50.7946 68.9951 55.2298 67.6721 59.009 65.1727C62.7881 62.6733 65.7415 59.1097 67.4959 54.9322C69.2503 50.7547 69.7268 46.1509 68.8654 41.7026C68.004 37.2544 65.8432 33.1613 62.6562 29.9408C59.4691 26.7202 55.3989 24.5168 50.9599 23.6088C46.5209 22.7009 41.9123 23.1293 37.7167 24.8399C33.5211 26.5505 29.9268 29.4664 27.388 33.2192C24.8492 36.972 23.4799 41.3932 23.4531 45.924C23.4305 52.0028 25.8188 57.8426 30.0947 62.1634C34.3705 66.4842 40.185 68.9336 46.2637 68.9745V68.9745Z" fill="#41B6E6" stroke="black" stroke-width="2.83465" stroke-linecap="round" stroke-linejoin="round"/>
</svg>
