<svg width="110" height="143" viewBox="0 0 110 143" fill="none" xmlns="http://www.w3.org/2000/svg">
<path d="M55.2606 5C56.5206 5 57.7806 5 59.0406 5.17H59.1106C61.429 5.41002 63.7278 5.81099 65.9906 6.37C68.0376 6.88647 70.0431 7.55499 71.9906 8.37C73.9371 9.18227 75.822 10.1348 77.6306 11.22C79.4503 12.332 81.1911 13.5683 82.8406 14.92L83.5406 15.51C90.9763 21.7719 96.099 30.345 98.0906 39.86C99.447 45.8513 99.3337 52.0819 97.7606 58.02C95.411 66.2803 92.2454 74.2864 88.3106 81.92C78.7106 101.26 67.4106 119.61 55.4206 137.55C55.3003 137.714 55.17 137.871 55.0306 138.02C54.8206 137.76 54.6206 137.56 54.4606 137.32C42.6306 119.64 31.5506 101.64 22.0606 82.64C18.1181 75.0106 14.9071 67.025 12.4706 58.79C9.81059 49.3 10.8706 40.13 14.7506 31.24C18.513 22.5595 25.0283 15.3589 33.2906 10.75C38.8923 7.49719 45.1677 5.57763 51.6306 5.14C52.8606 5.06 54.0606 5.01 55.2606 5ZM54.8906 71.64C59.4249 71.6617 63.8639 70.338 67.6457 67.8363C71.4276 65.3346 74.3824 61.7674 76.1363 57.5859C77.8903 53.4045 78.3646 48.7967 77.4991 44.3457C76.6337 39.8946 74.4674 35.8003 71.2744 32.5807C68.0814 29.3612 64.0052 27.161 59.5615 26.2587C55.1178 25.3563 50.5063 25.7923 46.3104 27.5116C42.1145 29.2308 38.5229 32.1559 35.9899 35.9169C33.457 39.6778 32.0965 44.1056 32.0806 48.64C32.0804 54.7072 34.4775 60.5287 38.7498 64.8366C43.0222 69.1446 48.8236 71.5899 54.8906 71.64V71.64Z" fill="#FFD500" stroke="black" stroke-width="2.83" stroke-linecap="round" stroke-linejoin="round"/>
</svg>
