<svg width="137" height="137" viewBox="0 0 137 137" fill="none" xmlns="http://www.w3.org/2000/svg">
<path d="M99.6453 135.383C95.956 134.68 92.3044 133.792 88.7041 132.723C78.732 129.261 68.7027 125.902 59.7707 120.012C50.6947 113.915 42.298 106.863 34.7242 98.9765C27.4173 91.6773 20.9563 83.5779 15.4637 74.8315C11.4501 68.2867 8.70589 61.1804 6.2388 53.965C4.58649 49.5042 3.2119 44.9455 2.1229 40.3149C0.349993 31.7976 2.34203 23.7874 6.56238 16.3116C7.91291 13.9917 9.39753 11.7524 11.0087 9.6053C12.8927 6.84971 15.7424 4.9016 18.9939 4.14639C22.4933 3.38202 26.0228 2.74252 29.5572 2.15785C30.2741 2.03948 31.01 2.14654 31.6634 2.46424C32.3168 2.78195 32.8556 3.29464 33.2052 3.93155C34.1142 5.35336 35.0179 6.78222 35.8434 8.25322C38.9802 13.8432 42.053 19.4693 45.2194 25.0424C46.2014 26.7709 47.4445 28.3489 48.4972 30.0399C50.6436 33.4874 50.5947 35.3757 47.7977 38.3073C45.6233 40.5863 43.1241 42.5562 40.761 44.6543C38.8496 46.3513 36.9078 48.0143 35.0127 49.729C32.8579 51.6786 32.2209 53.9811 33.7188 56.5992C35.9974 60.582 38.2266 64.6 40.68 68.4745C49.0882 81.6179 60.688 92.4178 74.3977 99.867C76.6237 101.112 78.8488 102.364 81.1249 103.512C81.948 103.982 82.9073 104.154 83.8424 104.001C84.7775 103.848 85.6319 103.379 86.2627 102.672C88.2626 100.635 90.1637 98.4985 92.0732 96.3741C94.1857 94.0238 96.1311 91.5076 98.3822 89.3013C101.431 86.3137 103.314 86.2988 106.964 88.4408C114.468 92.8445 122.015 97.1739 129.541 101.54C130.547 102.047 131.505 102.643 132.404 103.32C133.259 104.147 134.053 105.034 134.78 105.974V109.357C134.341 111.419 133.925 113.486 133.459 115.542C132.582 119.417 131.088 122.929 127.853 125.508C123.371 129.206 118.222 132.01 112.684 133.77C110.302 134.492 107.812 134.856 105.371 135.383H99.6453Z" fill="#41B6E6" stroke="black" stroke-width="2.83465" stroke-linecap="round" stroke-linejoin="round"/>
</svg>
