<svg width="123" height="159" viewBox="0 0 123 159" fill="none" xmlns="http://www.w3.org/2000/svg">
<g clip-path="url(#clip0)">
<path d="M40.3657 32.9132C39.9176 32.9134 39.4798 32.7784 39.1097 32.5258C37.0269 31.13 35.3187 29.2442 34.135 27.0339C32.1967 23.267 33.1356 18.4765 36.4715 15.1149C42.2733 9.26601 38.6962 4.23594 38.5402 4.02454C38.1895 3.54692 38.043 2.94957 38.1327 2.36389C38.2225 1.7782 38.5413 1.25217 39.0189 0.901514C39.4965 0.550854 40.0939 0.404289 40.6795 0.494062C41.2652 0.583835 41.7913 0.902591 42.1419 1.38021C44.2383 4.23439 46.4137 11.4363 39.6433 18.2616C38.0046 19.9126 36.8953 22.6334 38.1082 24.9909C38.9489 26.5399 40.1567 27.859 41.6258 28.8327C42.0205 29.1018 42.3185 29.4903 42.4762 29.9412C42.6339 30.3921 42.643 30.8817 42.502 31.3381C42.3611 31.7945 42.0775 32.1938 41.6931 32.4772C41.3086 32.7607 40.8434 32.9135 40.3657 32.9132H40.3657Z" fill="black"/>
<path d="M58.4697 32.9295C58.0216 32.9297 57.5838 32.7945 57.2137 32.5416C55.1317 31.1457 53.4236 29.2606 52.2391 27.0513C50.3017 23.2823 51.2406 18.4924 54.5756 15.1313C60.1987 9.46401 57.0147 4.56527 56.633 4.02502C56.2908 3.5456 56.1518 2.95046 56.2462 2.36908C56.3406 1.7877 56.6607 1.26711 57.137 0.920564C57.6132 0.57402 58.2071 0.42956 58.7893 0.518613C59.3715 0.607665 59.8951 0.923025 60.246 1.39608C62.3423 4.25128 64.5188 11.4532 57.7463 18.2785C56.1096 19.9285 54.9994 22.6493 56.2122 25.0078C57.0537 26.5563 58.2614 27.8752 59.7298 28.8496C60.1245 29.1186 60.4226 29.5071 60.5804 29.958C60.7381 30.4089 60.7472 30.8985 60.6062 31.3549C60.4652 31.8113 60.1817 32.2105 59.7972 32.4939C59.4126 32.7773 58.9474 32.93 58.4697 32.9295L58.4697 32.9295Z" fill="black"/>
<path d="M76.4024 32.9459C75.9541 32.9461 75.5163 32.8108 75.1464 32.5575C73.0644 31.1617 71.3564 29.2767 70.1717 27.0677C68.2344 23.2997 69.1733 18.5098 72.5072 15.1482C78.1314 9.47989 74.9473 4.58115 74.5656 4.04089C74.2234 3.56147 74.0844 2.96633 74.1788 2.38495C74.2732 1.80357 74.5934 1.28298 75.0696 0.936433C75.5459 0.58989 76.1397 0.44543 76.722 0.534482C77.3042 0.623535 77.8277 0.938895 78.1786 1.41195C80.275 4.26715 82.4514 11.469 75.6789 18.2949C74.0423 19.9454 72.933 22.6662 74.1449 25.0242C74.9868 26.5725 76.1943 27.8916 77.6625 28.8665C78.0572 29.1355 78.3554 29.5239 78.5132 29.9748C78.6709 30.4256 78.68 30.9152 78.539 31.3716C78.398 31.828 78.1145 32.2272 77.7299 32.5105C77.3453 32.7939 76.8801 32.9465 76.4024 32.9459H76.4024Z" fill="black"/>
<path d="M23.1209 150.133C18.624 151.941 15.9032 150.998 12.8788 145.577C11.6054 143.295 9.66415 141.342 8.15794 139.16C5.02094 134.618 4.7836 128.915 2.01474 123.038C-1.47418 115.633 3.25453 109.527 2.29509 102.869C1.45424 97.0348 0.318969 91.2242 -0.210861 85.3681C-0.635601 80.6739 0.110505 75.8664 0.326535 71.1814C0.539693 67.8832 0.927129 64.5986 1.48721 61.3414C1.69951 59.9531 1.33527 57.9913 2.19921 57.115C11.1314 48.056 21.7395 42.1096 35.397 41.9169C37.6768 41.8137 39.9173 41.2856 42.0033 40.3599C46.6499 37.9938 52.0053 37.4221 57.0468 38.7539C63.645 40.2288 70.7599 39.5768 77.6336 40.0684C82.4978 40.4163 87.3398 41.089 92.1774 41.7157C93.26 41.8295 94.2987 42.2044 95.2044 42.8082C99.7509 46.1891 104.323 49.557 108.627 53.1958C110.099 54.4407 110.693 56.5434 111.912 58.1021C114.096 60.8928 116.492 63.5392 118.719 66.302C120.235 68.1832 120.678 72.0609 120.766 74.0408C121.076 80.9841 121.563 87.3919 120.591 94.2579C119.667 100.782 117.986 103.016 121.941 109.586C123.425 112.053 121.2 119.453 120.859 122.835C120.677 124.647 121.656 125.9 121.489 127.713C121.227 129.82 120.777 131.9 120.147 133.928C117.186 140.65 115.618 140.299 111.123 146.009C108.093 149.857 101.888 152.545 96.6053 153.566C90.6885 154.708 85.1496 160.251 78.364 155.974C74.3028 161.125 68.3198 157.892 63.3185 158.58C59.4363 159.114 55.2193 157.33 51.1153 156.858C45.6052 156.224 40.3244 154.641 34.4593 155.354C31.5154 155.712 28.0579 152.543 23.1209 150.133ZM113.257 139.044C112.697 137.824 111.877 136.04 110.905 133.924C117.636 131.807 118.537 128.353 113.879 124.073C120.565 116.752 120.622 115.059 116.433 106.223C115.519 104.295 115.889 101.722 116.093 99.4812C116.931 90.2776 116.767 84.8422 117.464 75.63C117.551 74.482 117.039 69.4555 116.32 68.5027C110.257 75.1742 109.038 85.1179 97.636 86.3034C95.1665 86.5602 92.826 87.7532 90.3924 88.4082C85.9234 89.6111 80.0148 89.457 77.2218 92.1405C70.0213 99.0588 63.7384 97.0174 57.6241 92.8763C54.8992 93.5137 52.7507 94.668 50.9211 94.3222C45.4113 93.2806 40.0495 91.5652 34.5835 90.2885C30.8341 89.4127 27.5847 86.6244 22.9646 88.7882C21.3228 89.5572 17.402 87.9261 15.6456 86.3225C12.0176 83.0101 9.14462 78.9802 5.78874 75.0434C-0.0641913 81.233 5.73774 84.3797 7.4183 88.2132C6.45668 90.9916 6.54713 93.7001 6.50143 96.4059C6.43089 100.581 7.51181 105.261 5.8623 108.815C3.12843 114.706 1.73772 119.199 10.8529 121.808C4.75275 126.166 6.27013 129.153 11.4731 131.262C6.07915 140.171 14.437 138.959 17.6424 144.6C18.3328 145.815 24.173 144.509 28.3018 144.337C29.5259 146.404 31.164 149.17 33.0308 152.322C37.1455 149.601 40.8004 145.466 44.5955 151.551C44.6842 151.694 45.7503 151.143 46.3085 151.227C51.4652 151.999 56.6106 152.84 62.6125 153.796C64.7658 150.344 68.1172 149.224 70.425 152.808C74.5011 152.33 77.8163 150.979 80.1041 151.889C83.9056 153.402 86.1272 154.22 87.2894 149.55C87.5034 148.69 90.2365 147.41 90.6904 147.725C97.2358 152.264 98.0093 146.115 100.805 143.757C103.433 143.653 106.267 143.357 107.794 141.886C109.659 140.087 111.546 142.29 113.257 139.044ZM6.70217 61.2638C6.60776 63.2951 6.33093 65.3139 5.87503 67.2956C4.81181 70.9197 9.25392 77.7215 12.7031 76.7164C17.8844 75.2064 17.5897 77.8672 17.8654 80.9907C18.227 85.0882 20.4691 86.0953 23.9023 83.3757C26.7409 81.1269 28.5511 80.5673 31.2907 84.0086C32.8588 85.9783 36.5899 86.5863 39.4609 87.4896C41.6645 88.0148 43.8936 88.4263 46.1395 88.7225C48.0765 89.1153 51.4174 90.415 51.6908 89.978C55.6237 83.6925 58.3569 88.4837 61.3146 90.7353C66.7212 94.8511 69.265 94.3045 72.1742 88.3919C72.6036 87.7173 73.106 87.092 73.6723 86.5274L74.1995 87.9802C78.148 87.2442 82.2067 86.8221 86.0122 85.679C89.4499 84.6465 92.9544 81.175 95.8202 81.7056C101.322 82.7242 102.255 80.1996 103.389 76.6734C103.69 75.6988 104.271 74.8342 105.059 74.1867C109.847 70.6004 111.157 63.9233 106.681 57.208C104.728 54.2795 99.9242 52.9919 96.4153 50.9591L96.2909 51.1126C96.1358 51.3141 95.9306 51.4713 95.6958 51.5688C95.461 51.6662 95.2048 51.7004 94.9526 51.668C94.7005 51.6356 94.4613 51.5376 94.2588 51.3839C94.0563 51.2302 93.8976 51.0261 93.7986 50.792C93.7701 50.7092 93.7527 50.623 93.7469 50.5357C93.4152 44.9691 90.3403 44.079 85.3812 45.9889C84.5848 46.3667 83.6828 46.4594 82.8263 46.2513C72.7525 41.533 61.3816 46.9065 51.2293 42.5547C50.5028 42.3008 49.7244 42.2324 48.9648 42.3556C48.2051 42.4788 47.4883 42.7898 46.8793 43.2603C41.274 47.898 34.0632 46.5543 27.6212 47.9998C25.2707 48.5273 22.9103 49.039 20.6034 49.7031C18.6079 50.2774 16.1674 50.5837 14.8301 51.8434C11.898 54.6056 9.54034 57.8969 6.70217 61.2638Z" fill="black"/>
<path d="M113.257 139.044C111.546 142.29 109.659 140.087 107.794 141.886C106.267 143.357 103.433 143.653 100.805 143.757C98.0094 146.115 97.2358 152.264 90.6905 147.725C90.2366 147.41 87.5035 148.69 87.2895 149.55C86.1273 154.22 83.9056 153.402 80.1042 151.889C77.8163 150.979 74.5012 152.33 70.4251 152.808C68.1173 149.224 64.7658 150.344 62.6125 153.796C56.6106 152.84 51.4653 151.999 46.3085 151.227C45.7503 151.143 44.6843 151.694 44.5955 151.551C40.8005 145.466 37.1456 149.601 33.0308 152.322C31.164 149.17 29.5259 146.403 28.3019 144.337C24.173 144.509 18.3329 145.815 17.6425 144.6C14.4371 138.958 6.07919 140.171 11.4732 131.262C6.2702 129.153 4.7528 126.166 10.853 121.808C1.73777 119.199 3.12849 114.706 5.86236 108.815C7.51187 105.261 6.43095 100.581 6.50149 96.4059C6.54719 93.7001 6.45674 90.9916 7.41836 88.2132C5.73784 84.3797 -0.0641353 81.233 5.78879 75.0434C9.14465 78.9802 12.0177 83.0101 15.6457 86.3225C17.4021 87.9261 21.3229 89.5572 22.9647 88.7882C27.5848 86.6243 30.8342 89.4126 34.5835 90.2884C40.0495 91.5652 45.4114 93.2806 50.9212 94.3222C52.7507 94.668 54.8992 93.5137 57.6241 92.8763C63.7385 97.0173 70.0213 99.0587 77.2219 92.1404C80.0148 89.457 85.9234 89.6111 90.3924 88.4082C92.826 87.7532 95.1666 86.5602 97.636 86.3034C109.038 85.1179 110.257 75.1741 116.32 68.5027C117.039 69.4555 117.629 73.4031 117.542 74.5511C116.846 83.7632 116.931 90.2776 116.093 99.4811C115.889 101.722 115.519 104.295 116.433 106.223C120.622 115.059 120.565 116.752 113.879 124.073C118.537 128.353 117.636 131.807 110.906 133.924C111.877 136.04 112.697 137.824 113.257 139.044ZM96.4813 131.646C95.8238 131.582 95.1663 131.517 94.5088 131.452C94.9872 129.138 86.2756 137.085 86.9043 137.473C84.0806 138.107 81.1256 133.631 79.2466 133.922C77.7314 134.157 76.1671 134.125 74.6245 134.211C78.8284 135.534 83.2351 136.094 87.6362 135.865C89.7773 135.788 92.8489 135.331 93.7596 134.005C95.1072 132.042 96.0229 134.141 96.4813 131.646V131.646ZM16.9032 96.7154C15.4675 97.0503 13.2335 97.5715 10.9995 98.0927L10.0531 96.7696C11.1559 95.1174 12.2588 93.4652 13.6221 91.4227C9.39828 92.5103 6.90342 94.8199 9.55913 97.8919C11.9299 100.634 16.0062 102.18 19.5206 103.916C20.1723 104.238 21.7308 102.957 22.1708 102.748C20.2872 100.591 18.7462 98.8259 16.9032 96.7154ZM26.2792 116.674C24.1549 122.806 25.7247 124.723 32.163 123.821C33.365 123.777 34.5656 123.938 35.7137 124.297C41.2086 125.499 43.1381 123.664 42.243 118.038C38.416 124.227 37.7216 124.33 34.3779 119.532C32.4505 120.601 30.5312 121.666 28.6201 122.726C27.8538 120.745 27.0876 118.764 26.2792 116.674V116.674ZM78.6902 98.0417C77.1888 97.8823 75.6875 97.7229 74.1862 97.5635C73.8967 100.517 73.5662 103.469 73.4844 106.429C74.6654 106.677 75.868 106.808 77.0747 106.821C77.7715 103.928 78.2062 100.98 78.6902 98.0417ZM90.6066 114.408C89.1983 114.272 87.7901 114.135 86.3819 113.999C86.0533 116.775 85.664 119.549 85.588 122.333C87.0077 122.574 88.4386 122.745 89.8753 122.843L90.6066 114.408ZM29.9829 111.983C33.1977 108.213 33.0573 105.035 28.6177 102.007C24.832 107.552 25.0796 109.251 29.9829 111.983H29.9829ZM59.177 111.56C57.1247 109.67 55.7775 108.428 54.4302 107.187C53.3291 108.673 51.4217 110.13 51.3658 111.654C51.3154 113.029 53.2914 114.478 54.3737 115.894C55.7363 114.665 57.0989 113.435 59.177 111.56L59.177 111.56ZM52.0321 132.781L50.2205 129.554C49.0011 128.188 47.7818 126.822 46.5625 125.456C45.3639 126.998 43.439 128.447 43.2002 130.113C43.0148 131.407 44.729 133.957 45.9652 134.186C47.819 134.528 49.9938 133.326 52.0321 132.781L52.0321 132.781ZM99.2505 127.388C101.058 129.368 102.247 130.67 103.436 131.973C104.75 130.613 106.933 129.355 107.126 127.865C107.308 126.453 105.404 124.797 104.417 123.248L99.2505 127.388ZM21.8084 126.705C19.5358 124.722 18.074 123.447 16.6122 122.172C15.5978 123.2 13.5512 124.501 13.7687 125.204C14.3468 127.073 15.9013 128.685 17.0675 130.399C18.2793 129.455 19.4911 128.51 21.8084 126.705L21.8084 126.705ZM111.854 115.711C112.72 115.637 113.586 115.564 114.452 115.49C114.347 112.53 114.242 109.571 114.137 106.611C108.288 109.594 108.261 112.614 111.854 115.711L111.854 115.711ZM95.6757 98.2542C95.9121 99.3786 96.1485 100.503 96.3848 101.627C99.5673 101.435 103.299 102.095 105.732 100.74C107.259 99.8907 106.834 96.0168 107.285 93.4997L104.99 92.7551C104.724 98.2065 103.276 102.151 95.6757 98.2542ZM82.2971 148.257C83.8911 145.384 85.1751 143.819 85.5331 142.084C85.6925 141.311 83.9866 140.196 83.1273 139.237C81.7892 140.555 79.9287 141.694 79.3176 143.261C78.9757 144.137 80.7052 145.724 82.2971 148.257ZM52.6532 148.151L56.1545 149.093C56.9128 146.901 57.4789 144.649 57.8465 142.359C57.894 141.861 55.6805 141.165 54.5082 140.56C53.8899 143.09 53.2716 145.621 52.6532 148.151V148.151Z" fill="white"/>
<path d="M6.7021 61.2639C9.54027 57.8969 11.8979 54.6057 14.8301 51.8435C16.1673 50.5838 18.6079 50.2775 20.6034 49.7032C22.9104 49.0391 25.2707 48.5274 27.6212 47.9999C34.0746 46.5518 41.2994 47.9028 46.9089 43.2359C47.5428 42.8155 48.2605 42.5381 49.0124 42.423C49.7642 42.3078 50.5321 42.3577 51.2628 42.5691C61.4065 46.8948 72.7635 41.5382 82.8263 46.2515C83.6828 46.4595 84.5848 46.3668 85.3811 45.989C90.3403 44.0791 93.4151 44.9692 93.7469 50.5358C93.7879 51.2238 94.6518 51.8732 95.1344 52.5405L96.4152 50.9592C99.9242 52.992 104.728 54.2796 106.681 57.2081C111.157 63.9234 109.847 70.6005 105.059 74.1868C104.271 74.8343 103.69 75.6989 103.389 76.6735C102.255 80.1997 101.322 82.7243 95.8202 81.7057C92.9543 81.1752 89.4499 84.6466 86.0122 85.6791C82.2067 86.8221 78.148 87.2443 74.1995 87.9803L73.6723 86.5275C73.106 87.0921 72.6036 87.7174 72.1742 88.392C69.265 94.3046 66.7212 94.8512 61.3146 90.7354C58.3569 88.4838 55.6237 83.6926 51.6908 89.9781C51.4174 90.4151 48.0765 89.1154 46.1395 88.7226C43.8936 88.4264 41.6644 88.0149 39.4608 87.4897C36.5899 86.5864 32.8587 85.9784 31.2907 84.0087C28.5511 80.5674 26.7409 81.127 23.9022 83.3758C20.4691 86.0954 18.227 85.0883 17.8654 80.9908C17.5897 77.8673 17.8843 75.2065 12.7031 76.7165C9.25389 77.7216 4.8118 70.9198 5.87502 67.2957C6.3309 65.314 6.60771 63.2953 6.7021 61.2639V61.2639Z" fill="white"/>
<path d="M16.9032 96.7156C18.7462 98.826 20.2872 100.591 22.1708 102.748C21.7308 102.957 20.1723 104.238 19.5206 103.916C16.0062 102.18 11.9299 100.634 9.55914 97.892C6.90342 94.82 9.39827 92.5105 13.6221 91.4229C12.2588 93.4653 11.1559 95.1175 10.0531 96.7698L10.9995 98.0929C13.2335 97.5717 15.4675 97.0505 16.9032 96.7156Z" fill="black"/>
<path d="M26.2792 116.674C27.0876 118.764 27.8538 120.745 28.6201 122.726C30.5353 121.664 32.4546 120.599 34.3779 119.532C37.7216 124.33 38.416 124.227 42.243 118.038C43.1381 123.664 41.2086 125.499 35.7137 124.297C34.5656 123.938 33.365 123.777 32.163 123.821C25.7247 124.723 24.1549 122.806 26.2792 116.674Z" fill="black"/>
<path d="M71.9321 129.817C73.4967 131.421 74.9797 132.942 76.4628 134.463C77.8066 132.734 79.1532 131.001 80.5028 129.264C85.4625 132.362 86.0606 131.994 87.1483 124.8C90.1819 129.622 89.1285 132.067 83.603 133.12C82.4064 133.242 81.2392 133.566 80.1512 134.078C74.585 137.437 72.3879 136.291 71.9321 129.817Z" fill="black"/>
<path d="M78.6902 98.0417C78.2062 100.98 77.7716 103.928 77.0747 106.821C75.868 106.808 74.6654 106.677 73.4844 106.429C73.5663 103.469 73.8967 100.517 74.1862 97.5635C75.6875 97.7229 77.1889 97.8823 78.6902 98.0417Z" fill="black"/>
<path d="M90.6064 114.408L89.8752 122.843C88.4384 122.745 87.0076 122.574 85.5879 122.333C85.6639 119.55 86.0531 116.775 86.3817 113.999C87.7899 114.135 89.1982 114.272 90.6064 114.408Z" fill="black"/>
<path d="M29.9829 111.983C25.0795 109.251 24.8319 107.551 28.6176 102.007C33.0572 105.035 33.1976 108.213 29.9829 111.983Z" fill="black"/>
<path d="M59.1769 111.56C57.0988 113.435 55.7362 114.665 54.3736 115.894C53.2913 114.478 51.3153 113.029 51.3657 111.654C51.4216 110.13 53.329 108.673 54.4301 107.188C55.7774 108.429 57.1246 109.67 59.1769 111.56Z" fill="black"/>
<path d="M52.0321 132.781C49.9938 133.326 47.819 134.528 45.9651 134.186C44.7289 133.957 43.0147 131.407 43.2001 130.113C43.439 128.447 45.3638 126.998 46.5624 125.456C47.7818 126.822 49.0011 128.188 50.2204 129.553L52.0321 132.781Z" fill="black"/>
<path d="M99.2505 127.388L104.417 123.248C105.404 124.797 107.308 126.453 107.126 127.865C106.933 129.355 104.75 130.613 103.436 131.973C102.247 130.67 101.058 129.368 99.2505 127.388Z" fill="black"/>
<path d="M21.8082 126.705C19.4909 128.51 18.2791 129.455 17.0674 130.399C15.9012 128.685 14.3466 127.073 13.7685 125.204C13.551 124.501 15.5976 123.2 16.6121 122.172C18.0739 123.447 19.5356 124.722 21.8082 126.705Z" fill="black"/>
<path d="M111.854 115.711C108.261 112.614 108.288 109.594 114.137 106.611C114.242 109.571 114.347 112.53 114.452 115.49C113.586 115.564 112.72 115.637 111.854 115.711Z" fill="black"/>
<path d="M95.6758 98.2543C103.276 102.151 104.724 98.2066 104.99 92.7551L107.285 93.4997C106.834 96.0168 107.259 99.8908 105.732 100.741C103.299 102.095 99.5673 101.435 96.3848 101.628C96.1485 100.503 95.9121 99.3787 95.6758 98.2543Z" fill="black"/>
<path d="M82.297 148.257C80.7051 145.724 78.9756 144.137 79.3176 143.26C79.9286 141.694 81.7892 140.555 83.1273 139.237C83.9866 140.196 85.6924 141.311 85.533 142.084C85.175 143.819 83.8911 145.384 82.297 148.257Z" fill="black"/>
<path d="M52.6531 148.151C53.2714 145.621 53.8897 143.09 54.5081 140.56C55.6803 141.165 57.8939 141.861 57.8464 142.359C57.4788 144.648 56.9127 146.901 56.1544 149.093L52.6531 148.151Z" fill="black"/>
<path d="M68.2351 72.9236C65.7925 73.5616 63.3527 74.693 60.9066 74.6932C58.5399 74.6454 56.2376 73.9143 54.277 72.5879C53.7234 72.2005 54.8281 68.951 55.9127 67.4899C58.3415 64.2175 60.6043 59.9286 64.1011 58.4896C68.3169 56.7548 73.9405 56.6822 78.551 57.6307C80.6168 58.0557 83.5464 63.3231 82.801 65.3119C81.6596 68.3574 77.917 70.7786 74.8025 72.8443C73.2323 73.8858 70.6155 73.5633 68.472 73.8576L68.2351 72.9236Z" fill="black"/>
<path d="M26.5004 64.7763C25.8848 60.4621 30.8194 57.0384 33.3933 55.7497C40.2559 52.3136 47.6378 51.6228 54.7306 51.8445C62.3134 52.0815 69.942 52.8956 77.1889 55.5527C80.5258 56.7762 83.8594 58.439 86.3774 61.5712C86.8901 62.128 87.2737 62.7911 87.5009 63.5132C87.728 64.2352 87.7932 64.9985 87.6916 65.7486C87.4046 66.8007 86.7651 67.7224 85.8801 68.3595C80.9903 72.3941 74.2496 73.766 68.7573 74.9129C62.0209 76.2211 55.1316 76.5554 48.3002 75.9054C41.7012 75.3819 34.9382 73.9434 29.3501 69.2591C28.417 68.5375 27.645 67.6288 27.0837 66.5912C26.7917 66.022 26.5947 65.409 26.5004 64.7763V64.7763Z" fill="black"/>
<path d="M62.0134 57.1946C54.6114 69.4545 49.4664 72.0672 37.2771 69.6931C35.3352 69.3148 32.4907 68.1945 32.0963 66.8922C31.6402 65.3862 33.0063 62.9567 34.3267 61.5258C39.1153 56.3367 54.7712 53.9358 62.0134 57.1946Z" fill="white"/>
</g>
<defs>
<clipPath id="clip0">
<rect width="123" height="159" fill="white"/>
</clipPath>
</defs>
</svg>
