<svg width="151" height="126" viewBox="0 0 151 126" fill="none" xmlns="http://www.w3.org/2000/svg">
<path d="M149.737 79.5053C148.136 95.9382 142.398 110.114 125.14 116.194C105.568 123.09 85.5871 127.703 64.6432 125.208C55.5394 124.206 46.4943 122.728 37.5451 120.78C32.2187 119.569 27.1278 117.038 22.1581 114.631C18.0615 112.647 13.8453 110.476 10.514 107.466C7.08864 104.372 5.61666 100.142 4.41377 95.1998C1.91287 84.9232 4.25048 74.8692 3.34505 64.7969C2.64569 57.0178 1.70835 49.2392 0.399323 41.5416C-0.986457 33.3926 1.58275 27.2571 6.97232 20.95C15.9683 10.4225 28.3632 8.15962 40.4545 5.05109C69.5233 -2.42218 98.2584 -1.87548 126.326 9.80033C135.429 13.587 143.923 18.1572 148.367 27.6265C149.342 29.6356 149.919 31.8145 150.065 34.0428C150.38 41.4784 150.384 48.9273 150.506 56.3711C150.172 56.3766 150.48 71.8793 149.737 79.5053ZM26.6439 54.5953C36.3303 57.6705 45.2996 60.3109 54.1248 63.3675C67.8881 68.1346 81.9944 67.1937 95.9859 65.7119C109.306 64.3011 121.324 58.6035 133.535 53.1936C143.956 48.5766 146.209 40.5695 147.264 31.0508C147.273 30.1336 146.929 29.2479 146.304 28.5771C140.817 22.7413 134.848 17.4978 127.403 14.2557C122.316 12.0408 117.328 8.7073 112.026 8.05209C98.0796 6.32853 84.0002 5.45698 69.9476 4.87035C51.19 4.08735 33.6661 9.52992 16.8991 17.3018C3.84214 23.354 2.85192 39.2884 14.721 47.1142C17.903 49.2123 21.3119 50.9663 24.7019 52.9275C30.8994 47.2046 37.8859 46.1609 45.6106 48.5229C49.5513 49.7278 50.0063 50.8062 48.0054 54.2519C47.2821 53.0735 46.7666 51.1731 45.5468 50.4325C40.563 47.4063 31.6109 49.1059 26.6439 54.5953L26.6439 54.5953ZM121.358 101.875C118.599 100.579 116.272 99.4866 113.945 98.3939L114.294 97.674L120.095 97.8858C120.136 97.6076 120.176 97.3294 120.217 97.0513C117.288 95.7273 114.36 94.4033 111.432 93.0793C119.162 92.943 119.162 92.943 120.506 91.2078C117.363 89.6523 114.265 88.1191 111.167 86.5859L111.361 85.808C114.117 85.4091 116.874 85.0102 120.668 84.4612C118.042 82.7252 116.371 81.6212 114.589 80.4433L117.126 78.448L111.609 75.4483L111.859 74.3995L121.71 74.2377C120.716 73.4526 120.55 73.2127 120.351 73.1817C118.498 73.0251 116.657 72.735 114.845 72.3137C113.373 71.6975 111.969 70.9299 110.655 70.0234C111.548 68.8325 112.413 67.6187 113.352 66.4646C113.7 66.1453 114.093 65.878 114.517 65.6712C96.1355 70.4067 77.7754 71.4593 59.2569 66.884L59.3039 69.7446C56.2786 67.7953 53.698 65.9486 50.9237 64.4636C50.1534 64.0514 48.809 64.7119 47.7279 64.8803C47.9567 65.8918 47.8598 67.4732 48.4679 67.8206C51.9788 69.8265 55.6049 71.6556 59.2981 73.3071C61.5272 74.1276 63.8054 74.8079 66.1194 75.3441C64.6401 76.3106 64.0274 76.711 62.8074 77.5081L73.088 78.1373L73.0749 79.0808C71.1945 79.4808 69.3141 79.8807 67.4337 80.2805C67.4393 80.584 67.4449 80.8874 67.4505 81.1908C70.0529 81.9042 72.6555 82.6175 75.6438 83.4366C73.9346 84.8568 72.8104 85.7909 70.9221 87.3599L78.5447 87.2347C76.8036 89.4565 75.5689 91.0321 74.1847 92.7985C76.6239 93.2646 78.6989 93.6611 80.7739 94.0576L80.7515 95.1194C77.7278 95.8755 74.7041 96.6316 71.6803 97.3877L71.81 98.7039L81.3648 101.47C77.2567 103.938 74.2106 105.768 71.1646 107.598L71.4007 108.079C75.0117 107.252 78.6228 106.424 82.2338 105.597C82.4084 105.995 82.5829 106.393 82.7574 106.791C80.3527 108.471 77.9479 110.151 75.2915 112.007C79.2226 115.833 82.4138 109.444 86.1164 111.33C83.1573 113.167 80.4352 114.857 77.7131 116.547C79.1808 116.874 80.1235 116.144 81.1702 115.934C82.9832 115.652 84.8097 115.464 86.6422 115.372C85.5789 116.818 84.5158 118.264 83.4529 119.711C83.2413 119.999 83.0397 120.295 82.6535 120.842C95.5423 120.313 107.607 117.943 118.82 111.326L115.095 109.237L122.385 109.117L122.574 108.378C120.064 107.175 117.553 105.972 114.524 104.52C116.27 104.382 117.426 104.291 119.149 104.155C117.659 103.441 116.689 102.977 115.719 102.512L115.886 101.965L121.358 101.875ZM7.31111 85.7675C7.56911 90.4715 8.33034 90.9543 12.9697 89.5034C11.9314 87.1212 11.3089 84.2847 7.31111 85.7675ZM33.2151 79.3326C37.9727 82.7134 40.0988 82.6266 43.2899 79.1672L33.2151 79.3326ZM66.7683 105.758L74.1293 104.668C70.3429 101.872 68.8541 102.085 66.7682 105.758H66.7683ZM18.8656 82.4187C22.8276 86.8217 24.1117 86.8982 26.9743 83.3088C24.3812 83.0242 22.0854 82.7722 18.8656 82.4187ZM142.282 67.9817C139.178 64.6355 137.72 65.1242 136.002 69.3L142.282 67.9817ZM10.9051 95.707L10.1859 97.7382C11.7021 98.3078 13.2182 98.8773 14.7344 99.4469C14.8124 98.6169 15.197 97.206 14.9154 97.0573C13.623 96.4848 12.2806 96.0328 10.9051 95.707V95.707Z" fill="black"/>
<path d="M26.6438 54.5952C31.6108 49.1058 40.5629 47.4062 45.5468 50.4325C46.7665 51.1731 47.2821 53.0735 48.0054 54.2518C50.0063 50.8061 49.5513 49.7277 45.6105 48.5228C37.8859 46.1608 30.8994 47.2046 24.7018 52.9274C21.3119 50.9662 17.903 49.2122 14.721 47.1141C2.85189 39.2884 3.84215 23.3539 16.8991 17.3017C33.6661 9.52984 51.1899 4.08726 69.9476 4.87027C84.0001 5.4569 98.0795 6.32846 112.026 8.05202C117.328 8.70723 122.316 12.0407 127.403 14.2557C134.848 17.4977 140.817 22.7412 146.304 28.577C146.929 29.2478 147.273 30.1335 147.264 31.0508C146.209 40.5694 143.956 48.5766 133.535 53.1935C121.324 58.6034 109.306 64.301 95.9859 65.7118C81.9944 67.1936 67.8881 68.1345 54.1247 63.3674C45.2996 60.3108 36.3302 57.6704 26.6438 54.5952ZM78.1761 50.0208C80.8183 49.7552 83.4451 49.3539 86.0461 48.8184C94.8636 46.5682 104.182 45.7485 111.863 40.1255C115.563 37.4175 115.928 35.0239 113.106 31.4382C110.268 27.8587 106.191 25.4746 101.679 24.7572C98.0261 24.0767 94.3158 23.6065 90.7341 22.6543C78.9894 19.3568 66.4615 20.2681 55.3176 25.2306C50.8527 27.1827 46.7849 29.4722 44.682 34.2293C42.8132 38.4567 43.5133 40.2675 47.583 42.6354C57.0625 48.1508 67.3796 49.9128 78.1761 50.0208ZM69.7231 57.328L69.5235 58.3337C70.8815 58.9607 72.1859 59.9093 73.6089 60.1468C76.4788 60.6831 79.3943 60.9364 82.3137 60.9031C86.6638 60.8874 91.002 60.4448 95.2657 59.5818C96.6226 59.2648 97.621 56.4984 98.2659 54.6699C98.4345 54.1916 96.4434 52.1823 95.825 52.3428C94.1069 52.7889 92.589 54.0065 90.9921 54.9193C91.1587 55.1806 91.3254 55.4419 91.492 55.7032C93.1475 55.512 94.8031 55.3208 96.4586 55.1296L96.6118 56.9435C87.9516 60.954 78.8858 59.7624 69.7231 57.328V57.328ZM112.149 19.7992C118.718 19.7311 125.09 20.0841 130.528 25.2864L125.191 26.7979L125.48 27.9072L133.648 26.0894C128.028 19.1971 119.719 16.9214 112.149 19.7992ZM36.2625 28.118L36.9615 29.0191C38.1205 28.2511 39.2075 27.3796 40.209 26.4152C41.1303 25.2151 41.9566 23.9449 42.6802 22.6162C41.3611 21.8206 40.1362 20.67 38.7067 20.2909C32.5215 18.6507 23.899 22.1328 20.077 28.0906C26.3557 23.1555 32.9827 20.0056 41.756 23.2149C39.5036 25.2253 37.8831 26.6717 36.2625 28.118ZM81.4502 9.64022C72.9266 12.2872 64.9954 15.0421 57.9656 7.73348C61.5599 15.5043 74.9559 16.7041 81.4502 9.64019V9.64022ZM132.387 48.3938C128.478 42.9988 124.059 42.2582 118.51 45.2776C114.792 47.301 114.009 48.9684 115.287 52.1415C117.13 43.3614 124.942 43.4347 132.387 48.3938V48.3938Z" fill="white"/>
<path d="M121.358 101.875L115.886 101.965L115.719 102.512C116.689 102.977 117.659 103.441 119.149 104.155C117.426 104.291 116.27 104.382 114.524 104.52C117.553 105.972 120.064 107.175 122.574 108.377L122.385 109.117L115.096 109.237L118.821 111.326C107.607 117.943 95.5424 120.313 82.6536 120.842C83.0398 120.295 83.2414 119.999 83.453 119.711C84.5146 118.263 85.5777 116.817 86.6423 115.372C84.8098 115.464 82.9833 115.652 81.1703 115.934C80.1236 116.144 79.1809 116.873 77.7132 116.546C80.4353 114.857 83.1574 113.167 86.1165 111.33C82.4139 109.444 79.2227 115.833 75.2916 112.007C77.948 110.151 80.3528 108.471 82.7575 106.791C82.583 106.393 82.4085 105.995 82.2339 105.597C78.6229 106.424 75.0118 107.251 71.4008 108.079L71.1647 107.598C74.2107 105.768 77.2568 103.938 81.365 101.47L71.8101 98.7039L71.6804 97.3876C74.7042 96.6315 77.7279 95.8754 80.7516 95.1193L80.774 94.0576C78.699 93.6611 76.624 93.2646 74.1848 92.7984C75.569 91.0321 76.8037 89.4565 78.5448 87.2346L70.9222 87.3598C72.8105 85.7908 73.9347 84.8568 75.6439 83.4366C72.6556 82.6175 70.053 81.9041 67.4506 81.1908C67.4449 80.8874 67.4394 80.5839 67.4338 80.2805C69.3142 79.8806 71.1946 79.4807 73.075 79.0808L73.0881 78.1372L62.8075 77.508C64.0274 76.711 64.6402 76.3106 66.1195 75.344C63.8055 74.8079 61.5273 74.1275 59.2983 73.307C55.605 71.6555 51.9789 69.8265 48.468 67.8206C47.8598 67.4731 47.9567 65.8917 47.728 64.8803C48.809 64.7119 50.1535 64.0513 50.9238 64.4636C53.6981 65.9486 56.2787 67.7952 59.304 69.7446L59.257 66.884C77.7755 71.4592 96.1356 70.4066 114.518 65.6712C114.093 65.878 113.7 66.1452 113.352 66.4646C112.413 67.6187 111.548 68.8325 110.655 70.0234C111.969 70.9299 113.373 71.6974 114.846 72.3136C116.658 72.735 118.498 73.0251 120.351 73.1817C120.55 73.2127 120.716 73.4526 121.71 74.2377L111.859 74.3995L111.609 75.4483L117.126 78.448L114.589 80.4432C116.371 81.6211 118.042 82.7251 120.668 84.4611C116.874 85.0101 114.117 85.409 111.361 85.8079L111.167 86.5858C114.265 88.119 117.363 89.6522 120.506 91.2078C119.162 92.943 119.162 92.943 111.432 93.0793C114.36 94.4033 117.288 95.7273 120.217 97.0512C120.176 97.3294 120.136 97.6076 120.095 97.8858L114.294 97.674L113.945 98.3938C116.272 99.4867 118.599 100.579 121.358 101.875Z" fill="white"/>
<path d="M7.31104 85.7676C11.3089 84.2849 11.9313 87.1213 12.9697 89.5035C8.33027 90.9545 7.56895 90.4716 7.31104 85.7676Z" fill="black"/>
<path d="M33.2151 79.3327L43.2899 79.1672C40.0988 82.6266 37.9727 82.7134 33.2151 79.3327Z" fill="black"/>
<path d="M66.7683 105.758C68.8541 102.085 70.3429 101.872 74.1293 104.668L66.7683 105.758Z" fill="white"/>
<path d="M18.8657 82.4187C22.0855 82.7722 24.3813 83.0242 26.9744 83.3088C24.1118 86.8982 22.8277 86.8217 18.8657 82.4187Z" fill="black"/>
<path d="M142.282 67.9818L136.002 69.3001C137.72 65.1243 139.178 64.6356 142.282 67.9818Z" fill="black"/>
<path d="M10.905 95.707C12.2805 96.0328 13.6229 96.4848 14.9153 97.0573C15.1969 97.206 14.8123 98.6169 14.7343 99.4469C13.2181 98.8774 11.702 98.3078 10.1858 97.7382L10.905 95.707Z" fill="black"/>
<path d="M78.1762 50.0208C67.3796 49.9128 57.0625 48.1508 47.5831 42.6354C43.5133 40.2675 42.8132 38.4567 44.6821 34.2293C46.785 29.4722 50.8528 27.1827 55.3177 25.2305C66.4616 20.2681 78.9895 19.3567 90.7342 22.6543C94.3159 23.6065 98.0262 24.0767 101.68 24.7572C106.191 25.4745 110.269 27.8587 113.106 31.4382C115.928 35.0239 115.563 37.4175 111.863 40.1255C104.182 45.7485 94.8637 46.5682 86.0462 48.8183C83.4452 49.3539 80.8184 49.7552 78.1762 50.0208V50.0208ZM92.2087 26.0347C89.5469 25.6424 87.2471 25.1146 84.9266 24.9974C78.2451 24.6596 76.4508 26.3992 74.9081 32.9943C74.1562 35.5034 72.8996 37.8325 71.2155 39.8387C69.7466 41.7672 67.6831 43.2428 65.7935 44.9992C69.2269 47.4034 72.025 47.2338 74.8818 44.3776C77.1163 41.9574 79.6787 39.862 82.4943 38.1524C87.3618 35.4859 90.0747 31.4329 92.2087 26.0347ZM102.064 29.1042C97.0291 26.1378 95.202 26.4292 92.2062 31.4385C89.8246 35.4208 87.1004 38.58 82.6349 40.4372C80.5034 41.3237 79.0212 43.7714 76.632 46.1126C91.6149 47.1856 99.0065 41.9918 102.064 29.1042ZM74.5869 24.4994C69.113 23.8037 64.4351 25.6673 61.4185 29.6933C58.0623 34.1725 60.4886 39.4629 60.6003 44.9479C69.7297 40.5493 73.3302 33.4591 74.5869 24.4994V24.4994ZM56.5353 44.1634L57.6579 43.3179L57.534 35.7749L57.4081 28.1104C52.4505 29.3486 49.6798 32.3361 47.4439 35.8291C47.2489 36.3356 47.187 36.8837 47.2641 37.421C47.3411 37.9583 47.5547 38.4668 47.8842 38.8981C50.638 40.8376 53.6295 42.4398 56.5353 44.1634V44.1634ZM99.5375 41.2563L100.661 42.7728C103.53 41.4703 106.329 40.0173 109.045 38.4198C110.19 37.6795 111.63 35.6204 111.31 34.7753C110.591 33.1067 109.252 31.7828 107.575 31.0828C106.607 30.7231 104.424 31.8162 103.736 32.8747C102.164 35.5787 100.762 38.378 99.5375 41.2563V41.2563Z" fill="black"/>
<path d="M69.7233 57.328C78.886 59.7624 87.9517 60.954 96.612 56.9435L96.4588 55.1296C94.8033 55.3208 93.1478 55.512 91.4922 55.7032C91.3256 55.4419 91.1589 55.1806 90.9923 54.9193C92.5893 54.0065 94.1071 52.7889 95.8252 52.3428C96.4436 52.1823 98.4347 54.1916 98.2661 54.6699C97.6212 56.4984 96.6228 59.2648 95.2659 59.5818C91.0022 60.4449 86.664 60.8874 82.3139 60.9031C79.3945 60.9364 76.479 60.6831 73.6091 60.1468C72.1861 59.9093 70.8817 58.9607 69.5237 58.3337L69.7233 57.328Z" fill="black"/>
<path d="M112.149 19.7992C119.719 16.9214 128.028 19.1971 133.647 26.0894L125.48 27.9072L125.191 26.7979L130.528 25.2864C125.09 20.0841 118.718 19.731 112.149 19.7992Z" fill="black"/>
<path d="M36.2626 28.1182C37.8831 26.6718 39.5035 25.2255 41.7561 23.215C32.9827 20.0057 26.3558 23.1556 20.0771 28.0907C23.8991 22.1329 32.5216 18.6508 38.7068 20.291C40.1363 20.6701 41.3612 21.8207 42.6803 22.6163C41.9567 23.945 41.1304 25.2152 40.2091 26.4153C39.2076 27.3797 38.1206 28.2512 36.9616 29.0192L36.2626 28.1182Z" fill="black"/>
<path d="M81.4502 9.64014C74.9559 16.704 61.5599 15.5043 57.9656 7.7334C64.9954 15.042 72.9266 12.2872 81.4502 9.64014Z" fill="black"/>
<path d="M132.387 48.3938C124.942 43.4347 117.131 43.3614 115.288 52.1415C114.009 48.9684 114.792 47.301 118.51 45.2776C124.059 42.2582 128.478 42.9988 132.387 48.3938Z" fill="black"/>
<path d="M92.2089 26.0346C90.0749 31.4328 87.362 35.4859 82.4945 38.1523C79.6789 39.8619 77.1165 41.9574 74.8819 44.3775C72.0252 47.2337 69.2271 47.4033 65.7937 44.9991C67.6833 43.2428 69.7468 41.7672 71.2157 39.8386C72.8998 37.8324 74.1563 35.5033 74.9082 32.9942C76.451 26.3991 78.2453 24.6596 84.9267 24.9973C87.2473 25.1146 89.5471 25.6424 92.2089 26.0346Z" fill="black"/>
<path d="M102.065 29.1044C99.0066 41.9919 91.615 47.1858 76.6321 46.1127C79.0213 43.7715 80.5035 41.3239 82.635 40.4374C87.1005 38.5801 89.8247 35.4209 92.2063 31.4386C95.2021 26.4294 97.0292 26.1379 102.065 29.1044Z" fill="black"/>
<path d="M74.5871 24.4995C73.3303 33.4593 69.7299 40.5494 60.6005 44.9481C60.4888 39.4631 58.0625 34.1727 61.4186 29.6935C64.4352 25.6675 69.1131 23.8038 74.5871 24.4995Z" fill="black"/>
<path d="M56.5354 44.1634C53.6295 42.4398 50.6381 40.8376 47.8843 38.898C47.5547 38.4668 47.3412 37.9582 47.2641 37.4209C47.187 36.8836 47.249 36.3356 47.444 35.829C49.6799 32.336 52.4506 29.3485 57.4082 28.1104L57.534 35.7748L57.6579 43.3179L56.5354 44.1634Z" fill="black"/>
<path d="M99.5376 41.2563C100.762 38.378 102.164 35.5788 103.736 32.8747C104.424 31.8162 106.607 30.7231 107.575 31.0829C109.252 31.7828 110.591 33.1068 111.31 34.7753C111.63 35.6204 110.19 37.6795 109.045 38.4198C106.329 40.0173 103.53 41.4704 100.661 42.7728L99.5376 41.2563Z" fill="black"/>
<path d="M60.0493 52.3554L56.8967 52.2033C57.2016 49.3134 57.3232 46.4071 57.2608 43.5019C57.2314 42.8063 57.1912 42.1108 57.1521 41.4153C56.9609 39.0575 56.946 36.6888 57.1076 34.3288C57.8204 26.595 62.4314 20.6512 66.3698 16.3374L68.6997 18.4641C65.0939 22.4139 60.8752 27.8192 60.2482 34.6178C60.1023 36.8224 60.1201 39.0347 60.3015 41.2366C60.3417 41.9473 60.3819 42.6575 60.4123 43.3666C60.4799 46.3675 60.3587 49.3697 60.0493 52.3554V52.3554Z" fill="white"/>
<path d="M66.2439 52.5067L63.5227 50.9103C66.6234 45.3664 69.1059 39.4988 70.9255 33.4128C73.4717 25.5091 76.9688 17.997 85.2475 16.5571L85.7887 19.6651C78.8282 20.8752 76.0168 27.8949 73.9281 34.3795C72.0399 40.6856 69.4629 46.7647 66.2439 52.5067V52.5067Z" fill="white"/>
<path d="M75.3451 51.8926L72.7478 50.1038C74.8485 46.9813 77.1416 43.9926 79.6138 41.1552C80.9234 39.7281 82.3104 38.374 83.7684 37.0989C84.8953 36.0779 85.9592 35.1135 86.9688 34.0599C88.9478 31.8437 90.6848 29.4227 92.1503 26.8381C92.76 25.8502 93.3696 24.8602 94.0097 23.8871L94.1064 23.7409C94.6141 22.9026 95.2205 22.1282 95.9126 21.4343L98.0665 23.7382C97.5611 24.2638 97.1174 24.8453 96.7439 25.4715L96.645 25.621C96.0223 26.568 95.429 27.5314 94.8356 28.4932C93.2539 31.2679 91.3803 33.8656 89.2466 36.2421C88.1599 37.3767 87.0047 38.4237 85.8864 39.4366C84.5136 40.6344 83.2075 41.9067 81.9742 43.2477C79.5876 45.9893 77.3736 48.8765 75.3451 51.8926V51.8926Z" fill="white"/>
<path d="M80.3016 56.2678L80.1755 53.1163C80.7102 53.093 93.3923 52.4078 97.448 40.8173C102.079 27.588 109.416 23.7116 109.726 23.5535L111.163 26.3616L110.444 24.9575L111.17 26.3578C111.105 26.392 104.601 29.9288 100.426 41.8594C95.6517 55.5001 80.9265 56.2428 80.3016 56.2678Z" fill="white"/>
</svg>
