<svg width="55" height="37" viewBox="0 0 55 37" fill="none" xmlns="http://www.w3.org/2000/svg">
<path fill-rule="evenodd" clip-rule="evenodd" d="M0 37H55V0H0V37Z" fill="#1B3771"/>
<path fill-rule="evenodd" clip-rule="evenodd" d="M27.3261 29.3112C29.7897 31.5567 33.1026 32.925 36.6894 32.925C44.4098 32.925 50.6517 26.6829 50.6517 18.9622C50.6517 11.2695 44.41 5 36.6894 5C33.1026 5 29.79 6.36894 27.3261 8.61381C24.506 11.187 22.7265 14.8557 22.7265 18.9622C22.7265 23.0696 24.506 26.7654 27.3261 29.3112V29.3112Z" fill="#E9B040"/>
<path fill-rule="evenodd" clip-rule="evenodd" d="M48.7899 26.7382C48.7899 26.4918 48.981 26.3 49.2553 26.3C49.5017 26.3 49.6934 26.4918 49.6934 26.7382C49.6934 26.9845 49.5017 27.2036 49.2553 27.2036C49.194 27.2041 49.1333 27.1924 49.0766 27.1692C49.0199 27.146 48.9684 27.1117 48.9251 27.0684C48.8818 27.0251 48.8475 26.9736 48.8243 26.9169C48.8011 26.8602 48.7894 26.7994 48.7899 26.7382V26.7382ZM49.2553 27.0938C49.4191 27.0938 49.5839 26.9299 49.5839 26.7379C49.5839 26.5458 49.4194 26.4093 49.2553 26.4093C49.0635 26.4093 48.8994 26.5461 48.8994 26.7379C48.8994 26.9296 49.0635 27.0938 49.2553 27.0938ZM49.1731 26.9572H49.0909V26.5464H49.2553C49.2826 26.5464 49.3375 26.5464 49.3648 26.5737C49.3921 26.6016 49.4194 26.6286 49.4194 26.6559C49.4194 26.7108 49.3921 26.7655 49.3378 26.7655L49.4194 26.9572H49.3099L49.2553 26.7928H49.1731V26.9572V26.9572ZM49.1731 26.7109H49.2826C49.3099 26.7109 49.3099 26.683 49.3099 26.6559C49.3099 26.6559 49.3099 26.6286 49.2826 26.6286H49.1731V26.7109V26.7109Z" fill="#E9B040"/>
<path fill-rule="evenodd" clip-rule="evenodd" d="M31.8431 17.4845C31.7876 16.9877 31.7054 16.4943 31.5968 16.0063H23.0551C23.1664 15.5067 23.3036 15.0133 23.4659 14.5278H31.1862C31.0184 14.0261 30.8266 13.5327 30.6113 13.0494H24.0405C24.2932 12.5451 24.5672 12.0518 24.8619 11.5709H29.7897C29.4837 11.044 29.1262 10.5489 28.7223 10.0927H25.9295C26.3403 9.5724 26.8331 9.07967 27.3258 8.61455C24.8619 6.36939 21.5763 5.00073 17.9625 5.00073C10.2422 5.00073 4 11.2702 4 18.963C4 26.6833 10.2422 32.9258 17.9625 32.9258C21.5763 32.9258 24.8616 31.5571 27.3258 29.312C27.8182 28.8465 28.3115 28.3541 28.7493 27.8338H25.9292C25.5429 27.3638 25.1863 26.8701 24.8616 26.3556H29.7897C30.0957 25.8812 30.3701 25.3872 30.6113 24.8768H24.0405C23.8161 24.3975 23.624 23.9037 23.4656 23.3987H31.186C31.348 22.9131 31.4851 22.4195 31.5968 21.9199C31.7063 21.4275 31.7879 20.9342 31.8431 20.4417C31.9527 19.459 31.9527 18.4672 31.8431 17.4845V17.4845Z" fill="#CC2131"/>
<path fill-rule="evenodd" clip-rule="evenodd" d="M48.7899 22.1935C48.7899 21.9471 48.981 21.7554 49.2552 21.7554C49.5016 21.7554 49.6933 21.9471 49.6933 22.1935C49.6933 22.4399 49.5016 22.6589 49.2552 22.6589C49.194 22.6595 49.1332 22.6478 49.0765 22.6246C49.0198 22.6014 48.9683 22.5671 48.925 22.5238C48.8816 22.4805 48.8474 22.4289 48.8242 22.3722C48.801 22.3155 48.7893 22.2548 48.7899 22.1935V22.1935ZM49.2552 22.5494C49.4191 22.5494 49.5838 22.3849 49.5838 22.1935C49.5838 22.0017 49.4193 21.8649 49.2552 21.8649C49.0635 21.8649 48.8994 22.0017 48.8994 22.1935C48.8994 22.3847 49.0635 22.5494 49.2552 22.5494ZM49.173 22.4125H49.0908V22.0017H49.2552C49.2825 22.0017 49.3374 22.0017 49.3647 22.029C49.392 22.0569 49.4193 22.084 49.4193 22.1113C49.4193 22.1662 49.392 22.2208 49.3377 22.2208L49.4193 22.4125H49.3098L49.2552 22.2481H49.173V22.4125V22.4125ZM49.173 22.1665H49.2825C49.3098 22.1665 49.3098 22.1386 49.3098 22.1116C49.3098 22.1116 49.3098 22.0842 49.2825 22.0842H49.173V22.1665V22.1665Z" fill="white"/>
<path fill-rule="evenodd" clip-rule="evenodd" d="M36.5523 15.7599L36.3053 17.293C35.7577 17.0193 35.3748 16.9098 34.964 16.9098C33.8144 16.9098 33.0207 18.0051 33.0207 19.5655C33.0207 20.6335 33.5683 21.2901 34.4437 21.2901C34.8271 21.2901 35.2379 21.1811 35.7307 20.9342L35.4573 22.5498C34.9097 22.6866 34.5541 22.7415 34.1159 22.7415C32.5003 22.7415 31.4876 21.5913 31.4876 19.7023C31.4876 17.1562 32.8835 15.4043 34.8821 15.4043C35.156 15.4043 35.3751 15.4316 35.5668 15.4589L36.1961 15.6231C36.3878 15.705 36.4151 15.705 36.5523 15.7599V15.7599ZM31.7066 16.8276C31.6517 16.8003 31.5971 16.8003 31.5422 16.8003C31.0498 16.8003 30.7755 17.0466 30.3104 17.7311L30.4472 16.8549H29.0513L28.1474 22.6317H29.6535C30.2011 19.1001 30.3377 18.4975 31.0771 18.4975H31.1866C31.3234 17.813 31.4879 17.293 31.7615 16.8273H31.7066V16.8276ZM22.9729 22.5495C22.5621 22.6863 22.2338 22.7412 21.8776 22.7412C21.111 22.7412 20.6731 22.3031 20.6731 21.4815C20.6731 21.3177 20.7004 21.1529 20.7278 20.9618L20.8097 20.3865L20.8919 19.9484L21.5491 16.0063H23.0548L22.8907 16.8549H23.6574L23.4383 18.2785H22.6719L22.2611 20.6605C22.2611 20.77 22.2338 20.8522 22.2338 20.9069C22.2338 21.2081 22.398 21.345 22.7542 21.345C22.9459 21.345 23.0554 21.3177 23.165 21.2901L22.9729 22.5495ZM17.1415 18.6893C17.1415 19.4008 17.4974 19.9211 18.2914 20.277C18.921 20.5783 19.0032 20.6605 19.0032 20.9342C19.0032 21.2901 18.7295 21.4545 18.127 21.4545C17.6889 21.4545 17.2784 21.3723 16.7853 21.2081L16.5663 22.5495H16.6485L16.9225 22.6044C17.0467 22.6421 17.1759 22.6605 17.3057 22.659C17.6616 22.6863 17.9628 22.7136 18.1543 22.7136C19.7423 22.7136 20.4814 22.1117 20.4814 20.7973C20.4814 20.0036 20.1804 19.5382 19.4137 19.1817C18.7839 18.9083 18.7019 18.8261 18.7019 18.5797C18.7019 18.2512 18.9483 18.087 19.441 18.087C19.7423 18.087 20.1528 18.1416 20.536 18.1965L20.7551 16.8549C20.3719 16.8003 19.7693 16.7454 19.4137 16.7454C17.7165 16.7454 17.1415 17.6216 17.1415 18.6893V18.6893ZM48.1331 22.6317H46.6823L46.7639 22.0568C46.3531 22.4949 45.915 22.686 45.3673 22.686C44.2727 22.686 43.5336 21.7555 43.5336 20.3046C43.5336 18.388 44.6559 16.7727 45.9972 16.7727C46.5997 16.7727 47.0379 17.019 47.4481 17.5667L47.7767 15.5406H49.2827L48.1331 22.6317ZM45.8877 21.2625C46.5997 21.2625 47.0922 20.4688 47.0922 19.3191C47.0922 18.6071 46.8188 18.1965 46.2985 18.1965C45.6143 18.1965 45.121 18.9903 45.121 20.1402C45.121 20.8796 45.3673 21.2625 45.8877 21.2625ZM27.5995 22.4949C27.0795 22.6587 26.5867 22.7412 26.0391 22.7412C24.3416 22.7412 23.4656 21.8374 23.4656 20.1675C23.4656 18.1692 24.5882 16.7181 26.1213 16.7181C27.3534 16.7181 28.1471 17.5394 28.1471 18.8261C28.1471 19.2369 28.0925 19.6477 27.9833 20.2497H24.9717C24.9441 20.3319 24.9441 20.3592 24.9441 20.4141C24.9441 21.0713 25.3822 21.4269 26.2858 21.4269C26.8061 21.4269 27.2988 21.3174 27.8464 21.071L27.5995 22.4949V22.4949ZM26.7512 19.0722V18.7712C26.7512 18.3058 26.5045 18.0321 26.0394 18.0321C25.5743 18.0321 25.2181 18.4153 25.0812 19.0722H26.7512ZM11.3924 22.6317H9.88658L10.7625 17.1835L8.81861 22.6317H7.77854L7.66901 17.2108L6.73817 22.6317H5.34192L6.51912 15.5406H8.68178L8.76399 19.9211L10.2152 15.5406H12.5696L11.3924 22.6317ZM15.143 20.0579C14.9786 20.0306 14.8967 20.0306 14.7871 20.0306C13.9385 20.0306 13.5004 20.3319 13.5004 20.9069C13.5004 21.2628 13.7192 21.5094 14.0477 21.5094C14.6776 21.5094 15.1157 20.9069 15.143 20.0579V20.0579ZM16.238 22.6317H14.9786L15.0062 22.0292C14.623 22.4952 14.13 22.7134 13.4182 22.7134C12.5969 22.7134 12.0492 22.0841 12.0492 21.1529C12.0492 19.757 13.0077 18.9354 14.7049 18.9354C14.8691 18.9354 15.0881 18.9354 15.3072 18.9627C15.3618 18.7985 15.3618 18.7166 15.3618 18.6071C15.3618 18.2239 15.1154 18.0867 14.4036 18.0867C13.9655 18.0867 13.4728 18.1413 13.1442 18.2509L12.9252 18.3055L12.7883 18.3328L13.0074 17.0461C13.7738 16.827 14.2665 16.7448 14.8141 16.7448C16.1282 16.7448 16.8127 17.3197 16.8127 18.415C16.8127 18.7163 16.7851 18.9351 16.6755 19.5649L16.3745 21.6184L16.3199 21.9743L16.2923 22.275L16.265 22.4667L16.238 22.6317V22.6317ZM39.0162 20.0579C38.8524 20.0306 38.7698 20.0306 38.6603 20.0306C37.8114 20.0306 37.3733 20.3319 37.3733 20.9069C37.3733 21.2628 37.5924 21.5094 37.9209 21.5094C38.5232 21.5094 38.9889 20.9069 39.0162 20.0579V20.0579ZM40.1112 22.6317H38.8521L38.8794 22.0292C38.4959 22.4952 37.9761 22.7134 37.2911 22.7134C36.4701 22.7134 35.8951 22.0841 35.8951 21.1529C35.8951 19.757 36.8809 18.9354 38.5778 18.9354C38.7417 18.9354 38.9613 18.9354 39.1798 18.9627C39.2347 18.7985 39.2347 18.7166 39.2347 18.6071C39.2347 18.2239 38.9883 18.0867 38.2762 18.0867C37.8381 18.0867 37.3457 18.1413 37.0171 18.2509L36.7981 18.3055L36.6612 18.3328L36.8803 17.0461C37.6464 16.827 38.1394 16.7448 38.687 16.7448C40.0011 16.7448 40.6856 17.3197 40.6856 18.415C40.6856 18.7163 40.6582 18.9351 40.5487 19.5649L40.2474 21.6184L40.1928 21.9743L40.1379 22.275L40.1106 22.4667V22.6317H40.1112V22.6317ZM44.1634 16.8276C44.1355 16.8003 44.0812 16.8003 44.026 16.8003C43.5336 16.8003 43.2323 17.0466 42.7669 17.7311L42.9037 16.8549H41.535L40.6039 22.6317H42.137C42.6573 19.1001 42.8218 18.4975 43.5336 18.4975H43.6431C43.7799 17.813 43.9717 17.293 44.218 16.8273H44.1634V16.8276V16.8276Z" fill="white"/>
</svg>
