<svg width="89" height="12" viewBox="0 0 89 12" fill="none" xmlns="http://www.w3.org/2000/svg">
<path d="M60.716 0.514923C59.595 0.515914 58.4994 0.835562 57.5678 1.43346C56.6361 2.03136 55.9103 2.88066 55.482 3.87402C55.0537 4.86737 54.9422 5.96018 55.1615 7.01429C55.3809 8.06841 55.9212 9.03651 56.7143 9.79622C57.5074 10.5559 58.5176 11.0731 59.6172 11.2825C60.7168 11.4918 61.8564 11.3839 62.892 10.9723C63.9277 10.5607 64.8128 9.86401 65.4355 8.97021C66.0582 8.0764 66.3906 7.02564 66.3906 5.95075C66.3889 4.50872 65.7903 3.1263 64.7263 2.1071C63.6624 1.0879 62.22 0.515254 60.716 0.514923ZM60.716 10.5558C59.7658 10.5558 58.8369 10.2856 58.0469 9.7794C57.2568 9.27319 56.641 8.55372 56.2775 7.71195C55.9139 6.87019 55.8188 5.94396 56.0043 5.05039C56.1898 4.15682 56.6474 3.33606 57.3195 2.69191C57.9915 2.04776 58.8476 1.60915 59.7796 1.43156C60.7116 1.25397 61.6776 1.34536 62.5554 1.6942C63.4333 2.04303 64.1835 2.63362 64.7112 3.39129C65.2389 4.14895 65.5205 5.03965 65.5202 5.95075C65.5157 7.17097 65.0081 8.33998 64.1081 9.2027C63.2081 10.0654 61.9887 10.5518 60.716 10.5558Z" fill="#0E0E0E"/>
<path fill-rule="evenodd" clip-rule="evenodd" d="M60.7159 0C59.4885 2.60921e-08 58.2886 0.348979 57.2679 1.00281C56.2473 1.65664 55.4518 2.58596 54.982 3.67326C54.5122 4.76056 54.3893 5.95701 54.6286 7.11133C54.868 8.26564 55.459 9.32598 56.3268 10.1583C57.1947 10.9906 58.3005 11.5574 59.5043 11.7872C60.7082 12.0169 61.956 11.8993 63.0901 11.449C64.2242 10.9988 65.1937 10.2363 65.8758 9.25785C66.5579 8.27941 66.9221 7.129 66.9224 5.95209C66.921 4.37412 66.2667 2.86114 65.1031 1.74523C63.9395 0.629325 62.3617 0.00165906 60.7159 0ZM60.7159 10.0409C59.8719 10.0409 59.0469 9.80088 58.3452 9.35127C57.6434 8.90166 57.0965 8.26261 56.7736 7.51496C56.4507 6.7673 56.3662 5.94462 56.531 5.15095C56.6957 4.35729 57.1023 3.62829 57.6991 3.05617C58.296 2.48404 59.0565 2.09449 59.8843 1.93676C60.7121 1.77904 61.5701 1.86024 62.3498 2.17009C63.1294 2.47995 63.7958 3.00453 64.2645 3.6775C64.7332 4.35047 64.9832 5.1416 64.983 5.95084C64.9785 7.03447 64.5274 8.07248 63.7282 8.83862C62.9289 9.60476 61.8461 10.0369 60.7159 10.0409Z" fill="#0E0E0E"/>
<path d="M81.8272 1.64775V5.53227H87.03V6.37684H81.8272V10.2538H87.7946V11.0821H80.9791V0.834503H87.7946V1.64775H81.8272Z" fill="#0E0E0E"/>
<path d="M77.4492 11.0985H76.5343L70.2521 2.23677V11.0985H69.3712V0.823311H70.3187L70.3684 0.887217L76.5683 9.63741V0.818298H77.4492V11.0985Z" fill="#0E0E0E"/>
<path d="M53.0297 0.818298V1.66287H49.2894V11.0985H48.4085V1.66287H44.6695V0.818298H53.0297Z" fill="#0E0E0E"/>
<path d="M42.6519 8.50088C42.6373 8.92124 42.5239 9.33302 42.3203 9.70554C42.1166 10.0781 41.8279 10.4017 41.4757 10.6524C40.7752 11.1524 39.8604 11.403 38.8449 11.403C38.7726 11.405 38.7003 11.3996 38.6293 11.3867C37.5315 11.3541 36.5683 11.0196 35.8704 10.398C35.2878 9.87959 34.9171 9.17893 34.8249 8.42194V8.24902H35.6927L35.7057 8.4044C35.803 8.96115 36.0898 9.47137 36.5212 9.85545C37.0532 10.3178 37.7837 10.5559 38.6816 10.5885C39.5794 10.6211 40.3439 10.4294 40.8928 10.0459C41.154 9.87229 41.3686 9.6417 41.5187 9.3731C41.6689 9.10451 41.7505 8.80558 41.7567 8.50088C41.7907 7.81545 41.4744 7.28916 40.8262 6.87189C40.2276 6.49597 39.4134 6.26666 38.7652 6.07494L38.4163 5.9797L38.1614 5.90327C37.5628 5.72784 36.831 5.50479 36.2324 5.10631C35.5019 4.62764 35.1359 3.98983 35.1686 3.20916C35.1762 2.81666 35.2831 2.43179 35.48 2.0876C35.6769 1.74341 35.9579 1.45017 36.2991 1.23307C36.9813 0.770685 37.9445 0.515058 38.9756 0.547638C40.6053 0.611545 41.8848 1.39221 42.4167 2.65155L42.4337 2.69916L41.5855 2.92221C41.1673 1.9824 40.1753 1.39221 38.9455 1.36088C38.0647 1.34459 37.3498 1.52002 36.8545 1.85459C36.6118 2.00836 36.4119 2.21654 36.2721 2.46108C36.1323 2.70563 36.0568 2.97918 36.0521 3.25803C36.0364 3.78432 36.3017 4.19909 36.9172 4.5487C37.4818 4.86823 38.2464 5.10756 38.9455 5.30054L39.1285 5.34816C39.8264 5.55616 40.7073 5.81054 41.4221 6.27292C42.269 6.77916 42.7016 7.54479 42.6519 8.50088Z" fill="#0E0E0E"/>
<path d="M26.8392 0.818272H23.4974V11.0935H26.8392C29.8137 11.0935 32.2406 8.78279 32.2406 5.95586C32.2309 4.58899 31.6574 3.28135 30.6453 2.31868C29.6332 1.35601 28.2648 0.816585 26.8392 0.818272ZM26.8392 10.2702H24.3561V1.6478H26.8392C27.4361 1.63805 28.0291 1.74235 28.5835 1.95462C29.138 2.1669 29.6428 2.4829 30.0685 2.8842C30.4943 3.2855 30.8324 3.76406 31.0632 4.29197C31.294 4.81988 31.4129 5.38657 31.4129 5.959C31.4129 6.53142 31.294 7.09811 31.0632 7.62602C30.8324 8.15393 30.4943 8.63249 30.0685 9.03379C29.6428 9.43509 29.138 9.75109 28.5835 9.96337C28.0291 10.1756 27.4361 10.2799 26.8392 10.2702Z" fill="#0E0E0E"/>
<path fill-rule="evenodd" clip-rule="evenodd" d="M82.365 2.16282V5.02107H87.5678V6.89692H82.365V9.73763H88.3323V11.5984H80.4426V0.318298H88.3323V2.16282H82.365Z" fill="#0E0E0E"/>
<path fill-rule="evenodd" clip-rule="evenodd" d="M77.9882 0.303192V11.6134H76.1716L70.7898 3.90703V11.6134H68.8334V0.303192H70.5872L70.8068 0.582627L76.0318 7.9557V0.303192H77.9882Z" fill="#0E0E0E"/>
<path fill-rule="evenodd" clip-rule="evenodd" d="M53.5688 0.303192V2.17904H49.8285V11.6134H47.8721V2.17904H44.1317V0.303192H53.5688Z" fill="#0E0E0E"/>
<path fill-rule="evenodd" clip-rule="evenodd" d="M43.1893 8.52086C43.1707 9.01644 43.0364 9.50172 42.7962 9.94089C42.556 10.3801 42.216 10.7619 41.8014 11.0583C40.9937 11.6297 39.9612 11.9079 38.8556 11.9079H38.8491C38.7616 11.909 38.6742 11.9031 38.5877 11.8904C37.4115 11.849 36.3228 11.4819 35.5204 10.7626C34.8431 10.1614 34.4117 9.34834 34.3036 8.46948V8.43816V7.73393H36.2039L36.2562 8.33916C36.3365 8.77442 36.5621 9.17286 36.8992 9.47445C37.3121 9.83157 37.9081 10.0446 38.7171 10.0734C39.526 10.1022 40.1664 9.9268 40.5925 9.62983C40.7871 9.50248 40.9471 9.33225 41.0589 9.13341C41.1708 8.93457 41.2313 8.71292 41.2355 8.48703V8.477C41.259 8.00209 41.063 7.63494 40.5441 7.30413C40.0566 6.99211 39.3862 6.79538 38.7432 6.60617L38.6282 6.57233L38.2727 6.47459L38.0009 6.39064C37.4102 6.21771 36.6051 5.97587 35.9307 5.52727C35.0695 4.96464 34.5951 4.16894 34.6343 3.19029C34.645 2.71799 34.774 2.25509 35.0106 1.8407C35.2472 1.42631 35.5843 1.0726 35.9935 0.809457C36.7868 0.27189 37.8715 -0.00378584 38.9994 0.0313002C40.799 0.101472 42.2914 0.976116 42.9201 2.45599L42.9266 2.47103L43.1279 3.05246L41.2799 3.53865L41.0956 3.12388C40.7754 2.40336 39.9913 1.90339 38.9327 1.87958C38.125 1.86454 37.5356 2.0287 37.1605 2.27931C36.9862 2.38791 36.8429 2.53642 36.7434 2.71143C36.6439 2.88645 36.5914 3.08245 36.5907 3.28177C36.5814 3.42896 36.6202 3.57528 36.7018 3.70029C36.8297 3.87174 36.9969 4.01278 37.1906 4.11255C37.6911 4.39449 38.3943 4.61378 39.0895 4.80926L39.2751 4.85688H39.2829L39.3561 4.87943C40.0305 5.07867 40.9479 5.35059 41.7086 5.84179C42.7162 6.44201 43.2481 7.37806 43.1893 8.52086Z" fill="#0E0E0E"/>
<path fill-rule="evenodd" clip-rule="evenodd" d="M26.8386 0.303257H22.9597V11.6135H26.8386C30.1059 11.6135 32.7785 9.07601 32.7785 5.96589C32.7712 4.46056 32.142 3.01936 31.0286 1.95798C29.9153 0.896606 28.4086 0.301583 26.8386 0.303257ZM26.8386 9.75392H24.8992V2.16281H26.8386C27.8885 2.16281 28.8954 2.5627 29.6378 3.27451C30.3801 3.98631 30.7972 4.95172 30.7972 5.95837C30.7972 6.96501 30.3801 7.93042 29.6378 8.64223C28.8954 9.35403 27.8885 9.75392 26.8386 9.75392Z" fill="#0E0E0E"/>
<path fill-rule="evenodd" clip-rule="evenodd" d="M14.7214 2.16282V5.02107H19.9072V6.89692H14.7214V9.73763H20.6718V11.5984H12.7807V0.318298H20.6718V2.16282H14.7214Z" fill="#0E0E0E"/>
<path fill-rule="evenodd" clip-rule="evenodd" d="M10.7541 11.5997H8.45523L5.94598 7.65377H2.8447L1.69071 5.81176H6.46874C6.71965 5.81176 6.96811 5.76437 7.19993 5.67231C7.43174 5.58024 7.64238 5.4453 7.8198 5.27518C7.99723 5.10506 8.13797 4.90311 8.23399 4.68084C8.33001 4.45857 8.37943 4.22035 8.37943 3.97977C8.37943 3.73919 8.33001 3.50096 8.23399 3.27869C8.13797 3.05643 7.99723 2.85447 7.8198 2.68435C7.64238 2.51424 7.43174 2.37929 7.19993 2.28723C6.96811 2.19516 6.71965 2.14778 6.46874 2.14778H1.19147L0.0374756 0.322052H6.46874C7.33886 0.325943 8.18153 0.614436 8.85744 1.13983C9.53335 1.66522 10.002 2.39606 10.1859 3.21149C10.3699 4.02692 10.2581 4.87813 9.86897 5.62436C9.47989 6.37059 8.83685 6.96717 8.04617 7.31544L10.7541 11.5997Z" fill="#0E0E0E"/>
<path d="M0.392151 9.34296H2.74457V11.5985H0.392151V9.34296Z" fill="#E70000"/>
</svg>
