<svg width="178" height="156" viewBox="0 0 178 156" fill="none" xmlns="http://www.w3.org/2000/svg">
<g clip-path="url(#clip0)">
<path d="M17.1329 27.1288L7.5289 33.7818L6.12891 44.4128L10.8739 58.3398L41.2709 72.7818L71.3469 63.3908L82.6789 40.3468L76.4669 29.8098L63.1149 24.3088L17.1329 27.1288Z" fill="white"/>
<path d="M20.1603 105.965C16.9293 107.402 14.9209 106.785 12.5736 102.91C11.5853 101.278 10.1187 99.9038 8.96334 98.352C6.55702 95.12 5.28913 87.3551 3.11618 83.1401C0.378184 77.8289 3.66534 73.2495 2.79107 68.4173C2.02486 64.1824 1.04463 59.9728 0.504612 55.714C0.263617 52.9604 0.250786 50.1916 0.466251 47.436C0.592971 44.2853 0.884881 41.14 1.12567 37.9938C1.20255 36.9894 0.941424 35.6677 1.51997 35.0366C7.87945 28.0993 15.5781 23.4499 25.7308 23.0574C27.2632 22.9532 28.7538 22.5127 30.0968 21.7674C33.4225 19.9179 37.3133 19.3594 41.025 20.1989C45.8742 21.1017 51.0443 20.439 56.0685 20.6171C59.6239 20.7432 63.1717 21.1068 66.715 21.4369C67.5073 21.4915 68.2745 21.7378 68.9506 22.1545C72.354 24.5017 75.7756 26.8389 79.0088 29.3808C80.1149 30.2505 80.6029 31.769 81.5331 32.8742C83.1986 34.853 85.0149 36.7209 86.7108 38.6782C87.8656 40.0109 89.7567 41.3586 89.873 42.8008C90.3701 47.8652 90.3992 52.9645 89.9599 58.0342C89.4578 62.8182 88.1173 67.3014 91.1727 71.9907C92.32 73.7514 91.1602 76.8339 91.001 79.311C90.9157 80.638 90.6692 81.9563 90.5953 83.2833C90.5457 84.1742 90.9765 85.1788 90.669 85.9518C88.6871 90.9341 87.338 96.3591 84.2109 100.643C82.103 103.531 77.6497 105.655 73.8249 106.539C69.5412 107.528 65.6485 111.718 60.5891 108.775C57.7635 112.64 53.3166 110.438 49.6885 111.072C46.8722 111.563 43.7509 110.372 40.7465 110.136C36.7126 109.818 32.8211 108.802 28.5638 109.476C26.4269 109.815 23.8229 107.593 20.1603 105.965ZM84.6386 91.8956C84.198 91.0202 83.5539 89.7404 82.7898 88.2222C87.6414 86.5003 88.2076 83.9569 84.699 80.9564C89.3814 75.4391 89.3787 74.2021 86.0924 67.8653C85.3753 66.4825 85.5774 64.5954 85.6674 62.9554C86.0371 56.2182 86.6061 49.4895 86.8722 42.7499C86.9054 41.91 85.5688 41.0232 85.02 40.3469C80.7745 45.3738 80.1471 52.661 71.8653 53.8255C70.0717 54.0778 68.3965 55.0097 66.6395 55.5515C63.4129 56.5466 59.1012 56.5894 57.1354 58.6207C52.0674 63.8576 47.4333 62.5332 42.8668 59.6725C40.8969 60.2092 39.3608 61.1078 38.0179 60.9036C33.9736 60.2884 30.0195 59.1776 26.0009 58.3897C23.2445 57.8492 20.8022 55.9002 17.4907 57.6004C16.3139 58.2046 13.4126 57.1175 12.09 55.9936C9.35799 53.6722 7.15759 50.8074 4.60762 48.0232C0.502994 52.693 4.81562 54.8364 6.14142 57.5893C5.66309 59.5516 5.50994 61.5791 5.68806 63.591C5.74625 66.6393 6.65716 70.0251 5.54789 72.6618C3.7094 77.0318 2.81343 80.3462 9.52745 82.0104C5.19445 85.3504 6.37917 87.4902 10.2279 88.8921C6.5292 95.5341 13.5359 98.0397 16.0209 102.071C16.5561 102.94 20.7796 101.833 23.7853 101.599C24.732 103.075 25.9989 105.05 27.4426 107.301C30.3711 105.208 32.9271 102.095 35.8537 106.435C35.9222 106.537 36.6849 106.107 37.0941 106.153C40.8739 106.581 44.6473 107.06 49.0481 107.6C50.5274 105.025 52.9414 104.119 54.718 106.673C57.6772 106.218 60.0587 105.145 61.7505 105.749C64.5617 106.753 66.2029 107.291 66.9276 103.853C67.061 103.22 69.02 102.214 69.3592 102.432C74.2503 105.572 74.6529 101.065 76.6294 99.2714C78.5426 99.1265 80.6006 98.8365 81.6751 97.7226C82.9881 96.3614 83.476 94.309 84.6386 91.8956V91.8956ZM4.91179 37.9453C4.8963 39.4299 4.74747 40.9101 4.46712 42.368C3.78712 45.0401 7.20424 49.8862 9.69251 49.0622C13.4303 47.8243 13.2854 49.7734 13.5683 52.0452C13.9396 55.0253 15.6006 55.7012 18.0322 53.6267C20.0427 51.9114 21.3477 51.4556 23.4354 53.8944C24.6303 55.2903 27.3665 55.6359 29.4833 56.2195C31.1037 56.5448 32.7396 56.7864 34.3848 56.9435C35.8074 57.1792 38.2772 58.0397 38.465 57.7137C41.1673 53.0244 43.2858 56.4483 45.5012 58.0134C49.551 60.8743 51.3912 60.4087 53.357 56.0183C53.6523 55.5148 54.0022 55.0454 54.4002 54.6186L54.8227 55.6647C57.7066 55.1538 60.5612 54.4898 63.3745 53.6754C65.8537 52.8317 68.3175 50.2068 70.4208 50.5186C74.4584 51.1172 75.0725 49.2507 75.8064 46.6481C76.0004 45.9292 76.4012 45.2831 76.9589 44.7899C80.3553 42.0475 81.1357 37.1413 77.6955 32.3592C76.1953 30.2739 72.659 29.4606 70.0474 28.0696L69.1551 29.257C68.7858 28.7829 68.1389 28.3317 68.0909 27.8308C67.7029 23.778 65.4378 23.2094 61.8724 24.7332C61.3018 25.0298 60.6466 25.1211 60.0167 24.9918C52.5566 21.8174 44.4173 26.024 36.9083 23.1344C36.3701 22.9994 35.8089 22.9832 35.2637 23.0869C34.7186 23.1907 34.2026 23.4119 33.7516 23.7353C29.7844 27.2878 24.4817 26.4919 19.8148 27.718C18.115 28.1646 16.4076 28.6 14.7431 29.1451C13.3034 29.6166 11.5321 29.9042 10.5902 30.8584C8.56609 33.1125 6.67028 35.4785 4.91179 37.9453V37.9453Z" fill="black"/>
<path d="M84.6386 91.8956C83.476 94.3089 82.9881 96.3614 81.6751 97.7226C80.6006 98.8365 78.5426 99.1265 76.6293 99.2714C74.6529 101.065 74.2503 105.572 69.3592 102.432C69.02 102.214 67.061 103.22 66.9276 103.853C66.2029 107.291 64.5617 106.753 61.7505 105.749C60.0586 105.145 57.6772 106.218 54.718 106.673C52.9414 104.119 50.5274 105.025 49.0481 107.6C44.6472 107.06 40.8739 106.581 37.0941 106.153C36.6849 106.107 35.9222 106.537 35.8537 106.435C32.9271 102.095 30.3711 105.208 27.4426 107.301C25.9988 105.05 24.732 103.075 23.7853 101.599C20.7796 101.834 16.5561 102.94 16.0208 102.071C13.5358 98.0398 6.52915 95.5343 10.2278 88.8922C6.37915 87.4903 5.19446 85.3504 9.52743 82.0104C2.81343 80.3463 3.70943 77.0319 5.54787 72.6619C6.65714 70.0252 5.74623 66.6394 5.68804 63.591C5.50992 61.5792 5.66307 59.5517 6.1414 57.5894C4.81556 54.8365 0.502975 52.6931 4.60761 48.0232C7.15761 50.8074 9.35798 53.6722 12.09 55.9937C13.4126 57.1176 16.3139 58.2046 17.4907 57.6005C20.8022 55.9003 23.2444 57.8493 26.0009 58.3898C30.0195 59.1777 33.9736 60.2884 38.0179 60.9036C39.3608 61.1079 40.8969 60.2092 42.8668 59.6726C47.4333 62.5333 52.0674 63.8577 57.1354 58.6208C59.1012 56.5895 63.4129 56.5467 66.6395 55.5516C68.3965 55.0097 70.0716 54.0778 71.8653 53.8256C80.1471 52.6611 80.7745 45.3739 85.02 40.3469C85.5687 41.0232 86.9054 41.91 86.8722 42.7499C86.6061 49.4896 86.0371 56.2183 85.6674 62.9554C85.5774 64.5954 85.3753 66.4826 86.0924 67.8653C89.3787 74.2021 89.3814 75.4392 84.699 80.9565C88.2076 83.957 87.6414 86.5004 82.7898 88.2223C83.5539 89.7404 84.198 91.0202 84.6386 91.8956ZM72.2138 86.9389L70.7707 86.8491C69.7935 92.6212 68.7015 93.3286 65.3846 91.4417C63.3426 91.9784 62.0158 92.4003 60.6536 92.6621C59.555 92.8732 58.4137 92.891 57.2914 92.9946C60.3909 93.8494 63.6184 94.1423 66.8211 93.8596C68.3801 93.7472 70.6074 93.333 71.2366 92.3414C72.1675 90.8741 71.9451 88.7712 72.2138 86.9389ZM13.2796 63.5435C12.2417 63.8256 10.6267 64.2645 9.01164 64.7035L8.28687 63.763C9.04754 62.5286 9.80822 61.2941 10.7486 59.768C7.69767 60.6726 5.93941 62.4232 7.95624 64.5948C9.7567 66.5335 12.7691 67.554 15.3769 68.7286C15.8605 68.9464 16.9631 67.9704 17.2784 67.8064C15.8485 66.2821 14.6786 65.035 13.2796 63.5435ZM20.6392 77.8591C19.2515 82.389 20.4463 83.7469 25.1166 82.9197C25.9917 82.8561 26.8713 82.9418 27.7176 83.1731C31.7554 83.9061 33.1139 82.5167 32.3136 78.4352C29.686 83.0513 29.1824 83.1446 26.6188 79.7322C25.2416 80.5628 23.8703 81.39 22.5048 82.2136C21.8941 80.7882 21.2834 79.3628 20.6392 77.8591V77.8591ZM58.3608 62.8879C57.262 62.811 56.1633 62.7342 55.0645 62.6573C54.9311 64.8199 54.7676 66.9827 54.7856 69.1442C55.6532 69.2942 56.5334 69.3584 57.4135 69.3358C57.8456 67.207 58.085 65.0442 58.3608 62.8879ZM67.4782 74.5158L64.3874 74.3287C64.2207 76.3627 64.0098 78.3971 64.0274 80.4298C65.0688 80.5688 66.1164 80.6555 67.1665 80.6896L67.4782 74.5158ZM23.2163 74.3395C25.4611 71.5043 25.2753 69.189 21.9591 67.0967C19.3446 71.2414 19.5698 72.475 23.2163 74.3395V74.3395ZM44.4894 73.2638C42.9435 71.9384 41.9287 71.0683 40.9139 70.1982C40.1501 71.3112 38.7978 72.424 38.7971 73.5375C38.7964 74.542 40.275 75.5474 41.1013 76.5524C42.0625 75.6195 43.0236 74.6866 44.4894 73.2638V73.2638ZM39.8375 88.9349L38.432 86.6275C37.5071 85.6629 36.5823 84.6983 35.6575 83.7337C34.8241 84.8907 33.4588 85.9983 33.3285 87.2204C33.394 87.8482 33.6251 88.4474 33.9981 88.9567C34.371 89.466 34.8725 89.8671 35.4513 90.1191C36.8118 90.3204 38.3658 89.3862 39.8375 88.9349ZM74.1209 83.7592C75.4908 85.1564 76.3919 86.0754 77.2929 86.9944C78.215 85.9679 79.7737 84.9927 79.8751 83.9001C79.9711 82.8651 78.5388 81.707 77.7786 80.6031L74.1209 83.7592ZM17.6431 85.2954L13.7358 82.1245C13.0232 82.9015 11.5652 83.9044 11.7423 84.4118C12.2128 85.7604 13.3885 86.8954 14.2837 88.1153C15.1424 87.3946 16.0011 86.6738 17.6431 85.2954V85.2954ZM83.003 74.9086L84.8912 74.6785C84.7369 72.522 84.5827 70.3654 84.4285 68.2089C80.2425 70.5391 80.3026 72.7434 83.003 74.9087V74.9086ZM70.7498 62.5966L71.3554 65.0392C73.6705 64.8154 76.4086 65.1983 78.1466 64.1464C79.2373 63.4863 78.826 60.6709 79.0885 58.8225L77.3957 58.3395C77.3453 62.3241 76.3933 65.2402 70.7498 62.5966ZM63.2539 103.041C64.3406 100.903 65.2356 99.7275 65.4511 98.452C65.547 97.8842 64.2741 97.1156 63.6224 96.438C62.6814 97.4347 61.3549 98.3146 60.9506 99.4739C60.7242 100.123 62.0268 101.235 63.2539 103.041ZM41.639 103.743L44.2163 104.338C44.7117 102.719 45.0653 101.06 45.2731 99.3805C45.2947 99.0157 43.6626 98.566 42.7921 98.1554C42.4077 100.018 42.0233 101.88 41.639 103.743L41.639 103.743Z" fill="white"/>
<path d="M72.2139 86.9388C71.9452 88.7711 72.1676 90.874 71.2367 92.3414C70.6075 93.333 68.3802 93.7473 66.8212 93.8596C63.6185 94.1423 60.391 93.8494 57.2915 92.9946C58.4138 92.8911 59.5551 92.8732 60.6537 92.6621C62.0159 92.4003 63.3427 91.9784 65.3847 91.4417C68.7016 93.3286 69.7936 92.6212 70.7708 86.8491L72.2139 86.9388Z" fill="black"/>
<path d="M13.2797 63.5435C14.6787 65.035 15.8485 66.2821 17.2785 67.8064C16.9632 67.9705 15.8605 68.9464 15.377 68.7287C12.7692 67.5541 9.75677 66.5335 7.95631 64.5949C5.93948 62.4233 7.69774 60.6726 10.7486 59.7681C9.80829 61.2941 9.04763 62.5286 8.28694 63.7631L9.01171 64.7036C10.6268 64.2646 12.2418 63.8256 13.2797 63.5435Z" fill="black"/>
<path d="M20.6393 77.8591C21.2835 79.3628 21.8942 80.7882 22.5048 82.2135C23.8732 81.3882 25.2445 80.561 26.6188 79.7321C29.1825 83.1446 29.6861 83.0513 32.3137 78.4351C33.1139 82.5167 31.7554 83.9061 27.7177 83.1731C26.8713 82.9418 25.9917 82.8561 25.1166 82.9196C20.4464 83.747 19.2515 82.3891 20.6393 77.8591Z" fill="black"/>
<path d="M58.3607 62.888C58.0849 65.0444 57.8455 67.2072 57.4134 69.336C56.5333 69.3586 55.6531 69.2944 54.7855 69.1443C54.7675 66.9828 54.931 64.8201 55.0645 62.6575C56.1632 62.7343 57.2619 62.8111 58.3607 62.888Z" fill="black"/>
<path d="M67.4782 74.5157L67.1665 80.6895C66.1164 80.6555 65.0688 80.5688 64.0274 80.4298C64.0097 78.3971 64.2207 76.3627 64.3874 74.3286L67.4782 74.5157Z" fill="black"/>
<path d="M23.2163 74.3395C19.5698 72.475 19.3446 71.2414 21.9591 67.0967C25.2753 69.189 25.4611 71.5043 23.2163 74.3395Z" fill="black"/>
<path d="M44.4895 73.2639C43.0237 74.6867 42.0625 75.6196 41.1014 76.5525C40.2751 75.5475 38.7965 74.5421 38.7971 73.5376C38.7978 72.424 40.1502 71.3113 40.914 70.1982C41.9288 71.0683 42.9436 71.9385 44.4895 73.2639Z" fill="black"/>
<path d="M39.8374 88.9349C38.3657 89.3861 36.8117 90.3204 35.4511 90.119C34.8724 89.867 34.3709 89.4659 33.9979 88.9566C33.625 88.4473 33.3939 87.8482 33.3284 87.2204C33.4588 85.9983 34.824 84.8906 35.6574 83.7336L38.4319 86.6275L39.8374 88.9349Z" fill="black"/>
<path d="M74.1208 83.7592L77.7786 80.603C78.5387 81.707 79.9711 82.865 79.875 83.9C79.7737 84.9927 78.2149 85.9679 77.2928 86.9944C76.3918 86.0754 75.4908 85.1564 74.1208 83.7592Z" fill="black"/>
<path d="M17.6431 85.2953C16.0011 86.6737 15.1424 87.3945 14.2838 88.1154C13.3885 86.8954 12.2129 85.7605 11.7423 84.4118C11.5653 83.9044 13.0232 82.9015 13.7358 82.1245L17.6431 85.2953Z" fill="black"/>
<path d="M83.0032 74.9087C80.3027 72.7435 80.2427 70.5392 84.4286 68.209C84.5829 70.3655 84.7371 72.5221 84.8913 74.6787L83.0032 74.9087Z" fill="black"/>
<path d="M70.7498 62.5966C76.3933 65.2402 77.3452 62.3241 77.3957 58.3396L79.0884 58.8226C78.8259 60.671 79.2372 63.4863 78.1466 64.1465C76.4085 65.1984 73.6704 64.8154 71.3553 65.0392L70.7498 62.5966Z" fill="black"/>
<path d="M63.2539 103.041C62.0268 101.235 60.7243 100.123 60.9506 99.4738C61.355 98.3146 62.6815 97.4347 63.6225 96.438C64.2741 97.1155 65.5471 97.8842 65.4511 98.452C65.2357 99.7274 64.3407 100.903 63.2539 103.041Z" fill="black"/>
<path d="M41.6389 103.743C42.0233 101.88 42.4076 100.018 42.792 98.1555C43.6625 98.5661 45.2946 99.0157 45.273 99.3805C45.0652 101.06 44.7116 102.719 44.2162 104.338L41.6389 103.743Z" fill="black"/>
<path d="M50.0791 44.836C48.3151 45.3656 46.566 46.2552 44.7826 46.3197C43.0558 46.3469 41.358 45.8739 39.894 44.9578C39.4802 44.6897 40.2003 42.2898 40.9526 41.1952C42.6375 38.7438 44.1746 35.555 46.6862 34.4133C50.0275 33.1024 53.6692 32.7538 57.1985 33.407C58.7158 33.6628 60.9898 37.429 60.4986 38.8996C59.7465 41.1516 57.0814 43.0165 54.865 44.6056C53.7476 45.4068 51.8313 45.2402 50.2763 45.5112L50.0791 44.836Z" fill="white"/>
<path d="M44.1513 33.5231C39.0768 42.6626 35.3943 44.7041 26.4453 43.2921C25.0196 43.0671 22.9164 42.3245 22.5946 41.3846C22.2226 40.2978 23.1548 38.4893 24.0799 37.4106C27.4348 33.4987 38.7858 31.3357 44.1513 33.5231Z" fill="white"/>
<path d="M69.4115 40.6793C67.9974 41.8285 66.2286 42.4517 64.4064 42.4425C64.043 42.4271 63.6802 42.4865 63.3406 42.6169C63.001 42.7474 62.6917 42.9462 62.4321 43.201C60.4514 44.8778 58.1102 46.0745 55.591 46.6978C53.9951 47.3199 52.2987 47.6437 50.5859 47.6533C48.5819 47.6139 46.8049 47.2888 45.8474 45.565C45.4328 44.8164 44.8306 44.7376 44.0508 45.0627C41.7041 45.9226 39.1853 46.2063 36.7061 45.8901C35.7194 46.027 34.714 45.8978 33.794 45.5158C29.7761 44.6096 26.2716 42.5804 22.2736 41.5658C21.5097 41.3817 20.8153 40.9805 20.2741 40.4108C19.7329 39.8411 19.3679 39.127 19.2232 38.3546C19.0554 37.2612 17.8116 36.8869 17.2093 36.089C16.084 35.035 16.2814 33.6658 16.0148 32.4149C14.4156 26.9085 17.7523 23.0865 21.9577 19.5896C25.6695 16.5163 30.4771 15.6593 35.3044 14.8417C41.2472 13.8468 46.1238 11.3547 49.5987 7.00078C49.7763 5.49371 49.8159 4.01615 48.4636 2.80457C47.9601 2.35143 46.8741 1.88843 47.338 1.30729C47.881 0.62761 48.9473 1.12013 49.7665 1.37629C50.3193 1.41567 50.8722 1.45507 51.4251 1.49449C56.4892 2.32189 60.5367 4.47913 63.3797 8.23212C65.7392 10.3401 68.7204 11.9556 70.1222 14.8122C70.7472 15.8217 71.1478 16.9539 71.2969 18.1318C71.3068 18.122 71.3068 18.122 71.3167 18.122L71.2969 18.1613C72.5704 17.8757 72.837 18.8706 73.2713 19.4419C78.6317 26.5735 76.4994 35.5472 69.4115 40.6793Z" fill="white"/>
<path d="M37.6019 47.7168C34.9854 47.7225 32.4045 47.111 30.0687 45.9321C29.7445 45.7671 29.4242 45.5908 29.1058 45.4145C28.6253 45.1494 28.1722 44.8989 27.7132 44.6977C26.9555 44.3888 26.1768 44.1337 25.3831 43.9345C24.507 43.7108 23.6464 43.4299 22.807 43.0937C20.7969 42.191 19.0808 40.742 17.8539 38.9117C16.627 37.0815 15.9388 34.9434 15.8675 32.7412C15.846 28.3789 19.8031 24.5669 23.7327 22.7246C26.7889 21.4192 29.9788 20.4523 33.2455 19.8413C36.3056 19.2738 39.2958 18.3787 42.1644 17.1714C44.223 16.2168 50.8724 12.8002 50.0335 8.89596C49.6854 7.76305 49.1173 6.70992 48.3617 5.79684C47.7217 4.95432 47.1681 4.04953 46.7093 3.09615C46.4838 2.7024 46.3901 2.2469 46.4417 1.79611C46.4934 1.34532 46.6877 0.922838 46.9964 0.590292C47.4218 0.188001 47.9893 -0.0293598 48.5745 -0.0142005L48.6029 -0.0146888C52.304 -0.0796288 59.1449 0.528772 63.3129 5.43502C63.6195 5.79635 63.9056 6.17477 64.1908 6.55318C64.5629 7.07646 64.9732 7.57148 65.4183 8.03418C65.8083 8.39685 66.2202 8.73522 66.6517 9.04736C66.9213 9.25195 67.1908 9.45703 67.4535 9.67136C68.9267 10.8805 70.1483 12.3669 71.0492 14.0464C71.2279 14.3808 71.3939 14.7231 71.559 15.0654C71.7904 15.5454 72.0092 15.999 72.2611 16.412C72.625 16.9769 73.0249 17.5177 73.4584 18.0312C73.7465 18.3891 74.0355 18.748 74.306 19.1186C76.6116 22.2665 77.6544 26.1639 77.2289 30.0426C76.8033 33.9213 74.9404 37.4999 72.0072 40.0732C70.2368 41.7256 67.9593 42.7303 65.5453 42.9238C65.4076 42.9296 65.2699 42.9316 65.1312 42.9335C64.8718 42.8788 64.6024 42.8971 64.3527 42.9863C64.1031 43.0756 63.8831 43.2322 63.7171 43.4389L63.6194 43.5254C61.2068 45.5836 58.272 46.9346 55.1395 47.4291C52.0071 47.9237 48.7988 47.5424 45.8694 46.3276L45.7571 46.2793C45.5475 46.173 45.3245 46.0956 45.094 46.0493C44.8192 46.0951 44.5535 46.1846 44.3069 46.3144L44.1751 46.3715C42.0986 47.2632 39.8617 47.721 37.6019 47.7168V47.7168ZM49.7718 2.82176C50.0443 3.27 50.3538 3.70506 50.6732 4.15525C51.6651 5.37298 52.3912 6.78472 52.805 8.29979C54.0062 13.8882 47.4007 17.8681 43.3568 19.7427C40.305 21.0355 37.123 21.9959 33.8656 22.6074C30.8001 23.1737 27.8057 24.0736 24.9359 25.291C21.8275 26.7485 18.6879 29.771 18.7015 32.7275C18.7567 34.3783 19.2742 35.9804 20.1951 37.3516C21.116 38.7227 22.4033 39.8078 23.9105 40.4834C24.6383 40.7704 25.3837 41.0109 26.1419 41.2036C27.0661 41.4373 27.9721 41.7376 28.8529 42.102C29.43 42.3554 29.9623 42.6494 30.4759 42.9336C30.7669 43.0942 31.0579 43.2549 31.3538 43.4057C33.1598 44.3127 35.1418 44.8151 37.1618 44.878C39.1818 44.9409 41.1912 44.5628 43.0501 43.7699L43.1722 43.7167C43.7362 43.3942 44.3734 43.2213 45.0231 43.2146C45.6728 43.2078 46.3135 43.3674 46.8841 43.6781L46.9866 43.7226C49.4239 44.7331 52.0931 45.0501 54.6993 44.6384C57.3054 44.2268 59.747 43.1026 61.7542 41.3901L61.845 41.3105C62.2633 40.8817 62.7713 40.5508 63.3325 40.3414C63.8937 40.132 64.4942 40.0492 65.0911 40.099L65.43 40.0917C67.1951 39.9201 68.8521 39.1636 70.138 37.9423C72.5381 35.836 74.0623 32.9073 74.4105 29.7331C74.7586 26.5589 73.9054 23.3694 72.0189 20.7929C71.7738 20.4575 71.512 20.1333 71.2503 19.8095C70.3317 18.757 69.5753 17.5732 69.0062 16.2973C68.8577 15.9902 68.7103 15.6831 68.5492 15.3828C67.8254 14.0324 66.8432 12.8373 65.6586 11.8657C65.4242 11.6733 65.181 11.4902 64.9388 11.3066C64.412 10.9235 63.91 10.5073 63.4359 10.0605C62.8869 9.49914 62.3818 8.89646 61.9251 8.25777C61.6731 7.9233 61.4222 7.58785 61.1517 7.26949C58.1009 3.67818 53.0843 2.90182 49.7718 2.82174V2.82176ZM48.6126 1.40276L48.6507 2.80706L48.6702 2.80022L48.6126 1.40276Z" fill="black"/>
<path d="M49.3042 1.40259C51.5268 1.77291 53.6737 2.50504 55.6594 3.56986C57.7791 4.65925 59.5531 6.31799 60.7822 8.35981C61.4187 9.46881 61.7878 10.711 61.8601 11.9876C61.8815 12.628 61.8365 13.2688 61.7258 13.8999L61.541 14.8366C61.4536 15.1373 61.3381 15.425 61.2356 15.7201C60.362 17.9845 58.9527 20.0035 57.1282 21.6041C55.3423 23.1392 53.3121 24.3647 51.1218 25.2299C49.005 26.0226 46.8251 26.6353 44.6052 27.0614C42.4967 27.4777 40.4286 28.0776 38.4246 28.8542C36.397 29.6807 34.4186 30.623 32.499 31.6764C34.1126 30.1262 35.8939 28.7608 37.81 27.6054C38.79 27.0317 39.805 26.5198 40.8488 26.0728C41.8967 25.6249 42.9697 25.2772 44.0219 24.9277C46.0796 24.3271 48.0993 23.6034 50.0701 22.7604C51.9581 21.9511 53.7051 20.8462 55.2454 19.4873C56.7653 18.1998 57.9634 16.575 58.7441 14.7424C58.8347 14.5233 58.9433 14.3062 59.0241 14.0848L59.1957 13.4107C59.3046 12.9643 59.3675 12.508 59.3835 12.0487C59.3881 11.821 59.3469 11.596 59.3349 11.3678C59.3299 11.1379 59.2957 10.9097 59.2333 10.6884L59.0788 10.0076L58.8122 9.34714C58.6181 8.89996 58.3873 8.46967 58.122 8.0607C57.811 7.6697 57.5495 7.23896 57.1913 6.8674C56.5037 6.07836 55.7369 5.36189 54.9031 4.72922C53.1644 3.41841 51.2868 2.30283 49.3042 1.40259V1.40259Z" fill="black"/>
<path d="M17.2814 34.0689C16.9552 34.0685 16.639 33.9557 16.3862 33.7494C16.1335 33.5432 15.9595 33.2561 15.8937 32.9365C15.2003 29.5611 14.8849 25.9351 17.2462 22.2925C20.6603 17.0269 27.6056 15.8335 32.2013 15.0435C32.7804 14.9444 33.3781 14.8507 33.9865 14.7554C37.5832 14.1929 41.6584 13.5557 44.0793 11.1466L44.2902 10.9312C45.3683 9.88879 46.1466 8.5759 46.5438 7.12978C46.941 5.68366 46.9424 4.1574 46.548 2.71052C46.4225 2.35621 46.4429 1.96655 46.6047 1.62727C46.7665 1.28799 47.0565 1.02688 47.4108 0.901389C47.7651 0.775895 48.1548 0.796295 48.494 0.958098C48.8333 1.1199 49.0944 1.40986 49.2199 1.76417C49.7923 3.70498 49.8268 5.76477 49.3199 7.72368C48.8131 9.6826 47.7838 11.4671 46.3419 12.8867C46.255 12.9785 46.1671 13.0694 46.0753 13.1597C43.006 16.2144 38.4474 16.9273 34.4249 17.5562C33.8302 17.6489 33.2472 17.7403 32.6818 17.8374C27.2443 18.7715 22.1544 19.9336 19.6251 23.8345C17.9191 26.4658 18.0099 29.148 18.671 32.3662C18.7465 32.7344 18.6727 33.1176 18.4657 33.4314C18.2588 33.7452 17.9357 33.9639 17.5675 34.0396C17.4734 34.0591 17.3775 34.0689 17.2814 34.0689V34.0689Z" fill="black"/>
<path d="M45.3078 44.8921C44.9411 43.9831 44.7831 43.0034 44.8452 42.0252C44.9074 41.0471 45.1882 40.0953 45.6669 39.24C46.6075 37.4991 47.9164 35.9842 49.5024 34.801C51.0351 33.6338 52.691 32.6378 54.4404 31.8308C55.9983 31.0908 57.4665 30.1751 58.8164 29.1015C61.485 26.9948 63.3115 24.0024 63.9653 20.6659C64.5518 17.1204 64.245 13.4847 63.0727 10.0876C65.3572 13.233 66.4525 17.0864 66.164 20.963C66.0039 22.9719 65.428 24.9255 64.4728 26.6999C63.9811 27.5841 63.4079 28.4205 62.7607 29.1983C62.1006 29.955 61.38 30.6569 60.6061 31.2969C59.063 32.5251 57.3516 33.5254 55.5241 34.2672C53.8761 34.9166 52.2824 35.6961 50.758 36.5982C49.2602 37.4737 47.9325 38.6121 46.8386 39.9587C45.6995 41.3379 45.1495 43.1103 45.3078 44.8921V44.8921Z" fill="black"/>
<path d="M27.099 44.2748C26.7566 44.275 26.4259 44.1507 26.1683 43.9252C25.5022 43.4047 24.9707 42.732 24.6183 41.9636C24.2658 41.1953 24.1028 40.3536 24.1429 39.5092C24.3841 35.7172 28.8001 32.6518 29.3031 32.3149C29.4577 32.2107 29.6313 32.1381 29.814 32.1011C29.9967 32.0642 30.1849 32.0636 30.3678 32.0995C30.5507 32.1354 30.7248 32.207 30.8799 32.3102C31.0351 32.4135 31.1684 32.5463 31.2722 32.7012C31.376 32.856 31.4482 33.0298 31.4847 33.2126C31.5213 33.3954 31.5214 33.5836 31.485 33.7664C31.4487 33.9492 31.3767 34.1231 31.2731 34.278C31.1695 34.433 31.0363 34.566 30.8812 34.6694C29.9056 35.3281 27.098 37.6606 26.972 39.6924C26.9588 40.1027 27.0488 40.5098 27.234 40.8763C27.4191 41.2427 27.6934 41.5568 28.0316 41.7895C28.2493 41.9792 28.4038 42.2308 28.4746 42.5107C28.5453 42.7906 28.5288 43.0854 28.4274 43.3557C28.326 43.626 28.1444 43.8589 27.907 44.0231C27.6696 44.1874 27.3877 44.2752 27.099 44.2749L27.099 44.2748Z" fill="black"/>
<path d="M95.1744 54.3018C95.1744 54.3018 77.3626 57.674 72.2138 59.8176C67.0651 61.9613 56.0863 70.8651 53.9161 77.1367C51.7459 83.4082 54.6312 95.1529 54.7843 97.5784C54.9374 100.004 55.1512 113.919 55.1512 113.919L60.9248 120.585L100.895 73.1112L95.1744 54.3018Z" fill="white"/>
<path d="M177.065 118.215C175.762 131.585 171.094 143.119 157.052 148.066C141.127 153.677 124.87 157.43 107.829 155.401C100.422 154.585 93.062 153.382 85.7805 151.797C81.4467 150.812 77.3045 148.753 73.2611 146.794C69.8467 145.302 66.6578 143.34 63.7869 140.965C60.9998 138.447 59.8022 135.006 58.8234 130.984C56.7886 122.623 58.6906 114.442 57.9539 106.247C57.3849 99.9177 56.6222 93.5887 55.5571 87.3255C54.4296 80.6951 56.52 75.703 60.9052 70.5712C68.2247 62.0057 78.3097 60.1644 88.1477 57.6352C111.799 51.5547 135.18 51.9995 158.017 61.4995C165.423 64.5805 172.334 68.299 175.95 76.0037C176.744 77.6383 177.213 79.4111 177.332 81.2242C177.588 87.2742 177.591 93.3349 177.69 99.3915C177.419 99.396 177.669 112.01 177.065 118.215ZM76.9108 97.9466C84.7921 100.449 92.09 102.597 99.2705 105.084C110.469 108.963 121.947 108.197 133.331 106.992C144.169 105.844 153.947 101.208 163.882 96.8061C172.362 93.0495 174.194 86.5345 175.053 78.7897C175.06 78.0434 174.781 77.3228 174.271 76.777C169.807 72.0287 164.951 67.7624 158.893 65.1245C154.754 63.3223 150.695 60.61 146.382 60.0769C135.034 58.6746 123.578 57.9654 112.145 57.4881C96.8826 56.851 82.6244 61.2793 68.9821 67.6029C58.3583 72.5273 57.5526 85.4922 67.2099 91.8596C69.7989 93.5667 72.5725 94.9939 75.3307 96.5896C80.3733 91.9332 86.0579 91.084 92.343 93.0058C95.5494 93.9862 95.9195 94.8637 94.2916 97.6672C93.703 96.7085 93.2836 95.1622 92.2911 94.5596C88.236 92.0973 80.9522 93.4802 76.9108 97.9466ZM153.974 136.415L147.943 133.583L148.227 132.997L152.947 133.17L153.046 132.491C150.663 131.413 148.28 130.336 145.898 129.259C152.188 129.148 152.188 129.148 153.281 127.736L145.683 123.976L145.84 123.343L153.413 122.247C151.276 120.834 149.917 119.936 148.467 118.978L150.531 117.354L146.042 114.914L146.246 114.06L154.26 113.929C153.452 113.29 153.317 113.095 153.155 113.069C151.647 112.942 150.15 112.706 148.676 112.363C147.478 111.862 146.335 111.237 145.266 110.5C145.993 109.531 146.697 108.543 147.46 107.604C147.743 107.344 148.063 107.127 148.409 106.958C133.452 110.811 118.514 111.668 103.446 107.945L103.484 110.273C101.023 108.687 98.9231 107.184 96.6659 105.976C96.0391 105.64 94.9452 106.178 94.0656 106.315C94.2518 107.138 94.1729 108.425 94.6678 108.707C97.5244 110.339 100.475 111.828 103.48 113.171C105.293 113.839 107.147 114.392 109.03 114.829C107.826 115.615 107.328 115.941 106.335 116.589C109.595 116.789 112.148 116.945 114.7 117.101L114.689 117.869C113.159 118.195 111.629 118.52 110.099 118.845L110.113 119.586C112.23 120.166 114.348 120.747 116.779 121.413C115.389 122.569 114.474 123.329 112.938 124.605L119.14 124.503C117.723 126.311 116.718 127.593 115.592 129.03L120.953 130.055L120.935 130.919C118.475 131.534 116.015 132.149 113.554 132.764L113.66 133.835C115.937 134.494 118.213 135.153 121.434 136.086C118.092 138.094 115.613 139.583 113.135 141.072L113.327 141.463C116.265 140.79 119.203 140.117 122.141 139.444C122.283 139.768 122.425 140.091 122.567 140.415L116.493 144.66C119.691 147.772 122.288 142.574 125.3 144.109L118.463 148.353C119.657 148.619 120.424 148.026 121.276 147.855C122.751 147.625 124.237 147.472 125.728 147.397C124.863 148.574 123.998 149.751 123.133 150.927C122.961 151.162 122.797 151.403 122.483 151.848C132.97 151.417 142.786 149.489 151.91 144.106L148.879 142.405L154.81 142.308L154.964 141.706C152.921 140.728 150.879 139.749 148.414 138.568L152.177 138.271C150.965 137.69 150.176 137.312 149.386 136.934L149.522 136.488L153.974 136.415ZM61.1808 123.31C61.3907 127.137 62.0101 127.53 65.7849 126.349C64.94 124.411 64.4336 122.103 61.1808 123.31ZM82.2575 118.074C86.1285 120.825 87.8583 120.754 90.4547 117.939L82.2575 118.074ZM109.558 139.575L115.547 138.688C112.466 136.413 111.255 136.587 109.558 139.575V139.575ZM70.5821 120.585C73.8057 124.167 74.8505 124.23 77.1796 121.309C75.0697 121.078 73.2018 120.873 70.5821 120.585ZM170.999 108.838C168.474 106.116 167.287 106.513 165.889 109.911C167.772 109.516 169.386 109.177 170.999 108.838V108.838ZM64.105 131.397L63.5198 133.05C64.7535 133.513 65.9871 133.976 67.2207 134.44C67.2842 133.765 67.5971 132.617 67.368 132.496C66.3164 132.03 65.2242 131.662 64.105 131.397V131.397Z" fill="black"/>
<path d="M76.9109 97.9467C80.9522 93.4802 88.2361 92.0974 92.2912 94.5597C93.2836 95.1623 93.7031 96.7085 94.2916 97.6672C95.9196 94.8637 95.5494 93.9863 92.3431 93.0059C86.0579 91.084 80.3734 91.9333 75.3308 96.5897C72.5726 94.9939 69.799 93.5668 67.2099 91.8597C57.5527 85.4923 58.3584 72.5273 68.9821 67.6029C82.6245 61.2794 96.8827 56.8511 112.145 57.4882C123.579 57.9655 135.034 58.6746 146.382 60.077C150.695 60.6101 154.754 63.3224 158.893 65.1245C164.951 67.7624 169.807 72.0288 174.272 76.777C174.781 77.3229 175.06 78.0435 175.053 78.7898C174.195 86.5346 172.362 93.0496 163.882 96.8062C153.947 101.208 144.169 105.844 133.331 106.992C121.947 108.197 110.469 108.963 99.2706 105.084C92.0901 102.597 84.7922 100.449 76.9109 97.9467ZM118.84 94.2247C120.99 94.0086 123.127 93.682 125.243 93.2463C132.418 91.4155 139.999 90.7485 146.249 86.1734C149.259 83.9701 149.557 82.0225 147.261 79.105C144.952 76.1926 141.634 74.2527 137.963 73.669C134.991 73.1154 131.972 72.7327 129.058 71.958C119.502 69.275 109.308 70.0165 100.241 74.0542C96.6084 75.6425 93.2986 77.5054 91.5876 81.376C90.067 84.8156 90.6367 86.2889 93.948 88.2156C101.661 92.7032 110.055 94.1368 118.84 94.2247L118.84 94.2247ZM111.962 100.17L111.8 100.988C112.84 101.62 113.957 102.116 115.124 102.464C117.459 102.9 119.831 103.106 122.206 103.079C125.746 103.066 129.276 102.706 132.745 102.004C133.849 101.746 134.661 99.4952 135.186 98.0074C135.323 97.6182 133.703 95.9834 133.2 96.114C131.805 96.6415 130.483 97.3461 129.268 98.2103L129.674 98.8481C131.021 98.6926 132.368 98.537 133.715 98.3814L133.84 99.8573C126.794 103.121 119.417 102.151 111.962 100.17L111.962 100.17ZM146.482 69.6351C151.826 69.5796 157.011 69.8669 161.436 74.0997L157.093 75.3295L157.329 76.2321L163.974 74.753C159.402 69.1452 152.641 67.2936 146.482 69.6351ZM84.7371 76.4036L85.3059 77.1368C86.2489 76.5119 87.1333 75.8028 87.9482 75.0181C88.6978 74.0416 89.3701 73.0081 89.9589 71.927C88.9715 71.1534 87.8839 70.517 86.7258 70.035C81.6933 68.7005 74.6777 71.5337 71.5679 76.3812C76.6765 72.3658 82.0685 69.8029 89.2069 72.4142C87.3742 74.05 86.0557 75.2268 84.7371 76.4036ZM121.504 61.3692C114.569 63.523 108.115 65.7644 102.396 59.8178C105.32 66.1406 116.22 67.1167 121.504 61.3692ZM162.948 92.9009C159.768 88.5113 156.172 87.9087 151.657 90.3654C148.632 92.0118 147.995 93.3684 149.035 95.9502C150.535 88.8063 156.89 88.866 162.948 92.9009V92.9009Z" fill="white"/>
<path d="M153.974 136.415L149.522 136.488L149.386 136.934C150.176 137.312 150.965 137.69 152.177 138.271L148.414 138.568C150.879 139.749 152.921 140.727 154.964 141.706L154.81 142.308L148.879 142.405L151.91 144.105C142.786 149.489 132.97 151.417 122.483 151.848C122.797 151.403 122.961 151.162 123.133 150.927C123.997 149.75 124.862 148.573 125.728 147.397C124.237 147.472 122.751 147.625 121.276 147.855C120.424 148.026 119.657 148.619 118.463 148.353L125.3 144.109C122.288 142.574 119.691 147.772 116.493 144.66L122.567 140.415C122.425 140.091 122.283 139.768 122.141 139.444C119.203 140.117 116.265 140.79 113.327 141.463L113.135 141.072C115.613 139.583 118.092 138.094 121.434 136.086C118.213 135.153 115.937 134.494 113.66 133.835L113.554 132.764C116.015 132.149 118.475 131.534 120.935 130.919L120.953 130.055L115.592 129.03C116.718 127.593 117.723 126.311 119.14 124.503L112.938 124.605C114.474 123.329 115.389 122.569 116.779 121.413C114.348 120.747 112.23 120.166 110.113 119.586L110.099 118.845C111.629 118.52 113.159 118.194 114.689 117.869L114.7 117.101C112.148 116.945 109.595 116.789 106.335 116.589C107.328 115.941 107.826 115.615 109.03 114.829C107.147 114.392 105.293 113.839 103.48 113.171C100.475 111.827 97.5244 110.339 94.6678 108.707C94.173 108.425 94.2518 107.138 94.0657 106.315C94.9452 106.178 96.0392 105.64 96.6659 105.976C98.9232 107.184 101.023 108.687 103.484 110.273L103.446 107.945C118.514 111.668 133.452 110.811 148.409 106.958C148.063 107.127 147.743 107.344 147.46 107.604C146.697 108.543 145.993 109.531 145.266 110.5C146.335 111.237 147.478 111.862 148.676 112.363C150.15 112.706 151.647 112.942 153.155 113.069C153.317 113.095 153.452 113.29 154.26 113.929L146.246 114.06L146.042 114.913L150.531 117.354L148.467 118.978C149.917 119.936 151.276 120.834 153.413 122.247L145.84 123.343L145.683 123.976L153.282 127.736C152.188 129.148 152.188 129.148 145.898 129.259C148.281 130.336 150.663 131.413 153.046 132.491L152.947 133.17L148.227 132.997L147.943 133.583L153.974 136.415Z" fill="white"/>
<path d="M61.1809 123.31C64.4337 122.103 64.9402 124.411 65.785 126.35C62.0102 127.53 61.3908 127.137 61.1809 123.31Z" fill="black"/>
<path d="M82.2576 118.074L90.4549 117.939C87.8585 120.754 86.1286 120.825 82.2576 118.074Z" fill="black"/>
<path d="M109.558 139.575C111.255 136.587 112.466 136.413 115.547 138.688L109.558 139.575Z" fill="white"/>
<path d="M70.582 120.585C73.2018 120.873 75.0697 121.078 77.1796 121.309C74.8505 124.23 73.8056 124.167 70.582 120.585Z" fill="black"/>
<path d="M170.999 108.839C169.386 109.177 167.772 109.516 165.889 109.911C167.287 106.513 168.474 106.116 170.999 108.839Z" fill="black"/>
<path d="M64.105 131.397C65.2241 131.662 66.3164 132.03 67.3679 132.496C67.5971 132.617 67.2841 133.765 67.2206 134.44C65.987 133.976 64.7534 133.513 63.5198 133.05L64.105 131.397Z" fill="black"/>
<path d="M118.158 90.6566C110.136 90.5933 102.472 89.3984 95.4338 85.6358C92.4122 84.0204 91.8938 82.7827 93.2865 79.89C94.8536 76.6347 97.8784 75.065 101.198 73.7257C109.55 70.3165 118.778 69.6867 127.516 71.9294C130.176 72.5771 132.933 72.8951 135.647 73.3569C138.931 73.8067 141.943 75.4248 144.131 77.9147C146.224 80.3641 145.95 82.0013 143.199 83.8569C137.486 87.7097 130.561 88.2793 124.007 89.8267C122.105 90.2758 120.111 90.3893 118.158 90.6566ZM128.608 74.2397C126.631 73.9741 124.923 73.6154 123.198 73.5374C118.234 73.313 116.899 74.5043 115.747 79.016C115.173 80.7548 114.235 82.3516 112.996 83.7002C111.751 84.987 110.402 86.1691 108.963 87.2346C111.511 88.8754 113.591 88.7567 115.716 86.8007C117.4 85.1274 119.305 83.6925 121.378 82.536C124.998 80.7078 127.017 77.9334 128.608 74.2397V74.2397ZM135.928 76.3293C132.19 74.3055 130.832 74.5067 128.601 77.9352C126.985 80.7293 124.478 82.8997 121.481 84.0984C119.896 84.7068 118.792 86.3821 117.015 87.9855C128.147 88.7047 133.644 85.1457 135.928 76.3293V76.3293ZM115.516 73.2069C111.45 72.7364 107.972 74.0155 105.727 76.7717C103.229 79.8381 105.026 83.4537 105.104 87.2046C111.892 84.1876 114.574 79.3354 115.516 73.2069V73.2069ZM102.084 86.672L102.919 86.0928L102.834 80.9344L102.748 75.6931C101.224 76.0399 99.7845 76.686 98.5122 77.5938C97.24 78.5016 96.1607 79.653 95.3371 80.9813C95.1922 81.3269 95.1457 81.7059 95.203 82.0762C95.2602 82.4466 95.4188 82.7939 95.6613 83.0796C97.7056 84.4033 99.9267 85.4961 102.084 86.672H102.084ZM134.039 84.6421L134.872 85.6782C136.999 84.7879 139.079 83.7917 141.106 82.6932C141.958 82.1858 143.03 80.7762 142.793 80.1986C142.23 79.0309 141.237 78.127 140.021 77.6771C139.483 77.6472 138.945 77.7427 138.449 77.956C137.954 78.1693 137.515 78.4945 137.167 78.9062C136.001 80.7483 134.956 82.6643 134.039 84.6421H134.039Z" fill="black"/>
<path d="M111.962 100.17C119.417 102.151 126.794 103.12 133.84 99.8572L133.715 98.3813C132.368 98.5368 131.021 98.6924 129.674 98.848L129.268 98.2102C130.483 97.3459 131.805 96.6414 133.2 96.1139C133.703 95.9832 135.323 97.6181 135.186 98.0073C134.661 99.495 133.849 101.746 132.745 102.004C129.276 102.706 125.746 103.066 122.206 103.079C119.831 103.106 117.459 102.9 115.124 102.464C113.957 102.116 112.84 101.62 111.8 100.988L111.962 100.17Z" fill="black"/>
<path d="M146.482 69.6349C152.641 67.2934 159.402 69.145 163.974 74.7529L157.329 76.2319L157.093 75.3293L161.436 74.0995C157.011 69.8667 151.826 69.5794 146.482 69.6349Z" fill="black"/>
<path d="M84.737 76.4036C86.0556 75.2267 87.374 74.0499 89.2069 72.4141C82.0684 69.8029 76.6765 72.3658 71.5679 76.3812C74.6776 71.5337 81.6932 68.7005 86.7258 70.035C87.8839 70.5169 88.9715 71.1534 89.9589 71.927C89.3701 73.0081 88.6978 74.0416 87.9481 75.0181C87.1333 75.8028 86.2489 76.5119 85.3059 77.1368L84.737 76.4036Z" fill="black"/>
<path d="M121.504 61.369C116.22 67.1165 105.32 66.1404 102.396 59.8176C108.116 65.7642 114.569 63.5228 121.504 61.369Z" fill="black"/>
<path d="M162.948 92.9008C156.89 88.8659 150.535 88.8062 149.035 95.9501C147.995 93.3683 148.632 92.0116 151.657 90.3653C156.172 87.9086 159.767 88.5111 162.948 92.9008Z" fill="black"/>
<path d="M128.608 74.2396C127.017 77.9333 124.998 80.7077 121.378 82.5359C119.305 83.6924 117.4 85.1272 115.716 86.8005C113.59 88.7565 111.511 88.8752 108.962 87.2344C110.402 86.169 111.751 84.9869 112.996 83.7001C114.235 82.3514 115.172 80.7547 115.746 79.0158C116.899 74.5042 118.234 73.3128 123.198 73.5373C124.922 73.6152 126.631 73.9739 128.608 74.2396Z" fill="black"/>
<path d="M135.928 76.3292C133.644 85.1455 128.146 88.7046 117.015 87.9853C118.792 86.3819 119.896 84.7066 121.481 84.0983C124.477 82.8996 126.985 80.7292 128.601 77.9351C130.832 74.5065 132.19 74.3054 135.928 76.3292Z" fill="black"/>
<path d="M115.516 73.2069C114.574 79.3354 111.891 84.1876 105.104 87.2045C105.026 83.4536 103.228 79.8381 105.726 76.7716C107.972 74.0154 111.449 72.7364 115.516 73.2069Z" fill="black"/>
<path d="M102.084 86.6718C99.9265 85.4959 97.7054 84.4031 95.6611 83.0794C95.4186 82.7937 95.26 82.4464 95.2028 82.076C95.1455 81.7057 95.192 81.3267 95.3369 80.9811C96.1605 79.6528 97.2398 78.5014 98.5121 77.5936C99.7843 76.6858 101.224 76.0397 102.748 75.6929L102.834 80.9342L102.919 86.0926L102.084 86.6718Z" fill="black"/>
<path d="M134.039 84.642C134.956 82.6642 136.001 80.7482 137.167 78.9061C137.515 78.4944 137.954 78.1692 138.449 77.9559C138.945 77.7426 139.483 77.6471 140.021 77.677C141.236 78.1269 142.23 79.0308 142.793 80.1985C143.029 80.7761 141.958 82.1856 141.106 82.693C139.079 83.7915 136.999 84.7878 134.872 85.678L134.039 84.642Z" fill="black"/>
<path d="M104.67 82.2307C103.667 82.3397 102.655 82.3225 101.657 82.1796C100.695 81.8972 99.4608 81.3558 99.1653 80.6885C99.043 80.2504 99.0372 79.7881 99.1484 79.3471C99.2596 78.9062 99.484 78.5019 99.7993 78.1743C103.258 74.7006 113.6 73.0956 118.673 75.0719C120.438 75.7595 120.666 77.0025 119.563 77.868C117.794 79.4035 115.736 80.5706 113.511 81.3009C110.676 82.0517 107.505 81.9704 104.67 82.2307Z" fill="white"/>
<path d="M108.729 83.9617C113.6 82.9575 117.918 81.9675 122.302 81.2284C123.627 81.178 124.951 81.3683 126.209 81.79C128.495 82.3062 128.83 83.259 127.269 84.5413C124.391 86.9051 113.381 87.3548 110.162 85.2286C109.662 84.832 109.184 84.4091 108.729 83.9617Z" fill="white"/>
</g>
<defs>
<clipPath id="clip0">
<rect width="178" height="156" fill="white"/>
</clipPath>
</defs>
</svg>
