<svg width="250" height="250" viewBox="0 0 250 250" fill="none" xmlns="http://www.w3.org/2000/svg">
<g clip-path="url(#clip0)">
<path d="M240.744 126.707C240.598 155.385 228.628 179.591 214.651 203.681C202.377 224.834 182.552 234.733 162.12 244.321C157.422 246.525 151.41 245.861 146.03 246.692C112.567 251.856 80.1276 244.468 47.5948 238.56C42.2209 237.463 36.9902 235.754 32.005 233.467C28.0619 231.855 24.6144 229.23 22.0109 225.858C19.4075 222.486 17.7404 218.486 17.1782 214.264C14.701 198.647 12.7278 182.951 10.4735 167.298C8.13189 151.038 9.94223 134.95 12.2282 118.862C12.762 115.105 13.1217 111.308 13.2949 107.518C13.5282 99.0546 15.9183 90.7911 20.2385 83.51C23.5325 78.0959 25.981 72.2109 27.4994 66.0581C33.4152 40.9421 50.2914 26.5135 73.2349 17.7222C77.9475 15.9164 82.8415 14.5889 87.5917 12.8745C89.7867 12.2622 91.8456 11.2388 93.6591 9.85888C95.221 8.29122 97.2027 7.20836 99.3656 6.74063C101.529 6.27291 103.781 6.44025 105.851 7.22253C107.108 7.43849 108.396 7.38495 109.631 7.06544C110.866 6.74592 112.019 6.16773 113.013 5.36916C118.046 1.02988 122.679 1.09915 127.868 4.82779C134.857 9.85014 139.453 9.60254 146.019 4.20519C153.524 -1.96504 157.41 -1.32772 163.45 6.00223C165.458 7.91935 168.137 8.97345 170.913 8.93847C182.958 8.80123 194.924 10.9129 206.195 15.165C220.86 20.6865 228.111 31.2356 230.055 46.4645C232.431 65.0787 235.492 83.6045 238.07 102.194C239.199 110.332 239.867 118.534 240.744 126.707ZM171.509 208.492L172.749 206.222C173.689 206.509 174.632 206.783 175.567 207.086C178.599 208.068 180.911 213.659 184.588 209.515C186.718 207.114 187.278 203.195 188.152 199.856C188.481 197.981 188.509 196.065 188.235 194.181C186.723 172.928 184.733 151.697 183.791 130.42C183.496 117.97 180.541 105.727 175.124 94.5134C173.143 90.1663 170.024 86.4355 166.097 83.716C162.17 80.9966 157.58 79.3897 152.814 79.0654C146.122 78.4269 139.374 78.6813 132.749 79.8218C123.582 81.2436 114.231 80.9452 105.173 78.942C97.4006 77.3548 89.4492 76.8259 81.5349 77.3698C69.7344 78.3191 58.1362 80.2275 46.4125 76.4711C43.8194 75.6403 39.3836 76.1453 37.657 77.8835C33.1457 82.4248 28.2707 87.4531 26.041 93.2491C19.9879 108.984 15.2185 125.188 17.5435 142.526C18.0728 146.472 17.4982 150.557 17.8892 154.533C19.2238 168.107 20.5768 181.684 22.3054 195.211C23.1014 201.44 24.9304 207.529 26.0226 213.729C27.0027 219.293 28.93 223.864 35.1307 225.198C51.5798 228.739 67.917 232.965 84.5048 235.642C97.8337 237.6 111.273 238.708 124.743 238.962C132.899 239.228 135.5 235.885 135.661 228.305C135.807 221.356 132.769 217.797 125.622 216.168C127.598 215.358 131.158 214.173 131.527 214.817C135.227 221.276 138.403 228.035 142.207 235.675C155.616 237.377 181.325 224.182 182.532 214.329C178.73 212.316 175.119 210.404 171.509 208.492ZM142.805 55.7357L145.316 55.7849C147.25 53.3096 148.998 50.6567 151.159 48.3987C154.853 44.5387 159.117 45.2137 163.329 47.5599C167.346 49.7973 169.619 53.7716 167.626 57.5967C165.613 61.025 162.448 63.6267 158.695 64.9376C156.017 65.8239 152.381 63.4749 149.108 63.0155C146.756 62.4546 144.295 62.5635 142.002 63.3299C135.156 66.7949 131 65.5824 127.503 58.362C124.317 51.7849 120.296 50.9079 114.571 55.5422C105.965 62.5091 100.444 61.9235 93.3242 53.2885C82.4369 56.99 79.5214 55.655 75.2092 44.9939C75.0081 44.9288 74.7801 44.7661 74.6097 44.8129C70.2294 46.0164 65.0379 47.3629 62.8833 42.4743C61.7767 39.9636 64.3003 35.7847 65.3521 32.4124C66.2017 29.6888 67.3041 27.0442 68.7238 23.2022C49.4365 31.0138 27.9681 60.2248 29.0321 75.6676C32.1097 74.2499 35.2892 73.0648 38.5438 72.1222C44.2345 70.8889 50.0808 69.2824 55.8004 69.4943C69.0529 69.9854 82.2529 72.0527 95.503 72.4104C114.227 72.9158 132.976 72.4171 151.715 72.4538C154.24 72.3993 156.758 72.7485 159.173 73.4881C172.765 78.0952 181.079 87.6886 185.543 101.198C192.155 121.213 191.812 142.022 192.868 162.64C193.576 175.887 193.595 189.162 192.923 202.411C192.579 208.903 189.847 215.269 187.786 223.285C190.983 220.377 193.073 218.669 194.943 216.747C214.526 196.628 222.107 170.574 229.948 144.794C234.417 130.102 231.96 114.988 230.109 100.109C227.66 80.4258 225.22 60.7242 221.914 41.176C220.992 35.722 218.363 28.8653 214.207 25.9791C203.569 18.7183 191.044 14.7199 178.167 14.4746C179.054 19.0416 179.888 23.3417 180.772 27.8962C181.813 27.4439 182.797 26.8704 183.703 26.1876C185.749 24.3214 188.262 23.0444 190.975 22.4923C193.688 21.9401 196.5 22.1335 199.112 23.0518C200.337 23.4467 201.466 24.094 202.426 24.9517C203.386 25.8095 204.155 26.8588 204.685 28.0321C204.971 29.2956 204.951 30.6094 204.625 31.8633C204.299 33.1172 203.677 34.2747 202.811 35.2386C199.996 37.3552 195.85 39.4772 192.702 38.9548C188.062 38.1851 186.463 39.7613 184.487 43.2911C180.982 49.5532 175.855 52.0955 170.985 48.4544C164.236 43.4076 157.697 42.811 149.91 44.0102C147.117 44.4403 144.369 43.6349 143.607 47.0565C143.145 49.9283 142.877 52.8279 142.805 55.7357ZM106.694 23.192C104.306 21.5391 102.061 18.8146 99.4984 18.4718C95.1011 17.8837 90.7071 23.0464 91.5423 27.7142C91.9524 30.0068 94.1761 33.1899 96.1738 33.7176C99.7621 34.6653 105.73 28.3242 106.694 23.192H106.694ZM120.04 24.8433C116.12 29.4443 113.025 32.4747 110.958 36.0924C110.613 36.6972 116.009 41.8645 116.582 41.5011C120.224 39.2115 123.415 36.2727 125.996 32.8308C126.467 32.1903 122.88 28.5654 120.04 24.8433H120.04ZM131.25 52.4146C135.934 51.2121 141.717 45.6923 140.646 42.6026C139.875 40.3784 135.521 37.0967 135.078 37.4236C131.602 39.9899 128.534 43.0679 125.98 46.5529C125.66 46.991 129.394 50.3882 131.25 52.4145L131.25 52.4146ZM89.8685 37.0151C83.4936 37.4956 80.1849 39.9631 80.6355 44.5963C80.9607 45.9647 81.5993 47.2388 82.5008 48.3183C83.4023 49.3978 84.5422 50.2533 85.8306 50.8172C89.227 51.9861 95.3706 46.2397 94.492 42.7933C93.8665 40.3385 91.0751 38.4359 89.8686 37.015L89.8685 37.0151ZM77.0403 24.4539C73.7569 27.8815 70.7491 31.5629 68.0448 35.4636C67.6829 36.0708 70.8546 39.8854 72.9471 40.6004C76.209 41.7149 81.8387 36.3265 81.4808 32.4304C81.2837 30.2846 79.275 28.3053 77.0403 24.4539ZM160.909 33.6278L160.739 31.1772C158.61 30.0354 156.075 27.5446 154.438 28.0369C151.181 29.0162 148.417 31.6369 145.449 33.5794C147.374 35.8032 149.989 40.2015 151.098 39.85C154.667 38.719 157.681 35.8355 160.909 33.6278V33.6278ZM152.717 18.5022C155.54 14.9793 158.396 12.8826 158.811 10.3813C159.088 8.70654 155.065 4.50922 154.399 4.79374C151.121 6.50112 148.029 8.54528 145.173 10.8932C147.268 13.0062 149.363 15.1193 152.717 18.5022ZM111.226 45.7117C105.224 46.0371 100.225 46.0498 100.003 52.148C100.24 53.2569 100.751 54.289 101.488 55.1506C102.226 56.0122 103.167 56.6761 104.225 57.082C107.791 57.9778 114.414 52.188 113.999 48.82C113.828 47.4351 111.77 46.2826 111.226 45.7117ZM129.104 13.4988C129.115 12.6301 129.125 11.7613 129.136 10.8925C126.638 9.24827 124.235 6.57749 121.607 6.3322C119.943 6.17691 116.076 10.3327 116.452 11.3409C116.951 12.7761 117.734 14.0959 118.756 15.221C119.777 16.3461 121.015 17.2533 122.395 17.8883C124.031 18.3886 126.828 15.0935 129.104 13.4988H129.104ZM194.285 24.4696C191.483 27.154 188.281 28.8011 187.687 31.117C186.738 34.8193 190.243 36.6442 193.291 35.7786C196.266 34.9335 198.771 32.434 201.483 30.6608C199.435 28.8991 197.386 27.1374 194.285 24.4696H194.285ZM139.134 30.5868C141.71 26.8771 144.903 24.0223 144.359 22.6771C143.748 21.3626 142.843 20.2064 141.714 19.2978C140.584 18.3892 139.261 17.7527 137.846 17.4376C135.785 17.2626 133.445 20.3757 131.228 22.0341C133.465 24.4546 135.703 26.8752 139.134 30.5868H139.134ZM157.971 63.6426C160.871 60.3564 162.678 58.3088 164.484 56.2613C162.258 54.4699 160.01 51.2487 157.809 51.2801C155.502 51.313 153.238 54.4661 150.956 56.2554L157.971 63.6426ZM176.256 33.2022C173.107 35.9455 171.146 37.654 169.185 39.3626C171.444 41.515 173.42 44.6436 176.078 45.4122C177.429 45.8028 180.906 42.2358 181.671 39.8876C182.08 38.6317 178.772 36.1649 176.256 33.2023L176.256 33.2022ZM168.141 29.7572L170.94 29.8218C172.529 27.6172 174.946 25.5503 175.346 23.1479C175.537 22.0002 171.764 18.8841 170.028 19.0588C168.779 19.3185 167.612 19.8791 166.628 20.6921C165.645 21.5051 164.874 22.5458 164.384 23.724C163.98 25.3139 166.77 27.7159 168.141 29.7573L168.141 29.7572ZM135.725 63.6C137.796 60.8543 140.172 59.0486 139.972 57.5988C139.585 56.6495 138.967 55.8117 138.174 55.161C137.382 54.5103 136.44 54.0673 135.434 53.8718C134.184 53.7188 131.391 56.2483 131.48 57.4143C131.614 59.175 133.659 60.7903 135.725 63.6ZM14.3377 172.826L16.2535 172.506C15.4563 165.278 14.6591 158.05 13.8619 150.822L11.7456 151.099C12.6096 158.341 13.4736 165.584 14.3377 172.826ZM83.926 28.5702C85.5133 25.7013 87.3424 23.8778 87.0535 22.4975C86.649 21.6755 86.0529 20.9627 85.3152 20.4193C84.5776 19.8759 83.7202 19.5178 82.8152 19.3751C81.9439 19.2594 79.7731 21.858 79.9003 23.0494C80.067 24.6097 81.9247 25.9895 83.926 28.5702V28.5702ZM114.766 15.7737C112.155 13.9025 110.556 11.878 109.113 11.984C107.822 12.0789 105.964 14.4234 105.762 15.9604C105.623 17.0182 107.907 19.4024 109.067 19.3761C110.623 19.3408 112.139 17.5505 114.766 15.7737Z" fill="black"/>
<path d="M171.509 208.492C175.12 210.404 178.731 212.316 182.533 214.329C181.325 224.182 155.616 237.377 142.207 235.675C138.403 228.035 135.227 221.276 131.527 214.817C131.159 214.173 127.598 215.358 125.623 216.167C132.769 217.797 135.807 221.356 135.661 228.305C135.5 235.885 132.899 239.228 124.743 238.962C111.274 238.708 97.8338 237.599 84.5049 235.642C67.9171 232.965 51.5799 228.739 35.1308 225.198C28.9301 223.864 27.0028 219.293 26.0227 213.729C24.9306 207.529 23.1015 201.44 22.3056 195.211C20.5769 181.684 19.2239 168.107 17.8893 154.533C17.4983 150.557 18.0729 146.472 17.5436 142.526C15.2186 125.188 19.988 108.984 26.0411 93.249C28.2708 87.453 33.1458 82.4247 37.6571 77.8834C39.3838 76.1452 43.8195 75.6402 46.4126 76.471C58.1363 80.2274 69.7345 78.319 81.5351 77.3697C89.4493 76.8259 97.4008 77.3547 105.173 78.9419C114.231 80.9451 123.582 81.2435 132.749 79.8218C139.374 78.6812 146.122 78.4268 152.814 79.0653C157.58 79.3896 162.17 80.9965 166.097 83.7159C170.024 86.4354 173.143 90.1662 175.124 94.5133C180.541 105.727 183.496 117.97 183.791 130.42C184.734 151.697 186.723 172.928 188.235 194.181C188.509 196.065 188.481 197.981 188.152 199.856C187.279 203.195 186.718 207.114 184.588 209.514C180.911 213.659 178.599 208.068 175.567 207.086C174.633 206.783 173.689 206.509 172.75 206.222L171.509 208.492ZM67.6287 205.72C73.713 205.652 80.1739 203.942 85.1666 209.613C82.9878 211.939 80.9575 214.108 78.9272 216.276L79.9071 217.515C81.6767 216.708 83.3403 215.687 84.8606 214.474C86.5395 212.782 89.2819 209.849 88.7718 208.76C87.699 206.471 84.9175 203.71 82.6342 203.514C77.2728 203.055 71.792 203.991 66.3595 204.362C61.9129 206.691 57.4131 208.93 53.1043 211.491C52.6869 211.739 53.4515 213.976 53.6423 215.137L67.6287 205.72ZM99.5412 110.227C94.3018 110.769 89.0722 111.606 83.8207 111.779C80.7363 111.77 77.7033 112.57 75.0248 114.099C72.3462 115.629 70.1158 117.834 68.5562 120.495C59.5353 134.908 55.3936 151.841 56.7439 168.79C57.5381 178.661 63.3102 184.38 72.5952 186.918C80.1006 188.969 87.7416 190.617 95.0944 193.115C111.547 198.705 126.689 195.012 141.154 186.999C143.951 185.165 146.148 182.552 147.475 179.482C150.875 172.278 151.247 164.764 151.449 156.585C151.84 140.713 145.427 130.416 132.696 122.767C122.431 116.6 112.571 109.267 99.5412 110.227H99.5412ZM157.292 207.206L159.086 208.721C161.55 206.181 164.014 203.641 166.478 201.101C173.367 193.809 177.354 184.25 177.689 174.224C177.842 171.942 175.59 169.062 173.675 167.289C172.88 166.553 170.065 167.997 168.169 168.45L167.87 170.003C175.07 171.327 175.157 176.278 173.412 181.034C171.367 186.263 168.809 191.277 165.777 196.003C163.145 199.882 160.312 203.621 157.292 207.206V207.206ZM26.1015 115.077C35.7828 117.356 43.7549 113.428 51.0117 107.581C56.6864 103.009 62.0078 97.9523 59.2798 88.0316C53.3295 94.1079 55.6648 104.155 46.9194 106.999C39.978 109.257 33.2791 112.26 26.1015 115.077ZM130.88 101.048C115.438 85.9182 97.0869 83.7502 90.914 95.1345C91.9586 94.9237 92.9758 94.5947 93.946 94.1539C102.77 88.7215 110.899 90.0646 119.121 95.8694C122.55 98.2907 126.931 99.3627 130.88 101.048V101.048ZM37.4656 150.705C31.1883 158.074 30.1717 171.568 35.6877 177.87V154.312L43.5952 156.414C40.6362 153.658 39.0618 152.192 37.4656 150.705L37.4656 150.705ZM166.359 109.384C171.245 105.457 172.602 101.763 171.097 97.4119C169.719 93.4282 163.033 90.0889 158.744 90.7944C168.695 95.1577 170.123 98.1017 166.359 109.384L166.359 109.384ZM158.436 115.752V136.072C160.676 133.159 161.89 129.587 161.89 125.912C161.89 122.237 160.676 118.665 158.435 115.752L158.436 115.752Z" fill="white"/>
<path d="M142.805 55.7355C142.877 52.8277 143.145 49.9281 143.607 47.0563C144.369 43.6346 147.117 44.44 149.909 44.01C157.697 42.8107 164.235 43.4074 170.985 48.4541C175.854 52.0951 180.981 49.5528 184.487 43.2908C186.463 39.761 188.062 38.1848 192.701 38.9545C195.85 39.4769 199.996 37.3549 202.81 35.2383C203.676 34.2744 204.298 33.117 204.624 31.8631C204.95 30.6092 204.971 29.2953 204.684 28.0318C204.155 26.8586 203.385 25.8092 202.426 24.9515C201.466 24.0937 200.337 23.4465 199.112 23.0515C196.5 22.1332 193.688 21.9399 190.974 22.492C188.261 23.0441 185.748 24.3212 183.703 26.1873C182.797 26.8701 181.813 27.4436 180.772 27.896C179.888 23.3415 179.053 19.0413 178.167 14.4744C191.044 14.7197 203.569 18.718 214.206 25.9789C218.363 28.8651 220.992 35.7217 221.914 41.1757C225.219 60.7239 227.66 80.4255 230.108 100.109C231.959 114.988 234.416 130.102 229.948 144.793C222.107 170.574 214.525 196.628 194.943 216.747C193.072 218.668 190.983 220.377 187.785 223.285C189.847 215.269 192.579 208.903 192.923 202.411C193.594 189.162 193.576 175.887 192.868 162.639C191.812 142.022 192.155 121.212 185.542 101.198C181.079 87.6883 172.765 78.0948 159.172 73.4878C156.757 72.7482 154.239 72.399 151.714 72.4535C132.976 72.4168 114.226 72.9156 95.5026 72.4101C82.2525 72.0524 69.0525 69.9851 55.8 69.494C50.0804 69.2821 44.234 70.8886 38.5434 72.122C35.2887 73.0645 32.1093 74.2496 29.0317 75.6673C27.9676 60.2245 49.4361 31.0136 68.7234 23.2019C67.3037 27.0439 66.2012 29.6886 65.3517 32.4121C64.2999 35.7845 61.7764 39.9633 62.8828 42.474C65.0375 47.3626 70.2289 46.0162 74.6093 44.8127C74.7797 44.7659 75.0076 44.9286 75.2088 44.9936C79.5209 55.6547 82.4365 56.9897 93.3238 53.2882C100.443 61.9232 105.965 62.5088 114.571 55.5419C120.295 50.9076 124.317 51.7846 127.503 58.3618C131 65.5821 135.156 66.7946 142.002 63.3296C144.294 62.5632 146.756 62.4543 149.107 63.0152C152.381 63.4747 156.017 65.8237 158.694 64.9373C162.447 63.6265 165.613 61.0247 167.625 57.5964C169.619 53.7714 167.345 49.797 163.329 47.5596C159.117 45.2134 154.853 44.5383 151.159 48.3984C148.998 50.6564 147.25 53.3093 145.316 55.7846L142.805 55.7355ZM189.506 51.4135L188.133 52.5058C192.322 57.0681 196.084 62.1458 200.809 66.0613C206.631 70.886 210.807 76.5857 212.035 83.834C214.914 100.825 220.285 117.502 218.877 135.088C218.902 137.423 219.149 139.751 219.616 142.039C223.543 96.9693 216.175 68.8464 189.506 51.4135ZM194.505 89.6383C197.429 116.485 200.352 143.331 203.335 170.715C205.76 142.77 202.142 115.942 194.505 89.6383V89.6383ZM85.0321 59.5906C84.9141 60.2508 84.7961 60.911 84.6782 61.5712L136.269 70.0442L136.626 67.7651L85.0321 59.5906ZM167.824 72.0767C174.131 76.3262 180.712 80.7598 186.389 84.5843C184.169 77.5269 176.048 71.8715 167.824 72.0767V72.0767Z" fill="white"/>
<path d="M106.694 23.192C105.73 28.3242 99.7619 34.6654 96.1736 33.7176C94.1759 33.1899 91.9522 30.0067 91.5421 27.7142C90.7069 23.0464 95.1009 17.8837 99.4982 18.4718C102.061 18.8146 104.306 21.5391 106.694 23.192Z" fill="white"/>
<path d="M120.04 24.8435C122.88 28.5656 126.467 32.1904 125.996 32.8309C123.415 36.2729 120.224 39.2117 116.582 41.5013C116.009 41.8646 110.613 36.6973 110.959 36.0926C113.025 32.4748 116.12 29.4445 120.04 24.8435Z" fill="white"/>
<path d="M131.249 52.4145C129.394 50.3882 125.66 46.991 125.98 46.5528C128.534 43.0678 131.601 39.9898 135.077 37.4235C135.521 37.0966 139.874 40.3784 140.645 42.6025C141.717 45.6922 135.934 51.212 131.249 52.4145Z" fill="white"/>
<path d="M89.8684 37.0151C91.0749 38.436 93.8662 40.3387 94.4919 42.7933C95.3704 46.2398 89.2269 51.9861 85.8305 50.8173C84.5421 50.2533 83.4022 49.3979 82.5006 48.3183C81.5991 47.2388 80.9606 45.9647 80.6354 44.5963C80.1848 39.9632 83.4934 37.4956 89.8684 37.0151Z" fill="white"/>
<path d="M77.0406 24.4539C79.2753 28.3052 81.284 30.2846 81.4811 32.4303C81.839 36.3265 76.2093 41.7148 72.9474 40.6003C70.8549 39.8854 67.6832 36.0708 68.045 35.4636C70.7494 31.5628 73.7572 27.8815 77.0406 24.4539V24.4539Z" fill="white"/>
<path d="M160.909 33.6277C157.681 35.8354 154.667 38.7188 151.098 39.8499C149.989 40.2014 147.374 35.803 145.449 33.5792C148.417 31.6367 151.181 29.0161 154.438 28.0368C156.075 27.5445 158.61 30.0353 160.739 31.177L160.909 33.6277Z" fill="white"/>
<path d="M152.717 18.5021C149.363 15.1191 147.268 13.0061 145.173 10.893C148.029 8.5451 151.121 6.50094 154.399 4.79356C155.065 4.50904 159.088 8.70636 158.811 10.3812C158.396 12.8824 155.54 14.9791 152.717 18.5021Z" fill="white"/>
<path d="M111.226 45.7114C111.771 46.2824 113.828 47.4348 113.999 48.8198C114.414 52.1878 107.792 57.9777 104.226 57.0818C103.167 56.6759 102.226 56.012 101.488 55.1504C100.751 54.2888 100.24 53.2567 100.003 52.1478C100.225 46.0495 105.224 46.0368 111.226 45.7114Z" fill="white"/>
<path d="M129.104 13.499C126.828 15.0936 124.031 18.3888 122.395 17.8885C121.015 17.2535 119.777 16.3462 118.756 15.2212C117.734 14.0961 116.951 12.7763 116.452 11.341C116.076 10.3329 119.943 6.17707 121.607 6.33237C124.235 6.57766 126.638 9.24845 129.136 10.8927C129.125 11.7614 129.115 12.6302 129.104 13.499Z" fill="white"/>
<path d="M194.285 24.4695C197.387 27.1373 199.435 28.899 201.483 30.6607C198.772 32.4339 196.266 34.9334 193.291 35.7785C190.243 36.6441 186.738 34.8192 187.687 31.1169C188.281 28.801 191.484 27.1539 194.285 24.4695Z" fill="white"/>
<path d="M139.134 30.5867C135.703 26.8751 133.465 24.4545 131.228 22.034C133.445 20.3756 135.785 17.2625 137.847 17.4375C139.261 17.7526 140.585 18.3891 141.714 19.2977C142.843 20.2063 143.748 21.3626 144.359 22.677C144.903 24.0222 141.71 26.8771 139.134 30.5867Z" fill="white"/>
<path d="M157.971 63.6427C154.797 60.3006 152.876 58.2781 150.956 56.2556C153.238 54.4662 155.502 51.3131 157.809 51.2803C160.01 51.2489 162.257 54.4701 164.484 56.2615C162.678 58.309 160.871 60.3565 157.971 63.6427Z" fill="white"/>
<path d="M176.256 33.2021C178.772 36.1648 182.08 38.6315 181.671 39.8875C180.906 42.2358 177.429 45.8027 176.078 45.4122C173.42 44.6435 171.444 41.5149 169.185 39.3625C171.146 37.6539 173.107 35.9454 176.256 33.2021Z" fill="white"/>
<path d="M168.141 29.7571C166.769 27.7158 163.98 25.3137 164.384 23.7238C164.874 22.5457 165.644 21.5049 166.628 20.6919C167.612 19.879 168.779 19.3183 170.028 19.0586C171.764 18.8838 175.536 22 175.346 23.1477C174.946 25.5502 172.529 27.6171 170.94 29.8216L168.141 29.7571Z" fill="white"/>
<path d="M135.725 63.6002C133.659 60.7904 131.614 59.1751 131.48 57.4144C131.391 56.2484 134.184 53.7189 135.433 53.8719C136.44 54.0674 137.382 54.5105 138.174 55.1612C138.967 55.8118 139.585 56.6496 139.972 57.5989C140.172 59.0488 137.796 60.8545 135.725 63.6002Z" fill="white"/>
<path d="M14.3376 172.826C13.4736 165.584 12.6096 158.341 11.7456 151.099L13.8619 150.822C14.6591 158.05 15.4563 165.278 16.2535 172.506L14.3376 172.826Z" fill="white"/>
<path d="M83.9261 28.5702C81.9247 25.9894 80.0671 24.6097 79.9004 23.0493C79.7732 21.858 81.944 19.2594 82.8153 19.3751C83.7203 19.5177 84.5777 19.8758 85.3153 20.4192C86.0529 20.9626 86.6491 21.6754 87.0536 22.4975C87.3424 23.8777 85.5134 25.7013 83.9261 28.5702Z" fill="white"/>
<path d="M114.766 15.7737C112.139 17.5504 110.623 19.3408 109.067 19.3761C107.907 19.4024 105.623 17.0182 105.762 15.9604C105.964 14.4235 107.822 12.0789 109.113 11.984C110.556 11.878 112.155 13.9024 114.766 15.7737Z" fill="white"/>
<path d="M99.5408 110.227C112.571 109.267 122.43 116.6 132.696 122.768C145.427 130.416 151.84 140.713 151.448 156.585C151.246 164.764 150.875 172.278 147.474 179.483C146.147 182.552 143.95 185.165 141.154 186.999C126.689 195.012 111.547 198.705 95.0941 193.115C87.7413 190.617 80.1003 188.97 72.5949 186.918C63.3098 184.38 57.5378 178.662 56.7436 168.79C55.3933 151.841 59.535 134.908 68.5558 120.495C70.1154 117.834 72.3458 115.629 75.0244 114.099C77.703 112.57 80.7359 111.77 83.8204 111.78C89.0719 111.606 94.3014 110.769 99.5408 110.227ZM128.035 125.489C127.037 126.763 126.157 128.125 125.404 129.557C120.743 140.641 112.705 147.901 101.688 152.771C90.9531 157.675 80.4826 163.137 70.3191 169.135C67.5533 170.722 65.9562 174.345 63.8228 177.034C66.5213 178.911 69.2011 180.817 71.9355 182.64C72.5173 182.89 73.1338 183.049 73.7637 183.112C84.7511 186.011 95.6368 189.434 106.768 191.587C112.335 192.518 118.035 192.255 123.493 190.816C138.628 187.018 147.259 178.3 148.203 161.231C149.116 144.704 147.091 136.842 128.035 125.489ZM110.714 129.206C112.021 131.769 113.094 133.875 114.168 135.981C116.387 134.497 118.488 132.842 120.45 131.031C121.729 129.623 122.577 127.877 122.892 126.001C123.058 125.177 123.046 124.328 122.855 123.509C122.664 122.691 122.3 121.923 121.787 121.257C114.968 116.106 107.408 112.813 99.1336 113.348C97.5171 116.753 96.1444 119.645 94.6245 122.846L103.804 117.928L105.143 119.681C102.207 121.677 99.2712 123.673 96.3352 125.67L97.6011 127.409C99.2898 126.881 101.001 126.414 102.661 125.806C104.261 125.219 105.807 124.486 106.868 124.034C106.286 126.422 105.713 128.77 105.14 131.119L106.937 131.791L110.714 129.206ZM97.1102 146.593C102.586 148.806 109.78 145.254 109.984 141.325C109.963 140.723 109.806 140.133 109.525 139.6C109.244 139.067 108.846 138.604 108.362 138.246C107.831 138.028 107.256 137.944 106.685 138C106.114 138.057 105.566 138.252 105.089 138.57C102.478 140.884 100.133 143.499 97.1102 146.593Z" fill="black"/>
<path d="M157.292 207.206C160.313 203.622 163.145 199.882 165.777 196.003C168.809 191.277 171.367 186.263 173.412 181.034C175.157 176.278 175.071 171.327 167.87 170.003L168.169 168.45C170.065 167.998 172.88 166.553 173.675 167.29C175.59 169.063 177.842 171.942 177.689 174.224C177.354 184.25 173.367 193.809 166.478 201.101C164.011 203.638 161.547 206.178 159.086 208.721L157.292 207.206Z" fill="black"/>
<path d="M26.1013 115.077C33.2788 112.26 39.9778 109.257 46.9192 106.999C55.6646 104.155 53.3293 94.1081 59.2796 88.0317C62.0076 97.9524 56.6862 103.009 51.0115 107.581C43.7547 113.428 35.7826 117.356 26.1013 115.077Z" fill="black"/>
<path d="M130.88 101.048C126.931 99.3629 122.55 98.2908 119.121 95.8696C110.9 90.0647 102.77 88.7216 93.946 94.1542C92.9758 94.5949 91.9586 94.9239 90.9141 95.1347C97.087 83.7503 115.438 85.9184 130.88 101.048Z" fill="black"/>
<path d="M66.3591 204.362C71.7916 203.991 77.2724 203.056 82.6338 203.514C84.9171 203.71 87.6986 206.471 88.7714 208.761C89.2815 209.849 86.539 212.783 84.8602 214.474C83.3399 215.687 81.6763 216.708 79.9067 217.515L78.9268 216.276C80.9571 214.108 82.9874 211.94 85.1662 209.613C80.1735 203.943 73.7126 205.653 67.6283 205.72L66.3591 204.362Z" fill="black"/>
<path d="M37.4656 150.705C39.0618 152.192 40.6362 153.658 43.5952 156.414L35.6877 154.312V177.87C30.1716 171.569 31.1883 158.074 37.4656 150.705Z" fill="black"/>
<path d="M166.359 109.384C170.123 98.1021 168.695 95.1581 158.744 90.7949C163.032 90.0894 169.719 93.4286 171.097 97.4124C172.602 101.763 171.245 105.457 166.359 109.384Z" fill="black"/>
<path d="M66.3595 204.363L67.6287 205.72L53.6423 215.137C53.4515 213.976 52.6869 211.739 53.1043 211.491C57.413 208.93 61.9129 206.691 66.3595 204.363Z" fill="black"/>
<path d="M158.436 115.753C160.676 118.666 161.89 122.237 161.89 125.912C161.89 129.587 160.676 133.159 158.436 136.072V115.753Z" fill="black"/>
<path d="M189.506 51.4138C216.175 68.8467 223.543 96.9696 219.616 142.04C219.15 139.751 218.902 137.423 218.877 135.088C220.286 117.502 214.914 100.825 212.036 83.8343C210.807 76.586 206.631 70.8863 200.809 66.0616C196.084 62.1461 192.322 57.0683 188.134 52.506L189.506 51.4138Z" fill="black"/>
<path d="M194.505 89.6387C202.142 115.943 205.76 142.771 203.335 170.716C200.353 143.332 197.429 116.485 194.505 89.6387Z" fill="black"/>
<path d="M85.032 59.5906L136.626 67.765L136.269 70.0442L84.6782 61.5713C84.7961 60.911 84.9141 60.2508 85.032 59.5906Z" fill="black"/>
<path d="M167.824 72.0769C176.048 71.8717 184.17 77.5272 186.389 84.5845C180.712 80.76 174.132 76.3264 167.824 72.0769Z" fill="black"/>
<path d="M128.036 125.489C147.091 136.842 149.117 144.704 148.203 161.231C147.26 178.3 138.628 187.018 123.493 190.816C118.036 192.255 112.335 192.518 106.768 191.587C95.637 189.433 84.7513 186.01 73.764 183.112C73.1341 183.049 72.5176 182.889 71.9358 182.64C69.2013 180.817 66.5215 178.911 63.823 177.034C65.9564 174.345 67.5535 170.722 70.3193 169.135C80.4829 163.137 90.9534 157.675 101.688 152.771C112.706 147.901 120.744 140.641 125.405 129.557C126.157 128.124 127.037 126.763 128.036 125.489V125.489Z" fill="white"/>
<path d="M110.715 129.206L106.937 131.791L105.141 131.119C105.713 128.77 106.286 126.422 106.868 124.034C105.808 124.486 104.261 125.219 102.661 125.806C101.002 126.414 99.29 126.881 97.6013 127.41L96.3355 125.67C99.2715 123.673 102.207 121.677 105.143 119.681L103.804 117.928L94.6248 122.846C96.1447 119.645 97.5173 116.753 99.1339 113.348C107.408 112.813 114.969 116.106 121.788 121.257C122.301 121.923 122.665 122.691 122.855 123.509C123.046 124.328 123.059 125.177 122.893 126.001C122.577 127.877 121.73 129.623 120.45 131.031C118.488 132.842 116.388 134.497 114.168 135.982C113.095 133.875 112.021 131.769 110.715 129.206Z" fill="white"/>
<path d="M97.1104 146.592C100.133 143.499 102.478 140.884 105.089 138.569C105.566 138.252 106.115 138.057 106.685 138C107.256 137.944 107.831 138.028 108.362 138.246C108.846 138.604 109.244 139.067 109.525 139.6C109.806 140.133 109.963 140.723 109.984 141.325C109.78 145.253 102.586 148.806 97.1104 146.592Z" fill="white"/>
</g>
<defs>
<clipPath id="clip0">
<rect width="250" height="250" fill="white"/>
</clipPath>
</defs>
</svg>
