<svg width="56" height="37" viewBox="0 0 56 37" fill="none" xmlns="http://www.w3.org/2000/svg">
<g clip-path="url(#clip0)">
<path d="M57.1667 36.1234H-1.16669V-1.17432H57.1667V36.1234Z" fill="white"/>
<path d="M-0.195557 32H56.1934V37.0892H-0.195557V32Z" fill="#F7B600"/>
<path d="M-0.195557 4.89268H56.1934V-0.196045H-0.195557V4.89268Z" fill="#1A1F71"/>
<path d="M3.5 11.3064V11.5312C8.38801 12.6829 11.7815 15.5945 13.125 18.9394L11.7125 12.4943C11.4767 11.6134 10.7622 11.3371 9.91672 11.3065L3.5 11.3064Z" fill="#F7981D"/>
<path d="M20.5904 25.4626L22.9851 11.229H26.8622L24.4676 25.4626H20.5904Z" fill="#1A1F71"/>
<path d="M38.2702 11.5974C37.5019 11.3089 36.2979 11 34.7947 11C30.9628 11 28.2638 12.931 28.2406 15.6974C28.2193 17.7422 30.1674 18.8827 31.6388 19.5642C33.1479 20.2605 33.6557 20.7072 33.6481 21.3295C33.6388 22.2836 32.4424 22.7197 31.3276 22.7197C29.776 22.7192 28.9512 22.5038 27.6777 21.9726L27.1781 21.7458L26.6336 24.9322C27.5394 25.3297 29.2145 25.6744 30.9534 25.6918C35.0289 25.6909 37.6755 23.7838 37.7052 20.8288C37.7201 19.2098 36.6867 17.9776 34.4496 16.9615C33.0943 16.3039 32.2639 15.8646 32.2729 15.1972C32.2729 14.6058 32.9761 13.9732 34.4937 13.9732C35.7615 13.9532 36.6803 14.2299 37.3963 14.5183L37.7434 14.6825L38.2702 11.5974Z" fill="#1A1F71"/>
<path d="M44.8805 11.229C43.9515 11.229 43.2804 11.5145 42.872 12.4412L37.1259 25.4631H41.2308L42.0291 23.282H46.9335L47.3894 25.4631H51.0387L47.8458 11.2294H44.8805V11.229ZM43.1182 20.4339C43.4385 19.6142 44.6626 16.4556 44.6626 16.4556C44.6404 16.493 44.9811 15.632 45.1768 15.0977L45.4393 16.3243C45.4393 16.3243 46.181 19.722 46.3367 20.4343H43.1182V20.4339Z" fill="#1A1F71"/>
<path d="M13.5199 20.986L13.1784 19.0347C12.4708 16.76 10.2747 14.2989 7.81372 13.0659L11.2393 25.4626H15.3453L21.503 11.229H17.398L13.5199 20.986Z" fill="#1A1F71"/>
</g>
<defs>
<clipPath id="clip0">
<rect width="56" height="37" fill="white"/>
</clipPath>
</defs>
</svg>
